<svg xmlns="http://www.w3.org/2000/svg" version="1.1" width="100" height="100">
<path d="M0 0 C1.26691325 0.58971033 2.52754344 1.19305646 3.7824707 1.80786133 C4.79117973 2.28948479 4.79117973 2.28948479 5.82026672 2.78083801 C7.23408843 3.46016208 8.64504478 4.14547855 10.05322266 4.83642578 C12.20346746 5.88755372 14.36575721 6.91007296 16.53051758 7.9309082 C17.906985 8.59654035 19.28266485 9.2638041 20.6574707 9.93286133 C21.30125168 10.23516159 21.94503265 10.53746185 22.60832214 10.84892273 C26.63742343 12.85950722 28.70720305 14.57296074 30.52075195 18.70239258 C31.83911616 23.0602113 32.80532732 27.49692106 33.79272461 31.93969727 C34.26856478 34.06761175 34.76675131 36.18943977 35.2668457 38.31176758 C35.57681038 39.67864492 35.88544808 41.04582399 36.19262695 42.41333008 C36.47203125 43.6435791 36.75143555 44.87382813 37.03930664 46.14135742 C37.66915546 50.80006682 37.64713585 54.75689903 35.24902344 58.89892578 C34.45347046 59.81677856 34.45347046 59.81677856 33.6418457 60.75317383 C33.05363037 61.44733398 32.46541504 62.14149414 31.859375 62.85668945 C31.23200439 63.56889648 30.60463379 64.28110352 29.95825195 65.01489258 C28.68170699 66.51055691 27.40566313 68.00664909 26.13012695 69.50317383 C25.51073242 70.22069824 24.89133789 70.93822266 24.25317383 71.67749023 C22.00593385 74.30412614 19.85233815 76.99098431 17.70825195 79.70239258 C14.61018285 83.61296168 14.61018285 83.61296168 13.52075195 84.70239258 C7.89370349 84.99523634 2.26406698 85.01649994 -3.36987305 85.05249023 C-5.26908641 85.06903051 -7.16823801 85.09629516 -9.06713867 85.13452148 C-11.8037957 85.18934998 -14.53899037 85.21117505 -17.27612305 85.22583008 C-18.12213074 85.24849945 -18.96813843 85.27116882 -19.83978271 85.29452515 C-24.16629869 85.27905808 -25.90836968 85.15973665 -29.39111328 82.36962891 C-30.08019775 81.48944092 -30.76928223 80.60925293 -31.47924805 79.70239258 C-31.95789307 79.14334229 -32.43653809 78.58429199 -32.9296875 78.00830078 C-33.31342529 77.51160889 -33.69716309 77.01491699 -34.0925293 76.50317383 C-34.53234131 75.93864502 -34.97215332 75.37411621 -35.42529297 74.79248047 C-35.87622314 74.20587646 -36.32715332 73.61927246 -36.79174805 73.01489258 C-39.45889754 69.55445105 -42.1176617 66.1217874 -44.97143555 62.81176758 C-45.69588867 61.97129883 -46.4203418 61.13083008 -47.16674805 60.26489258 C-47.80999023 59.54430664 -48.45323242 58.8237207 -49.1159668 58.08129883 C-52.90388456 51.4714366 -49.33718171 42.23318779 -47.76318359 35.2043457 C-47.29225618 33.07968508 -46.84937743 30.95033897 -46.40698242 28.81958008 C-46.1059527 27.45461968 -45.80327363 26.09002177 -45.4987793 24.72583008 C-45.23170166 23.49783691 -44.96462402 22.26984375 -44.68945312 21.00463867 C-42.34897378 14.618251 -37.76163812 12.0266712 -31.8581543 9.15161133 C-31.23577377 8.84794144 -30.61339325 8.54427155 -29.97215271 8.23139954 C-28.66444228 7.59699152 -27.35417133 6.9678368 -26.04150391 6.34375 C-24.04296141 5.39047134 -22.05702692 4.41394406 -20.07104492 3.43481445 C-18.79243728 2.81814896 -17.51316143 2.20286664 -16.2331543 1.58911133 C-14.50560913 0.75706177 -14.50560913 0.75706177 -12.74316406 -0.09179688 C-7.82885035 -1.90732499 -4.90939106 -1.83098824 0 0 Z M-7.47924805 9.70239258 C-8.63699865 13.17564438 -8.54791457 16.06306705 -8.47924805 19.70239258 C-9.1547168 19.95633789 -9.83018555 20.2102832 -10.52612305 20.47192383 C-11.4181543 20.81610352 -12.31018555 21.1602832 -13.22924805 21.51489258 C-14.55182617 22.01956055 -14.55182617 22.01956055 -15.90112305 22.53442383 C-18.51242392 23.60418177 -18.51242392 23.60418177 -20.63549805 25.32739258 C-23.01635083 27.10294381 -24.58077837 26.94393172 -27.47924805 26.70239258 C-27.25237305 27.40364258 -27.02549805 28.10489258 -26.79174805 28.82739258 C-26.37787919 32.63498605 -27.74603619 34.3001619 -29.47924805 37.70239258 C-30.30508821 41.02067805 -30.88692075 44.33068337 -31.47924805 47.70239258 C-34.44924805 48.69239258 -37.41924805 49.68239258 -40.47924805 50.70239258 C-40.14924805 51.36239258 -39.81924805 52.02239258 -39.47924805 52.70239258 C-34.52924805 52.20739258 -34.52924805 52.20739258 -29.47924805 51.70239258 C-28.75737305 52.91926758 -28.03549805 54.13614258 -27.29174805 55.38989258 C-25.57718811 58.1644511 -24.09600975 60.07692091 -21.72924805 62.38989258 C-19.28047996 64.906682 -18.77432046 66.25988114 -18.47924805 69.70239258 C-17.48924805 69.04239258 -16.49924805 68.38239258 -15.47924805 67.70239258 C-13.48632813 67.4753418 -13.48632813 67.4753418 -11.2487793 67.50708008 C-10.44633789 67.51352539 -9.64389648 67.5199707 -8.81713867 67.52661133 C-7.98375977 67.54336914 -7.15038086 67.56012695 -6.29174805 67.57739258 C-5.02427734 67.59092773 -5.02427734 67.59092773 -3.73120117 67.60473633 C-1.64709562 67.62828554 0.43686412 67.6641561 2.52075195 67.70239258 C3.84075195 70.34239258 5.16075195 72.98239258 6.52075195 75.70239258 C7.18075195 75.70239258 7.84075195 75.70239258 8.52075195 75.70239258 C8.37766602 75.13004883 8.23458008 74.55770508 8.0871582 73.96801758 C7.23168945 70.54614258 6.3762207 67.12426758 5.52075195 63.70239258 C6.07762695 63.49614258 6.63450195 63.28989258 7.20825195 63.07739258 C10.46316546 61.1420386 12.30767465 58.75285049 14.52075195 55.70239258 C14.85075195 54.05239258 15.18075195 52.40239258 15.52075195 50.70239258 C19.48075195 51.03239258 23.44075195 51.36239258 27.52075195 51.70239258 C27.19075195 50.71239258 26.86075195 49.72239258 26.52075195 48.70239258 C23.22075195 48.37239258 19.92075195 48.04239258 16.52075195 47.70239258 C16.61356445 45.72239258 16.61356445 45.72239258 16.70825195 43.70239258 C16.73176345 38.75714195 15.48763185 35.20982567 13.52075195 30.70239258 C14.30450195 29.93926758 15.08825195 29.17614258 15.89575195 28.38989258 C18.59332913 25.79347453 18.59332913 25.79347453 20.52075195 22.70239258 C19.53075195 22.37239258 18.54075195 22.04239258 17.52075195 21.70239258 C16.79887695 22.54801758 16.07700195 23.39364258 15.33325195 24.26489258 C12.52075195 26.70239258 12.52075195 26.70239258 9.95825195 26.70239258 C7.52075195 25.70239258 7.52075195 25.70239258 5.70825195 24.32739258 C2.55837188 21.98748167 -0.78063231 20.99690809 -4.47924805 19.70239258 C-4.52823242 19.06430664 -4.5772168 18.4262207 -4.62768555 17.76879883 C-4.70245117 16.94250977 -4.7772168 16.1162207 -4.85424805 15.26489258 C-4.95866211 14.02932617 -4.95866211 14.02932617 -5.06518555 12.76879883 C-5.27014648 11.74592773 -5.27014648 11.74592773 -5.47924805 10.70239258 C-6.13924805 10.37239258 -6.79924805 10.04239258 -7.47924805 9.70239258 Z M-32.47924805 21.70239258 C-32.47924805 22.69239258 -32.47924805 23.68239258 -32.47924805 24.70239258 C-30.00424805 25.69239258 -30.00424805 25.69239258 -27.47924805 26.70239258 C-28.83458065 24.1656597 -28.83458065 24.1656597 -30.47924805 21.70239258 C-31.13924805 21.70239258 -31.79924805 21.70239258 -32.47924805 21.70239258 Z M-19.47924805 69.70239258 C-20.50938082 71.35060502 -21.51039433 73.01742959 -22.47924805 74.70239258 C-21.15924805 74.70239258 -19.83924805 74.70239258 -18.47924805 74.70239258 C-18.47924805 73.05239258 -18.47924805 71.40239258 -18.47924805 69.70239258 C-18.80924805 69.70239258 -19.13924805 69.70239258 -19.47924805 69.70239258 Z " fill="#0176BC" transform="translate(56.479248046875,7.297607421875)"/>
<path d="M0 0 C1.15518918 0.90484792 2.29885406 1.8244206 3.4375 2.75 C4.07558594 3.26046875 4.71367188 3.7709375 5.37109375 4.296875 C7.18810554 6.19667629 7.60423197 7.43586908 8 10 C6.75336669 10.50833591 5.50250613 11.00631145 4.25 11.5 C3.55390625 11.7784375 2.8578125 12.056875 2.140625 12.34375 C0 13 0 13 -4 13 C-3.71812064 11.20676747 -3.4241719 9.41542874 -3.125 7.625 C-2.96257813 6.62726562 -2.80015625 5.62953125 -2.6328125 4.6015625 C-2 2 -2 2 0 0 Z " fill="#0172BE" transform="translate(33,40)"/>
<path d="M0 0 C-0.66498383 4.38889325 -2.18757677 7.9811485 -4 12 C-8.21073233 10.49616703 -9.83237117 7.79335044 -12 4 C-12 3.01 -12 2.02 -12 1 C-8.0186217 -0.3271261 -4.14954773 -0.06915913 0 0 Z " fill="#0174BD" transform="translate(43,57)"/>
<path d="M0 0 C3.32368224 1.10789408 3.61563093 1.48436217 5.25 4.375 C5.78367187 5.28378906 5.78367187 5.28378906 6.328125 6.2109375 C7 8 7 8 6 11 C2.37 11 -1.26 11 -5 11 C-4.02745 6.13724999 -2.82739031 3.92186398 0 0 Z " fill="#0175BD" transform="translate(49,61)"/>
<path d="M0 0 C4.16138263 -0.08159574 7.9472484 0.01751476 12 1 C10.68206814 6.66710699 8.51290803 8.66437233 4 12 C3.32645501 10.56570999 2.66140299 9.12742943 2 7.6875 C1.62875 6.88699219 1.2575 6.08648437 0.875 5.26171875 C0 3 0 3 0 0 Z " fill="#0175BD" transform="translate(57,57)"/>
<path d="M0 0 C1.99785435 4.1205746 2.17835515 7.45194365 2 12 C0.3733152 11.71788123 -1.25132896 11.42397625 -2.875 11.125 C-3.77992187 10.96257813 -4.68484375 10.80015625 -5.6171875 10.6328125 C-8 10 -8 10 -10 8 C-8.71451591 6.66070495 -7.42141845 5.32871357 -6.125 4 C-5.04605469 2.88625 -5.04605469 2.88625 -3.9453125 1.75 C-2 0 -2 0 0 0 Z " fill="#0176BC" transform="translate(68,41)"/>
<path d="M0 0 C9.24107143 2.8125 9.24107143 2.8125 12 6 C10.73608512 7.00873016 9.46359117 8.00671822 8.1875 9 C7.12595703 9.8353125 7.12595703 9.8353125 6.04296875 10.6875 C4 12 4 12 1 12 C0.67 8.04 0.34 4.08 0 0 Z " fill="#0174BD" transform="translate(52,31)"/>
<path d="M0 0 C0 3.63 0 7.26 0 11 C-0.99 11.495 -0.99 11.495 -2 12 C-4.97 10.02 -7.94 8.04 -11 6 C-8.07713121 2.62745909 -4.7157117 0 0 0 Z " fill="#0174BC" transform="translate(47,31)"/>
<path d="M0 0 C2.4375 0.9375 2.4375 0.9375 3.875 2.75 C4.4375 4.9375 4.4375 4.9375 3.8125 7.125 C2.4375 8.9375 2.4375 8.9375 0.5 9.8125 C-1.5625 9.9375 -1.5625 9.9375 -4.5625 7.9375 C-5.4375 5.5 -5.4375 5.5 -5.5625 2.9375 C-3.94493867 0.24156445 -3.15067825 -0.07684581 0 0 Z " fill="#0175BC" transform="translate(50.5625,47.0625)"/>
</svg>
