<svg xmlns="http://www.w3.org/2000/svg" version="1.1" width="200" height="200">
<path d="M0 0 C66 0 132 0 200 0 C200 66 200 132 200 200 C134 200 68 200 0 200 C0 134 0 68 0 0 Z " fill="#6C4A9A" transform="translate(0,0)"/>
<path d="M0 0 C9.57 0 19.14 0 29 0 C29 6.27 29 12.54 29 19 C19.43 19 9.86 19 0 19 C0 12.73 0 6.46 0 0 Z " fill="#553A79" transform="translate(102,96)"/>
<path d="M0 0 C9.24 0 18.48 0 28 0 C28.020625 2.59875 28.04125 5.1975 28.0625 7.875 C28.071604 8.69210449 28.08070801 9.50920898 28.09008789 10.35107422 C28.11111111 15.77777778 28.11111111 15.77777778 27 18 C18.09 18 9.18 18 0 18 C0 12.06 0 6.12 0 0 Z " fill="#62438C" transform="translate(103,149)"/>
<path d="M0 0 C17.2414248 -0.61576517 17.2414248 -0.61576517 23 4 C27.84878727 9.2217709 28.11078767 12.13116469 28 19 C24.27171115 19.22666276 20.54246959 19.42809699 16.8125 19.625 C15.22985352 19.72167969 15.22985352 19.72167969 13.61523438 19.8203125 C12.08286133 19.89765625 12.08286133 19.89765625 10.51953125 19.9765625 C9.58214111 20.02893066 8.64475098 20.08129883 7.67895508 20.13525391 C5 20 5 20 0 18 C0 12.06 0 6.12 0 0 Z " fill="#563B7B" transform="translate(139,96)"/>
<path d="M0 0 C0.67998047 0.00064453 1.35996094 0.00128906 2.06054688 0.00195312 C7.04669423 0.04669423 7.04669423 0.04669423 8.1875 1.1875 C8.27381874 2.53017413 8.29456473 3.87724322 8.28515625 5.22265625 C8.28265869 5.95105713 8.28016113 6.67945801 8.27758789 7.42993164 C8.26848389 8.3605542 8.25937988 9.29117676 8.25 10.25 C8.229375 13.199375 8.20875 16.14875 8.1875 19.1875 C-1.3825 19.1875 -10.9525 19.1875 -20.8125 19.1875 C-20.8125 12.1875 -20.8125 12.1875 -18.8125 8.1875 C-13.8625 8.1875 -8.9125 8.1875 -3.8125 8.1875 C-3.8125 7.1975 -3.8125 6.2075 -3.8125 5.1875 C-4.99005859 5.20490234 -4.99005859 5.20490234 -6.19140625 5.22265625 C-11.84969775 5.27125507 -17.24128878 5.20044749 -22.8125 4.1875 C-22.8125 3.8575 -22.8125 3.5275 -22.8125 3.1875 C-22.23242188 3.13851562 -21.65234375 3.08953125 -21.0546875 3.0390625 C-20.27351563 2.96429688 -19.49234375 2.88953125 -18.6875 2.8125 C-17.53894531 2.70808594 -17.53894531 2.70808594 -16.3671875 2.6015625 C-13.72450184 2.25537208 -13.72450184 2.25537208 -10.99609375 1.16015625 C-7.20357801 0.00146126 -3.95877145 -0.04273453 0 0 Z " fill="#543A79" transform="translate(86.8125,95.8125)"/>
<path d="M0 0 C9.24 0 18.48 0 28 0 C26.79508197 10.8442623 26.79508197 10.8442623 24 14 C16.49236002 19.4467192 8.95078162 18.29835939 0 18 C0 12.06 0 6.12 0 0 Z " fill="#64448E" transform="translate(139,149)"/>
<path d="M0 0 C9.24 0 18.48 0 28 0 C28 5.94 28 11.88 28 18 C25.48375 18.061875 22.9675 18.12375 20.375 18.1875 C19.59431152 18.21481201 18.81362305 18.24212402 18.00927734 18.27026367 C11.76721164 18.34395142 7.82127835 16.69985979 3.1875 12.375 C1 9 1 9 0 0 Z " fill="#604289" transform="translate(66,149)"/>
<path d="M0 0 C5.625 -0.25 5.625 -0.25 9 2 C9.99 2 10.98 2 12 2 C11.34 2.99 10.68 3.98 10 5 C9.58333333 8 9.58333333 8 10 11 C11.485 12.485 11.485 12.485 13 14 C13 16.97 13 19.94 13 23 C3.76 23 -5.48 23 -15 23 C-16 14 -16 14 -14.5625 11.4375 C-14.046875 10.963125 -13.53125 10.48875 -13 10 C-13.99 10 -14.98 10 -16 10 C-16 10.66 -16 11.32 -16 12 C-17.65 11.67 -19.3 11.34 -21 11 C-21 10.34 -21 9.68 -21 9 C-18.36 9 -15.72 9 -13 9 C-12.67 6.36 -12.34 3.72 -12 1 C-11.67 1 -11.34 1 -11 1 C-11 5.29 -11 9.58 -11 14 C-10.01 14 -9.02 14 -8 14 C-8 11.03 -8 8.06 -8 5 C-6.35 4.67 -4.7 4.34 -3 4 C-2.608125 4.61875 -2.21625 5.2375 -1.8125 5.875 C0.27717491 8.32496368 1.97463327 9.01879998 5 10 C4.67 10.66 4.34 11.32 4 12 C1.61435923 11.42415568 -0.66682784 10.77772405 -3 10 C-2.01 11.485 -2.01 11.485 -1 13 C2.58357241 13.25015873 2.58357241 13.25015873 6 13 C6 11.35 6 9.7 6 8 C4.35 7.34 2.7 6.68 1 6 C1 5.34 1 4.68 1 4 C3.97 4.495 3.97 4.495 7 5 C5.33045181 1.77595022 5.33045181 1.77595022 2.375 1.3125 C1.59125 1.209375 0.8075 1.10625 0 1 C0 0.67 0 0.34 0 0 Z " fill="#57397F" transform="translate(81,118)"/>
<path d="M0 0 C0.99 0.33 1.98 0.66 3 1 C3.33 3.97 3.66 6.94 4 10 C5.32 10.33 6.64 10.66 8 11 C8 10.34 8 9.68 8 9 C7.34 9 6.68 9 6 9 C6 6.36 6 3.72 6 1 C8.375 1.1875 8.375 1.1875 11 2 C13.16789459 5.61315766 13.19258541 8.85941364 13 13 C12.01 13 11.02 13 10 13 C10 13.99 10 14.98 10 16 C13.16857009 15.07670805 14.6507487 14.60810814 16.328125 11.6875 C16.63234375 10.800625 16.9365625 9.91375 17.25 9 C17.56453125 8.113125 17.8790625 7.22625 18.203125 6.3125 C18.46609375 5.549375 18.7290625 4.78625 19 4 C19.33 3.34 19.66 2.68 20 2 C21.98 2 23.96 2 26 2 C26 7.94 26 13.88 26 20 C16.76 20 7.52 20 -2 20 C-2 17.03 -2 14.06 -2 11 C-1.34 11 -0.68 11 0 11 C0 7.37 0 3.74 0 0 Z " fill="#5C3C84" transform="translate(141,121)"/>
<path d="M0 0 C0.33 0 0.66 0 1 0 C1 9.9 1 19.8 1 30 C-8.9 30 -18.8 30 -29 30 C-25.9408769 27.70565768 -23.02036587 25.80918782 -19.75 23.875 C-10.228064 17.81443354 -4.93711362 10.00513555 0 0 Z " fill="#000000" transform="translate(199,170)"/>
<path d="M0 0 C3.09375 -0.04125 6.1875 -0.0825 9.375 -0.125 C10.83558838 -0.15231201 10.83558838 -0.15231201 12.32568359 -0.18017578 C13.09219238 -0.1851709 13.85870117 -0.19016602 14.6484375 -0.1953125 C15.82672119 -0.21102295 15.82672119 -0.21102295 17.02880859 -0.22705078 C19 0 19 0 21 2 C21.14517744 4.9093558 21.18630796 7.719946 21.125 10.625 C21.11597656 11.42679688 21.10695313 12.22859375 21.09765625 13.0546875 C21.07406223 15.03658523 21.03819065 17.01832981 21 19 C19.35 19 17.7 19 16 19 C16 16.69 16 14.38 16 12 C12.37 12 8.74 12 5 12 C5 14.31 5 16.62 5 19 C3.35 19 1.7 19 0 19 C0 12.73 0 6.46 0 0 Z " fill="#F9F8FA" transform="translate(69,15)"/>
<path d="M0 0 C6.27 0 12.54 0 19 0 C19 1.32 19 2.64 19 4 C14.38 4 9.76 4 5 4 C5 4.99 5 5.98 5 7 C8.96 7 12.92 7 17 7 C17 8.65 17 10.3 17 12 C13.04 12 9.08 12 5 12 C5 12.99 5 13.98 5 15 C9.95 15 14.9 15 20 15 C20 16.32 20 17.64 20 19 C13.4 19 6.8 19 0 19 C0 12.73 0 6.46 0 0 Z " fill="#F5F4F6" transform="translate(146,15)"/>
<path d="M0 0 C4.33125 -0.12375 4.33125 -0.12375 8.75 -0.25 C9.65331055 -0.28641602 10.55662109 -0.32283203 11.48730469 -0.36035156 C15.11244997 -0.41058827 17.3877615 -0.35838351 20.5625 1.5 C22.59676007 5.0378436 22.43163034 8.29604715 22.25 12.25 C22.23195312 12.99507812 22.21390625 13.74015625 22.1953125 14.5078125 C22.14835649 16.33909701 22.07661652 18.16971649 22 20 C20.35 20 18.7 20 17 20 C17 15.05 17 10.1 17 5 C13.04 5 9.08 5 5 5 C5 9.95 5 14.9 5 20 C3.35 20 1.7 20 0 20 C0 13.4 0 6.8 0 0 Z " fill="#EFEEF1" transform="translate(121,14)"/>
<path d="M0 0 C27.39 0 54.78 0 83 0 C83 0.99 83 1.98 83 3 C55.61 3 28.22 3 0 3 C0 2.01 0 1.02 0 0 Z " fill="#F5F4F7" transform="translate(0,101)"/>
<path d="M0 0 C3.58326501 -0.05814085 7.16640838 -0.09364357 10.75 -0.125 C11.76578125 -0.14175781 12.7815625 -0.15851562 13.828125 -0.17578125 C14.8078125 -0.18222656 15.7875 -0.18867188 16.796875 -0.1953125 C17.69760742 -0.20578613 18.59833984 -0.21625977 19.52636719 -0.22705078 C22.13926856 0.01278324 23.75664666 0.67687936 26 2 C25.34 3.65 24.68 5.3 24 7 C26.64 7 29.28 7 32 7 C32 5.02 32 3.04 32 1 C32.33 1 32.66 1 33 1 C33 2.98 33 4.96 33 7 C35.97 7 38.94 7 42 7 C42 5.02 42 3.04 42 1 C42.33 1 42.66 1 43 1 C43 2.98 43 4.96 43 7 C45.97 7 48.94 7 52 7 C51.01 5.02 50.02 3.04 49 1 C51.475 1.495 51.475 1.495 54 2 C54 8.27 54 14.54 54 21 C50.00889681 22.9955516 48.30013434 23.19546065 44 23 C44.598125 22.71125 45.19625 22.4225 45.8125 22.125 C49.71094455 20.26944423 49.71094455 20.26944423 51.75 16.6875 C52.01128999 13.87863258 51.69940974 11.71992678 51 9 C48.36 8.67 45.72 8.34 43 8 C43.020625 8.94875 43.04125 9.8975 43.0625 10.875 C43 14 43 14 42 16 C39.03 16 36.06 16 33 16 C33 17.65 33 19.3 33 21 C32.67 21 32.34 21 32 21 C32 19.02 32 17.04 32 15 C29.03 15 26.06 15 23 15 C23 14.67 23 14.34 23 14 C25.97 14 28.94 14 32 14 C32 12.02 32 10.04 32 8 C29.03 8 26.06 8 23 8 C22.34 6.02 21.68 4.04 21 2 C14.07 1.67 7.14 1.34 0 1 C0 0.67 0 0.34 0 0 Z " fill="#54397C" transform="translate(14,13)"/>
<path d="M0 0 C2.375 1.4375 2.375 1.4375 4 4 C4.7842297 8.3612774 4.77513557 11.77767083 2.375 15.5625 C-0.72548536 17.43910956 -2.43283597 17.59452734 -6 17 C-8.375 15.5625 -8.375 15.5625 -10 13 C-10.7842297 8.6387226 -10.77513557 5.22232917 -8.375 1.4375 C-5.27451464 -0.43910956 -3.56716403 -0.59452734 0 0 Z " fill="#EAE8EE" transform="translate(67,69)"/>
<path d="M0 0 C6.6 0 13.2 0 20 0 C20 1.32 20 2.64 20 4 C15.05 4 10.1 4 5 4 C5 5.32 5 6.64 5 8 C9.29 8 13.58 8 18 8 C18 9.32 18 10.64 18 12 C13.38 12 8.76 12 4 12 C4 14.31 4 16.62 4 19 C2.68 19 1.36 19 0 19 C0 12.73 0 6.46 0 0 Z " fill="#FBFAFB" transform="translate(15,15)"/>
<path d="M0 0 C1.588125 -0.061875 3.17625 -0.12375 4.8125 -0.1875 C6.15248047 -0.23970703 6.15248047 -0.23970703 7.51953125 -0.29296875 C10 0 10 0 11.796875 1.19921875 C13.37832214 3.56625488 13.43328495 5.16748729 13.4375 8 C13.45683594 8.86625 13.47617188 9.7325 13.49609375 10.625 C13 13 13 13 11.26953125 14.80078125 C7.49252818 16.79654707 4.21452192 16.18593479 0 16 C0 10.72 0 5.44 0 0 Z " fill="#F5F4F6" transform="translate(113,46)"/>
<path d="M0 0 C2.64 0 5.28 0 8 0 C9.54725131 3.61025305 10.13799263 5.43741467 9.1875 9.3125 C8 12 8 12 7 13 C1.32594134 13.99544889 -3.32146663 13.91262143 -9 13 C-9 11.35 -9 9.7 -9 8 C-7.88625 7.855625 -6.7725 7.71125 -5.625 7.5625 C-2.17857953 7.21627965 -2.17857953 7.21627965 0 6 C0 4.02 0 2.04 0 0 Z " fill="#6D5C8F" transform="translate(57,21)"/>
<path d="M0 0 C0.33 0 0.66 0 1 0 C1.33 1.65 1.66 3.3 2 5 C4.97 5.33 7.94 5.66 11 6 C11 7.98 11 9.96 11 12 C9.35425434 12.02688151 7.70838587 12.04634123 6.0625 12.0625 C5.14597656 12.07410156 4.22945312 12.08570313 3.28515625 12.09765625 C1 12 1 12 0 11 C-0.33 11.66 -0.66 12.32 -1 13 C-5.62 13 -10.24 13 -15 13 C-15 14.98 -15 16.96 -15 19 C-15.33 19 -15.66 19 -16 19 C-16 16.69 -16 14.38 -16 12 C-11.38 12 -6.76 12 -2 12 C-2 10.68 -2 9.36 -2 8 C-6.29 8 -10.58 8 -15 8 C-15 6.68 -15 5.36 -15 4 C-10.05 4 -5.1 4 0 4 C0 2.68 0 1.36 0 0 Z " fill="#6A538A" transform="translate(35,15)"/>
<path d="M0 0 C1.60875 -0.04125 3.2175 -0.0825 4.875 -0.125 C5.77992187 -0.14820313 6.68484375 -0.17140625 7.6171875 -0.1953125 C10 0 10 0 12 2 C12.21676408 5.39597063 12.08073852 7.75778445 11 11 C11.39397335 13.63804589 11.39397335 13.63804589 12 16 C10.68 16 9.36 16 8 16 C7.34 14.02 6.68 12.04 6 10 C5.01 10 4.02 10 3 10 C3 11.98 3 13.96 3 16 C2.01 16 1.02 16 0 16 C0 10.72 0 5.44 0 0 Z " fill="#E0DBE7" transform="translate(45,46)"/>
<path d="M0 0 C1.65 0 3.3 0 5 0 C5.83698386 2.45714547 6.66972424 4.91558857 7.5 7.375 C7.73847656 8.07367188 7.97695312 8.77234375 8.22265625 9.4921875 C10 14.7734375 10 14.7734375 10 17 C8.35 16.67 6.7 16.34 5 16 C5 15.01 5 14.02 5 13 C3.02 13 1.04 13 -1 13 C-1 14.32 -1 15.64 -1 17 C-2.32 17 -3.64 17 -5 17 C-4.46246904 10.81839396 -2.45417612 5.673142 0 0 Z " fill="#DAD4E2" transform="translate(99,69)"/>
<path d="M0 0 C5.94 0 11.88 0 18 0 C18 1.32 18 2.64 18 4 C15.36 4 12.72 4 10 4 C10 8.95 10 13.9 10 19 C8.35 19 6.7 19 5 19 C5 14.05 5 9.1 5 4 C3.35 4 1.7 4 0 4 C0 2.68 0 1.36 0 0 Z " fill="#F6F5F7" transform="translate(168,15)"/>
<path d="M0 0 C5.94 0 11.88 0 18 0 C18 1.32 18 2.64 18 4 C15.36 4 12.72 4 10 4 C10 8.95 10 13.9 10 19 C8.35 19 6.7 19 5 19 C5 14.05 5 9.1 5 4 C3.35 4 1.7 4 0 4 C0 2.68 0 1.36 0 0 Z " fill="#F8F7F9" transform="translate(92,15)"/>
<path d="M0 0 C3.96 0 7.92 0 12 0 C12 1.32 12 2.64 12 4 C9.36 4 6.72 4 4 4 C4 4.99 4 5.98 4 7 C6.31 7 8.62 7 11 7 C11 7.99 11 8.98 11 10 C8.69 10 6.38 10 4 10 C4 11.32 4 12.64 4 14 C6.64 14 9.28 14 12 14 C12 14.99 12 15.98 12 17 C8.04 17 4.08 17 0 17 C0 11.39 0 5.78 0 0 Z " fill="#E6E4EA" transform="translate(31,45)"/>
<path d="M0 0 C5.75 -0.125 5.75 -0.125 8 1 C8 7.6 8 14.2 8 21 C9.65 21 11.3 21 13 21 C13 16.05 13 11.1 13 6 C16.63 6 20.26 6 24 6 C24 10.95 24 15.9 24 21 C23.67 21 23.34 21 23 21 C23 16.71 23 12.42 23 8 C20.69 8.66 18.38 9.32 16 10 C15.67 13.96 15.34 17.92 15 22 C8.375 23.125 8.375 23.125 5 22 C5 15.07 5 8.14 5 1 C3.35 1 1.7 1 0 1 C0 0.67 0 0.34 0 0 Z " fill="#634886" transform="translate(113,13)"/>
<path d="M0 0 C1.65 0 3.3 0 5 0 C5.83919398 2.26882087 6.67151724 4.53977027 7.5 6.8125 C7.73847656 7.45509766 7.97695313 8.09769531 8.22265625 8.75976562 C9.27068746 11.64933739 10 13.90076061 10 17 C8.68 17 7.36 17 6 17 C5.67 16.01 5.34 15.02 5 14 C2.03 13.505 2.03 13.505 -1 13 C-1 14.32 -1 15.64 -1 17 C-2.32 17 -3.64 17 -5 17 C-4.31063929 13.08878502 -3.21749819 9.44491404 -1.9375 5.6875 C-1.57527344 4.61886719 -1.21304687 3.55023438 -0.83984375 2.44921875 C-0.56269531 1.64097656 -0.28554688 0.83273438 0 0 Z " fill="#E3DFE9" transform="translate(19,69)"/>
<path d="M0 0 C3.96 0 7.92 0 12 0 C12 1.32 12 2.64 12 4 C9.36 4 6.72 4 4 4 C4 4.99 4 5.98 4 7 C6.31 7 8.62 7 11 7 C11 7.99 11 8.98 11 10 C8.69 10 6.38 10 4 10 C4 11.32 4 12.64 4 14 C6.31 14 8.62 14 11 14 C11 14.99 11 15.98 11 17 C7.37 17 3.74 17 0 17 C0 11.39 0 5.78 0 0 Z " fill="#E8E6EC" transform="translate(99,45)"/>
<path d="M0 0 C0.99 0.33 1.98 0.66 3 1 C3.33 1.99 3.66 2.98 4 4 C4.78375 4.12375 5.5675 4.2475 6.375 4.375 C9 5 9 5 11 7 C11.31537716 11.33643601 11.44897847 13.32653229 9 17 C5.96133201 17.41137202 3.07840297 17.13193156 0 17 C0 11.39 0 5.78 0 0 Z " fill="#F7F6F8" transform="translate(44,115)"/>
<path d="M0 0 C2 2 2 2 2 5 C-0.31 4.67 -2.62 4.34 -5 4 C-5 4.99 -5 5.98 -5 7 C-4.236875 6.938125 -3.47375 6.87625 -2.6875 6.8125 C0 7 0 7 1.8125 8.1875 C3.41501866 10.63344953 3.4409511 12.13381787 3 15 C-0.69486103 17.46324069 -2.63293092 17.38991688 -7 17 C-8.9375 15.6875 -8.9375 15.6875 -10 14 C-10 13.01 -10 12.02 -10 11 C-8.68 11 -7.36 11 -6 11 C-5.67 11.66 -5.34 12.32 -5 13 C-4.01 13 -3.02 13 -2 13 C-1.67 12.34 -1.34 11.68 -1 11 C-2.134375 10.690625 -3.26875 10.38125 -4.4375 10.0625 C-8 9 -8 9 -9 8 C-9.25 5.0625 -9.25 5.0625 -9 2 C-5.54754176 -0.30163882 -4.05261287 -0.34490322 0 0 Z " fill="#E9E7ED" transform="translate(39,69)"/>
<path d="M0 0 C3.0625 0.25 3.0625 0.25 6.0625 2.25 C6.0625 3.24 6.0625 4.23 6.0625 5.25 C3.4225 4.92 0.7825 4.59 -1.9375 4.25 C-1.05157985 6.60001566 -1.05157985 6.60001566 2.0625 7.3125 C3.0525 7.621875 4.0425 7.93125 5.0625 8.25 C6.0625 9.25 6.0625 9.25 6.25 12.1875 C6.0625 15.25 6.0625 15.25 4.0625 17.25 C2.1875 17.515625 2.1875 17.515625 0.0625 17.5 C-0.989375 17.50773437 -0.989375 17.50773437 -2.0625 17.515625 C-3.9375 17.25 -3.9375 17.25 -5.9375 15.25 C-5.9375 13.93 -5.9375 12.61 -5.9375 11.25 C-3.27083333 11.91666667 -0.60416667 12.58333333 2.0625 13.25 C2.3925 12.59 2.7225 11.93 3.0625 11.25 C1.94875 10.96125 0.835 10.6725 -0.3125 10.375 C-3.9375 9.25 -3.9375 9.25 -5.9375 7.25 C-5.49166871 2.79168705 -4.82926429 0.41100122 0 0 Z " fill="#EAE8EE" transform="translate(48.9375,68.75)"/>
<path d="M0 0 C2.375 1.3125 2.375 1.3125 4 3 C4 3.99 4 4.98 4 6 C3.36191406 5.91621094 2.72382813 5.83242188 2.06640625 5.74609375 C1.24011719 5.64425781 0.41382813 5.54242188 -0.4375 5.4375 C-1.26121094 5.33308594 -2.08492187 5.22867188 -2.93359375 5.12109375 C-3.95646484 5.06115234 -3.95646484 5.06115234 -5 5 C-6.2678956 6.04490735 -6.2678956 6.04490735 -6.125 8.375 C-6.11343738 11.11093048 -6.11343738 11.11093048 -5 14 C-3.02463255 13.65213292 -3.02463255 13.65213292 -1 13 C-0.67 12.34 -0.34 11.68 0 11 C1.32 11 2.64 11 4 11 C3.6875 12.875 3.6875 12.875 3 15 C-0.73255448 17.48836965 -2.58440935 17.54226552 -7 17 C-9.5 15 -9.5 15 -11 12 C-11.32558219 7.88952483 -10.61703774 4.91412998 -8.3125 1.5 C-5.27705062 -0.46894014 -3.5580909 -0.51888826 0 0 Z " fill="#EAE8ED" transform="translate(25,45)"/>
<path d="M0 0 C3.63 0 7.26 0 11 0 C11 1.32 11 2.64 11 4 C8.69 4 6.38 4 4 4 C4 4.99 4 5.98 4 7 C5.98 7 7.96 7 10 7 C10 7.99 10 8.98 10 10 C7.69 10 5.38 10 3 10 C3 11.32 3 12.64 3 14 C5.64 14 8.28 14 11 14 C11 14.99 11 15.98 11 17 C7.37 17 3.74 17 0 17 C0 11.39 0 5.78 0 0 Z " fill="#EBE8EE" transform="translate(122,69)"/>
<path d="M0 0 C2.375 1.3125 2.375 1.3125 4 3 C4 3.99 4 4.98 4 6 C2.68 6 1.36 6 0 6 C0 5.34 0 4.68 0 4 C-1.65 4.33 -3.3 4.66 -5 5 C-5 7.31 -5 9.62 -5 12 C-3.68 12.33 -2.36 12.66 -1 13 C-0.67 12.34 -0.34 11.68 0 11 C1.32 11 2.64 11 4 11 C3.42655063 13.86724686 3.1385485 14.8614515 1 17 C-2.375 17.4375 -2.375 17.4375 -6 17 C-8.57687323 14.88564247 -9.74473348 13.32896485 -10.37890625 10.02734375 C-10.57772052 6.59619431 -10.25145349 4.38685153 -8.375 1.5 C-5.29889257 -0.44280469 -3.58110811 -0.52224493 0 0 Z " fill="#EBE9EF" transform="translate(83,69)"/>
<path d="M0 0 C6.54530874 -0.37048917 6.54530874 -0.37048917 8.6875 1.375 C9.120625 1.91125 9.55375 2.4475 10 3 C12.09989652 4.17574711 12.09989652 4.17574711 14 5 C13.01 5 12.02 5 11 5 C11.350625 5.5775 11.70125 6.155 12.0625 6.75 C13.14917407 9.35801776 12.93065133 10.39417629 12 13 C10.35 12.67 8.7 12.34 7 12 C6.67 12.99 6.34 13.98 6 15 C4.00045254 15.04254356 1.99958364 15.04080783 0 15 C-1.89488952 13.10511048 -1.18019112 10.42860854 -1.23046875 7.91015625 C-1 6 -1 6 1 4 C4.37991574 4.3557806 7.04288438 5.35715799 10 7 C7.76592111 3.64888166 6.73784176 2.18446044 2.75 1.1875 C1.8425 1.125625 0.935 1.06375 0 1 C0 0.67 0 0.34 0 0 Z " fill="#653B95" transform="translate(19,114)"/>
<path d="M0 0 C3.3 0 6.6 0 10 0 C9.67 1.32 9.34 2.64 9 4 C9.66 4 10.32 4 11 4 C11 4.99 11 5.98 11 7 C10.34 7 9.68 7 9 7 C9 9.64 9 12.28 9 15 C9.66 15 10.32 15 11 15 C11 15.66 11 16.32 11 17 C9.35 16.67 7.7 16.34 6 16 C6 13.03 6 10.06 6 7 C5.34 7 4.68 7 4 7 C3.67 10.3 3.34 13.6 3 17 C2.01 17 1.02 17 0 17 C0 11.39 0 5.78 0 0 Z " fill="#B7A9CC" transform="translate(138,115)"/>
<path d="M0 0 C0.33 0 0.66 0 1 0 C1 5.61 1 11.22 1 17 C4.3 17 7.6 17 11 17 C11 17.33 11 17.66 11 18 C7.37 18 3.74 18 0 18 C-0.33 15.69 -0.66 13.38 -1 11 C-2.32 11 -3.64 11 -5 11 C-5.33 11.99 -5.66 12.98 -6 14 C-7.32 14 -8.64 14 -10 14 C-12.14915785 10.77626323 -12.38286803 9.73296326 -12 6 C-11.34 5.34 -10.68 4.68 -10 4 C-7.625 4.3125 -7.625 4.3125 -5 5 C-4.236875 5.185625 -3.47375 5.37125 -2.6875 5.5625 C-1.8521875 5.7790625 -1.8521875 5.7790625 -1 6 C-0.67 4.02 -0.34 2.04 0 0 Z " fill="#563381" transform="translate(30,45)"/>
<path d="M0 0 C0.33 1.32 0.66 2.64 1 4 C2.65 4 4.3 4 6 4 C6 8.95 6 13.9 6 19 C5.34 18.67 4.68 18.34 4 18 C4 14.04 4 10.08 4 6 C2.35 6.33 0.7 6.66 -1 7 C-1.15149298 10.62885324 -1.15149298 10.62885324 0 14 C-4.62 14 -9.24 14 -14 14 C-14 13.34 -14 12.68 -14 12 C-10.37 12 -6.74 12 -3 12 C-3 10.35 -3 8.7 -3 7 C-6.96 7 -10.92 7 -15 7 C-15 6.01 -15 5.02 -15 4 C-10.05 4 -5.1 4 0 4 C0 2.68 0 1.36 0 0 Z " fill="#4E277B" transform="translate(166,15)"/>
<path d="M0 0 C3.63 0 7.26 0 11 0 C11 1.32 11 2.64 11 4 C8.69 4 6.38 4 4 4 C4 4.99 4 5.98 4 7 C5.98 7 7.96 7 10 7 C10 7.99 10 8.98 10 10 C8.02 10 6.04 10 4 10 C4 12.31 4 14.62 4 17 C2.68 17 1.36 17 0 17 C0 11.39 0 5.78 0 0 Z " fill="#E9E7EC" transform="translate(80,45)"/>
<path d="M0 0 C2.375 1.875 2.375 1.875 4 4 C4 4.66 4 5.32 4 6 C3.443125 5.855625 2.88625 5.71125 2.3125 5.5625 C-0.12167759 4.97040275 -2.52635065 4.40113233 -5 4 C-6.20561184 4.98267859 -6.20561184 4.98267859 -6.09765625 6.84765625 C-6.08605469 7.57855469 -6.07445312 8.30945313 -6.0625 9.0625 C-6.041875 10.361875 -6.02125 11.66125 -6 13 C-4.02 13 -2.04 13 0 13 C0.33 12.34 0.66 11.68 1 11 C1.99 11 2.98 11 4 11 C2.25 15.875 2.25 15.875 0 17 C-6.23591549 17.56690141 -6.23591549 17.56690141 -8.9375 15.5625 C-10.54130175 11.69450754 -10.67298561 8.12109164 -10 4 C-7.35478334 -0.1713032 -4.79556761 -0.79926127 0 0 Z " fill="#EAE8EF" transform="translate(25,115)"/>
<path d="M0 0 C1.8125 1.1875 1.8125 1.1875 3 3 C3.1875 5.6875 3.1875 5.6875 3 8 C0.36 8 -2.28 8 -5 8 C-4.67 8.66 -4.34 9.32 -4 10 C-1.97536745 10.65213292 -1.97536745 10.65213292 0 11 C0 10.34 0 9.68 0 9 C0.99 9 1.98 9 3 9 C2.34 10.32 1.68 11.64 1 13 C-4.36842105 13.35789474 -4.36842105 13.35789474 -6.875 11.9375 C-8.64273274 8.8930714 -8.36823916 6.4368988 -8 3 C-5.95177941 -0.34183359 -3.7548828 -0.56323242 0 0 Z " fill="#DCD8E4" transform="translate(65,119)"/>
<path d="M0 0 C4.29 0 8.58 0 13 0 C13 1.32 13 2.64 13 4 C11.68 4 10.36 4 9 4 C9 8.29 9 12.58 9 17 C7.68 17 6.36 17 5 17 C5 12.71 5 8.42 5 4 C3.35 4 1.7 4 0 4 C0 2.68 0 1.36 0 0 Z " fill="#C8C3D3" transform="translate(107,69)"/>
<path d="M0 0 C0.99 0 1.98 0 3 0 C3 1.32 3 2.64 3 4 C4.65 4 6.3 4 8 4 C8 8.29 8 12.58 8 17 C9.32 17 10.64 17 12 17 C12 12.71 12 8.42 12 4 C13.65 4 15.3 4 17 4 C15.68 4.33 14.36 4.66 13 5 C13 9.29 13 13.58 13 18 C8.71 18 4.42 18 0 18 C0 17.67 0 17.34 0 17 C1.65 17 3.3 17 5 17 C4.6390625 16.02417969 4.278125 15.04835938 3.90625 14.04296875 C3.43724838 12.75790431 2.96851221 11.47274296 2.5 10.1875 C2.26152344 9.54490234 2.02304688 8.90230469 1.77734375 8.24023438 C0.72931254 5.35066261 0 3.09923939 0 0 Z " fill="#562786" transform="translate(104,69)"/>
<path d="M0 0 C1.65 0 3.3 0 5 0 C5 6.27 5 12.54 5 19 C3.35 19 1.7 19 0 19 C0 12.73 0 6.46 0 0 Z " fill="#F6F6F7" transform="translate(113,15)"/>
<path d="M0 0 C0.99 0.66 1.98 1.32 3 2 C3.99 2 4.98 2 6 2 C5.34 2.66 4.68 3.32 4 4 C3.76999802 6.52429495 3.76999802 6.52429495 5 9 C8.47307328 10.86983745 8.47307328 10.86983745 12 12 C11.67 12.99 11.34 13.98 11 15 C8.07120629 14.37240135 5.63904371 13.41377341 3 12 C2.67 13.32 2.34 14.64 2 16 C1.79375 15.05125 1.5875 14.1025 1.375 13.125 C0.29166667 9.70833333 0.29166667 9.70833333 -3.125 8.625 C-4.07375 8.41875 -5.0225 8.2125 -6 8 C-6 7.01 -6 6.02 -6 5 C-3.69 5.33 -1.38 5.66 1 6 C0.34 4.68 -0.32 3.36 -1 2 C-4.94727588 1.82057837 -7.5980513 1.90649311 -11 4 C-10.67 3.01 -10.34 2.02 -10 1 C-6.87293041 -0.5635348 -3.42017557 -0.39958487 0 0 Z " fill="#5A3487" transform="translate(40,68)"/>
<path d="M0 0 C0.99 0 1.98 0 3 0 C3 3.3 3 6.6 3 10 C4.32 9.67 5.64 9.34 7 9 C7.33 6.03 7.66 3.06 8 0 C8.99 0.33 9.98 0.66 11 1 C11 4.96 11 8.92 11 13 C4.1640625 13.1953125 4.1640625 13.1953125 2 13 C0 11 0 11 -0.1953125 8.3984375 C-0.17210938 7.40070313 -0.14890625 6.40296875 -0.125 5.375 C-0.10695313 4.37210937 -0.08890625 3.36921875 -0.0703125 2.3359375 C-0.04710938 1.56507812 -0.02390625 0.79421875 0 0 Z " fill="#E6E2EC" transform="translate(116,119)"/>
<path d="M0 0 C1.32 0.33 2.64 0.66 4 1 C4.33 3.64 4.66 6.28 5 9 C5.66 9 6.32 9 7 9 C7.33 6.69 7.66 4.38 8 2 C8.99 1.67 9.98 1.34 11 1 C11.20893448 4.87921683 10.60878666 7.60800007 9.125 11.1875 C8.77695313 12.04730469 8.42890625 12.90710938 8.0703125 13.79296875 C7 16 7 16 5 18 C3.68 18 2.36 18 1 18 C1 17.01 1 16.02 1 15 C1.99 15 2.98 15 4 15 C2.9318153 9.88634986 1.76892524 4.92772031 0 0 Z " fill="#E2DFE9" transform="translate(150,119)"/>
<path d="M0 0 C0.33 0 0.66 0 1 0 C1 6.27 1 12.54 1 19 C0.67 19 0.34 19 0 19 C-0.33 14.71 -0.66 10.42 -1 6 C-2.65 6.33 -4.3 6.66 -6 7 C-6.06058594 7.85464844 -6.12117188 8.70929687 -6.18359375 9.58984375 C-6.26738281 10.69457031 -6.35117188 11.79929687 -6.4375 12.9375 C-6.51871094 14.03964844 -6.59992188 15.14179688 -6.68359375 16.27734375 C-7 19 -7 19 -8 20 C-10.31 20 -12.62 20 -15 20 C-15 15.05 -15 10.1 -15 5 C-14.67 5 -14.34 5 -14 5 C-14 9.62 -14 14.24 -14 19 C-12.35 19 -10.7 19 -9 19 C-9 14.05 -9 9.1 -9 4 C-6.03 4 -3.06 4 0 4 C0 2.68 0 1.36 0 0 Z " fill="#56357E" transform="translate(111,15)"/>
<path d="M0 0 C6.6 0 13.2 0 20 0 C20 0.66 20 1.32 20 2 C20.66 2 21.32 2 22 2 C22 2.66 22 3.32 22 4 C22.66 4 23.32 4 24 4 C24.33 3.01 24.66 2.02 25 1 C25 7.93 25 14.86 25 22 C24.01 22 23.02 22 22 22 C21.505 12.595 21.505 12.595 21 3 C18.34081834 2.11360611 16.51935359 1.82010975 13.76953125 1.68359375 C12.56586914 1.62075195 12.56586914 1.62075195 11.33789062 1.55664062 C10.50451172 1.51732422 9.67113281 1.47800781 8.8125 1.4375 C7.96751953 1.39431641 7.12253906 1.35113281 6.25195312 1.30664062 C4.16815567 1.20068482 2.08409897 1.0998498 0 1 C0 0.67 0 0.34 0 0 Z " fill="#4A1878" transform="translate(121,13)"/>
<path d="M0 0 C0.33 0 0.66 0 1 0 C1 1.98 1 3.96 1 6 C3.97 6 6.94 6 10 6 C9.01 4.02 8.02 2.04 7 0 C8.65 0.33 10.3 0.66 12 1 C12 7.27 12 13.54 12 20 C8.00889681 21.9955516 6.30013434 22.19546065 2 22 C2.598125 21.71125 3.19625 21.4225 3.8125 21.125 C7.71094455 19.26944423 7.71094455 19.26944423 9.75 15.6875 C10.01128999 12.87863258 9.69940974 10.71992678 9 8 C6.36 7.67 3.72 7.34 1 7 C1 8.98 1 10.96 1 13 C0.67 13 0.34 13 0 13 C0 11.02 0 9.04 0 7 C-2.31 7 -4.62 7 -7 7 C-7 6.67 -7 6.34 -7 6 C-4.69 6 -2.38 6 0 6 C0 4.02 0 2.04 0 0 Z " fill="#4E2878" transform="translate(56,14)"/>
<path d="M0 0 C0.33 0 0.66 0 1 0 C0.55065325 10.33497522 -6.63400316 19.2006183 -14 26 C-26.92445583 35.39308579 -26.92445583 35.39308579 -34 35 C-31.47440596 33.31627064 -29.1763035 32.13229984 -26.4375 30.875 C-14.45406477 24.85711768 -5.82513765 15.90757038 -1 3.25 C-0.67 2.1775 -0.34 1.105 0 0 Z " fill="#8A5FC5" transform="translate(199,165)"/>
<path d="M0 0 C1.2065625 0.0309375 1.2065625 0.0309375 2.4375 0.0625 C3.0975 1.3825 3.7575 2.7025 4.4375 4.0625 C1.4675 3.5675 1.4675 3.5675 -1.5625 3.0625 C-1.5625 3.7225 -1.5625 4.3825 -1.5625 5.0625 C0.4175 5.7225 2.3975 6.3825 4.4375 7.0625 C4.480221 8.72861905 4.47813832 10.39632885 4.4375 12.0625 C3.4375 13.0625 3.4375 13.0625 -0.125 13.125 C-1.259375 13.104375 -2.39375 13.08375 -3.5625 13.0625 C-4.2225 11.7425 -4.8825 10.4225 -5.5625 9.0625 C-3.2525 9.3925 -0.9425 9.7225 1.4375 10.0625 C0.509375 9.629375 0.509375 9.629375 -0.4375 9.1875 C-2.5625 8.0625 -2.5625 8.0625 -4.5625 6.0625 C-3.83457637 0.09352625 -3.83457637 0.09352625 0 0 Z " fill="#E6E4E9" transform="translate(83.5625,118.9375)"/>
<path d="M0 0 C0.66 0.33 1.32 0.66 2 1 C2.35672241 3.51963422 2.44375117 6.01333243 2.55859375 8.5546875 C3.07304108 11.40463466 3.68922459 12.30217675 6 14 C9.10839021 14.7269226 9.10839021 14.7269226 12 15 C10.3125 16.125 10.3125 16.125 8 17 C6.31923769 16.36971413 4.65204456 15.70211894 3 15 C1.01508358 15.26676204 1.01508358 15.26676204 -1 16 C-4.0625 16.6875 -4.0625 16.6875 -7 17 C-7.99 16.34 -8.98 15.68 -10 15 C-7.94921875 14.77213542 -5.8984375 14.54427083 -3.84765625 14.31640625 C-1.98859771 14.18113386 -1.98859771 14.18113386 -1 13 C-0.95919217 11.00041636 -0.95745644 8.99954746 -1 7 C-3.31 6.01 -5.62 5.02 -8 4 C-8 3.34 -8 2.68 -8 2 C-5.36 2.33 -2.72 2.66 0 3 C0 2.01 0 1.02 0 0 Z " fill="#65438E" transform="translate(55,71)"/>
<path d="M0 0 C1.2065625 0.0309375 1.2065625 0.0309375 2.4375 0.0625 C2.4375 0.7225 2.4375 1.3825 2.4375 2.0625 C4.0875 2.0625 5.7375 2.0625 7.4375 2.0625 C7.4375 3.7125 7.4375 5.3625 7.4375 7.0625 C5.7875 7.0625 4.1375 7.0625 2.4375 7.0625 C2.1075 8.0525 1.7775 9.0425 1.4375 10.0625 C-2.4375 9.1875 -2.4375 9.1875 -3.5625 8.0625 C-3.6875 4.5625 -3.6875 4.5625 -3.5625 1.0625 C-2.5625 0.0625 -2.5625 0.0625 0 0 Z " fill="#603C8B" transform="translate(80.5625,72.9375)"/>
<path d="M0 0 C4.75 0.75 4.75 0.75 7 3 C7.125 5.625 7.125 5.625 7 8 C4.36 8 1.72 8 -1 8 C-0.67 8.66 -0.34 9.32 0 10 C2.02463255 10.65213292 2.02463255 10.65213292 4 11 C4 10.34 4 9.68 4 9 C4.99 9 5.98 9 7 9 C6.34 10.32 5.68 11.64 5 13 C-0.4 13.36 -0.4 13.36 -2.875 11.875 C-4.4682099 9.21965017 -4.20214032 7.03210482 -4 4 C-3.34 4 -2.68 4 -2 4 C-2 4.66 -2 5.32 -2 6 C0.31 6 2.62 6 5 6 C4.67 5.34 4.34 4.68 4 4 C1.97536745 3.34786708 1.97536745 3.34786708 0 3 C0 2.01 0 1.02 0 0 Z " fill="#D3CFDC" transform="translate(94,119)"/>
<path d="M0 0 C0.33 0 0.66 0 1 0 C1 5.61 1 11.22 1 17 C0.67 16.01 0.34 15.02 0 14 C-2.64 14 -5.28 14 -8 14 C-8 12.68 -8 11.36 -8 10 C-5.69 10 -3.38 10 -1 10 C-1 9.01 -1 8.02 -1 7 C-3.31 7 -5.62 7 -8 7 C-8 6.01 -8 5.02 -8 4 C-5.36 4 -2.72 4 0 4 C0 2.68 0 1.36 0 0 Z " fill="#481D79" transform="translate(43,45)"/>
<path d="M0 0 C1.3125 2.0625 1.3125 2.0625 2 4 C1.01 4 0.02 4 -1 4 C-1 3.34 -1 2.68 -1 2 C-2.32 2.33 -3.64 2.66 -5 3 C-5 4.98 -5 6.96 -5 9 C-1.535 8.505 -1.535 8.505 2 8 C1.34 9.32 0.68 10.64 0 12 C-5.36842105 12.35789474 -5.36842105 12.35789474 -7.875 10.9375 C-9.66235303 7.85928089 -9.43386742 5.47093932 -9 2 C-6.21829619 -1.29683415 -3.95718994 -1.56204866 0 0 Z " fill="#EEEBF2" transform="translate(112,120)"/>
<path d="M0 0 C0.66 0 1.32 0 2 0 C3.76462683 3.08809695 4 4.23312136 4 8 C4.66 8 5.32 8 6 8 C6.33 5.36 6.66 2.72 7 0 C7.99 0 8.98 0 10 0 C9.45904788 5.27428317 7.94942598 10.55245288 5 15 C2.86328125 15.76171875 2.86328125 15.76171875 1 16 C1 15.34 1 14.68 1 14 C1.66 14 2.32 14 3 14 C2.690625 12.80375 2.38125 11.6075 2.0625 10.375 C1.19968427 6.93597561 0.52629514 3.50863427 0 0 Z " fill="#F1EFF4" transform="translate(31,120)"/>
<path d="M0 0 C1.32 0 2.64 0 4 0 C4 5.61 4 11.22 4 17 C2.68 17 1.36 17 0 17 C0 11.39 0 5.78 0 0 Z " fill="#EAE8ED" transform="translate(93,45)"/>
<path d="M0 0 C1.32 0 2.64 0 4 0 C4 5.61 4 11.22 4 17 C2.68 17 1.36 17 0 17 C0 11.39 0 5.78 0 0 Z " fill="#EAE8ED" transform="translate(74,45)"/>
<path d="M0 0 C4.29 0 8.58 0 13 0 C13 0.66 13 1.32 13 2 C11.35 2 9.7 2 8 2 C8 6.62 8 11.24 8 16 C7.01 16 6.02 16 5 16 C5 11.38 5 6.76 5 2 C3.35 2 1.7 2 0 2 C0 1.34 0 0.68 0 0 Z " fill="#FDFDFD" transform="translate(59,46)"/>
<path d="M0 0 C1.65 0.33 3.3 0.66 5 1 C4.96519531 1.67546875 4.93039063 2.3509375 4.89453125 3.046875 C4.86746094 3.93890625 4.84039062 4.8309375 4.8125 5.75 C4.76029297 7.07257813 4.76029297 7.07257813 4.70703125 8.421875 C5.05807319 11.51104409 5.81363777 12.81363777 8 15 C11.45749949 15.66676878 11.45749949 15.66676878 15 15 C17.44098818 13.14579161 17.44098818 13.14579161 19 11 C19 12.65 19 14.3 19 16 C10.76201244 18.51328434 10.76201244 18.51328434 6 16 C3.44919917 15.24976446 1.69979128 15 -1 15 C-0.34 14.01 0.32 13.02 1 12 C1.2786158 9.81663332 1.2786158 9.81663332 1.1875 7.5 C1.18105469 6.7265625 1.17460938 5.953125 1.16796875 5.15625 C1.0730565 2.81651151 1.0730565 2.81651151 0 0 Z " fill="#664090" transform="translate(69,70)"/>
<path d="M0 0 C1.65 0 3.3 0 5 0 C7 2 7 2 7.3125 4.4375 C7 7 7 7 5.75 8.8125 C4 10 4 10 0 10 C0 6.7 0 3.4 0 0 Z " fill="#64458C" transform="translate(116,49)"/>
<path d="M0 0 C4.70588235 0.70588235 4.70588235 0.70588235 6 2 C6.1875 4.4375 6.1875 4.4375 6 7 C5.34 7.66 4.68 8.32 4 9 C1.375 8.625 1.375 8.625 -1 8 C-1.04241723 5.66705225 -1.04092937 3.33297433 -1 1 C-0.67 0.67 -0.34 0.34 0 0 Z " fill="#5B3487" transform="translate(62,73)"/>
<path d="M0 0 C0.66 0 1.32 0 2 0 C2 0.99 2 1.98 2 3 C2.99 3 3.98 3 5 3 C5 3.66 5 4.32 5 5 C4.34 5 3.68 5 3 5 C3 7.64 3 10.28 3 13 C3.66 13 4.32 13 5 13 C5 13.66 5 14.32 5 15 C3.35 14.67 1.7 14.34 0 14 C0 11.03 0 8.06 0 5 C-0.66 5 -1.32 5 -2 5 C-2 4.34 -2 3.68 -2 3 C-1.34 3 -0.68 3 0 3 C0 2.01 0 1.02 0 0 Z " fill="#E2DFE8" transform="translate(144,117)"/>
<path d="M0 0 C0.66 0.66 1.32 1.32 2 2 C2.99 1.67 3.98 1.34 5 1 C3.84941444 6.39795989 2.57578241 11.70987333 1 17 C2.32 17.33 3.64 17.66 5 18 C1.7 18 -1.6 18 -5 18 C-5 17.67 -5 17.34 -5 17 C-3.35 17 -1.7 17 0 17 C0 11.39 0 5.78 0 0 Z " fill="#501F84" transform="translate(93,69)"/>
<path d="M0 0 C0.33 0 0.66 0 1 0 C0.67 2.31 0.34 4.62 0 7 C1.65 7.33 3.3 7.66 5 8 C5 8.33 5 8.66 5 9 C3.02 9 1.04 9 -1 9 C-1 10.32 -1 11.64 -1 13 C-2.32 13 -3.64 13 -5 13 C-4.4999231 7.89921563 -3.74076891 3.74076891 0 0 Z " fill="#F0EEF3" transform="translate(99,73)"/>
<path d="M0 0 C2.31 0 4.62 0 7 0 C7 0.99 7 1.98 7 3 C6.01 3.33 5.02 3.66 4 4 C3.67 6.97 3.34 9.94 3 13 C2.01 13 1.02 13 0 13 C0 8.71 0 4.42 0 0 Z " fill="#E1DDE9" transform="translate(129,119)"/>
<path d="M0 0 C2.31 0 4.62 0 7 0 C7 0.99 7 1.98 7 3 C6.01 3.33 5.02 3.66 4 4 C3.67 6.97 3.34 9.94 3 13 C2.01 13 1.02 13 0 13 C0 8.71 0 4.42 0 0 Z " fill="#DEDBE5" transform="translate(70,119)"/>
<path d="M0 0 C3.96 0 7.92 0 12 0 C12 0.66 12 1.32 12 2 C10.35 2 8.7 2 7 2 C7 6.29 7 10.58 7 15 C6.34 15 5.68 15 5 15 C5 10.71 5 6.42 5 2 C3.35 2 1.7 2 0 2 C0 1.34 0 0.68 0 0 Z " fill="#FEFEFE" transform="translate(108,70)"/>
<path d="M0 0 C0.33 0 0.66 0 1 0 C1.33 2.31 1.66 4.62 2 7 C3.98 7 5.96 7 8 7 C8.33 6.34 8.66 5.68 9 5 C9.99 5 10.98 5 12 5 C10.25 9.875 10.25 9.875 8 11 C4.5 11.1875 4.5 11.1875 1 11 C0.34 10.34 -0.32 9.68 -1 9 C-0.9765625 6.8359375 -0.9765625 6.8359375 -0.625 4.375 C-0.51414062 3.55773437 -0.40328125 2.74046875 -0.2890625 1.8984375 C-0.19367187 1.27195312 -0.09828125 0.64546875 0 0 Z " fill="#E0DCE7" transform="translate(17,121)"/>
<path d="M0 0 C0.99 0 1.98 0 3 0 C3 5.28 3 10.56 3 16 C2.01 16 1.02 16 0 16 C0 10.72 0 5.44 0 0 Z " fill="#FBFBFC" transform="translate(89,70)"/>
<path d="M0 0 C5.75 -0.125 5.75 -0.125 8 1 C8 7.27 8 13.54 8 20 C7.01 20 6.02 20 5 20 C5 13.73 5 7.46 5 1 C3.35 1 1.7 1 0 1 C0 0.67 0 0.34 0 0 Z " fill="#441374" transform="translate(113,13)"/>
<path d="M0 0 C0.33 0 0.66 0 1 0 C1.33 4.95 1.66 9.9 2 15 C4.97 15.495 4.97 15.495 8 16 C8 11.38 8 6.76 8 2 C8.33 2 8.66 2 9 2 C9 6.95 9 11.9 9 17 C2 18 2 18 -1 17 C-0.67 11.39 -0.34 5.78 0 0 Z " fill="#583880" transform="translate(119,18)"/>
<path d="M0 0 C3.58326501 -0.05814085 7.16640838 -0.09364357 10.75 -0.125 C11.76578125 -0.14175781 12.7815625 -0.15851562 13.828125 -0.17578125 C14.8078125 -0.18222656 15.7875 -0.18867188 16.796875 -0.1953125 C17.69760742 -0.20578613 18.59833984 -0.21625977 19.52636719 -0.22705078 C22.13926856 0.01278324 23.75664666 0.67687936 26 2 C25.34 3.65 24.68 5.3 24 7 C26.31 7 28.62 7 31 7 C31 7.33 31 7.66 31 8 C28.36 8 25.72 8 23 8 C22.34 6.02 21.68 4.04 21 2 C14.07 1.67 7.14 1.34 0 1 C0 0.67 0 0.34 0 0 Z " fill="#431373" transform="translate(14,13)"/>
<path d="M0 0 C0.33 0 0.66 0 1 0 C1 5.61 1 11.22 1 17 C0.67 17 0.34 17 0 17 C-0.33 13.7 -0.66 10.4 -1 7 C-3.31 7 -5.62 7 -8 7 C-8 6.01 -8 5.02 -8 4 C-5.36 4 -2.72 4 0 4 C0 2.68 0 1.36 0 0 Z " fill="#481A7B" transform="translate(111,45)"/>
<path d="M0 0 C2.97 0 5.94 0 9 0 C8.67 0.66 8.34 1.32 8 2 C5.4375 2.625 5.4375 2.625 3 3 C2.95101562 3.85464844 2.90203125 4.70929687 2.8515625 5.58984375 C2.77679688 6.69457031 2.70203125 7.79929687 2.625 8.9375 C2.52058594 10.59072266 2.52058594 10.59072266 2.4140625 12.27734375 C2.27742187 13.17582031 2.14078125 14.07429688 2 15 C1.01 15.495 1.01 15.495 0 16 C0 10.72 0 5.44 0 0 Z " fill="#512D7D" transform="translate(178,19)"/>
<path d="M0 0 C0.99 0.33 1.98 0.66 3 1 C3 4.96 3 8.92 3 13 C-1 12 -1 12 -4 10 C-3.01 9.67 -2.02 9.34 -1 9 C-0.67 6.03 -0.34 3.06 0 0 Z " fill="#DCD7E6" transform="translate(124,119)"/>
<path d="M0 0 C0.721875 0.78375 1.44375 1.5675 2.1875 2.375 C4.83299041 4.84412438 6.60373611 5.93260278 10 7 C9.67 7.99 9.34 8.98 9 10 C7.68 9.67 6.36 9.34 5 9 C5 8.34 5 7.68 5 7 C3.68 7 2.36 7 1 7 C0.67 7.99 0.34 8.98 0 10 C-0.66 7.03 -1.32 4.06 -2 1 C-1.34 0.67 -0.68 0.34 0 0 Z " fill="#542B83" transform="translate(28,73)"/>
<path d="M0 0 C3.63 0 7.26 0 11 0 C11 1.32 11 2.64 11 4 C7.37 4 3.74 4 0 4 C0 2.68 0 1.36 0 0 Z " fill="#593E7F" transform="translate(74,19)"/>
<path d="M0 0 C5.625 -0.25 5.625 -0.25 9 2 C9.99 2 10.98 2 12 2 C10.33333333 5.33333333 8.66666667 8.66666667 7 12 C6.938125 11.38125 6.87625 10.7625 6.8125 10.125 C6.171081 7.72238859 6.171081 7.72238859 3.4375 6.75 C2.633125 6.5025 1.82875 6.255 1 6 C1 5.34 1 4.68 1 4 C3.97 4.495 3.97 4.495 7 5 C5.33045181 1.77595022 5.33045181 1.77595022 2.375 1.3125 C1.59125 1.209375 0.8075 1.10625 0 1 C0 0.67 0 0.34 0 0 Z " fill="#5C328A" transform="translate(81,118)"/>
<path d="M0 0 C3.375 -0.125 3.375 -0.125 7 0 C9 2 9 2 9 5 C6.03 5 3.06 5 0 5 C0 3.35 0 1.7 0 0 Z " fill="#E7E6EB" transform="translate(57,15)"/>
<path d="M0 0 C0 0.99 0 1.98 0 3 C0.33 3.99 0.66 4.98 1 6 C-1.31 6 -3.62 6 -6 6 C-6.66 7.32 -7.32 8.64 -8 10 C-8.36272727 3.59181818 -8.36272727 3.59181818 -6.8125 1.0625 C-4.43958382 -0.32851983 -2.70313576 -0.21917317 0 0 Z " fill="#B3A2CA" transform="translate(65,119)"/>
<path d="M0 0 C2.64 0 5.28 0 8 0 C8 1.65 8 3.3 8 5 C5.36 5 2.72 5 0 5 C0 3.35 0 1.7 0 0 Z " fill="#F4F3F6" transform="translate(48,29)"/>
<path d="M0 0 C2.64 0 5.28 0 8 0 C8 1.65 8 3.3 8 5 C5.36 5 2.72 5 0 5 C0 3.35 0 1.7 0 0 Z " fill="#F5F4F6" transform="translate(38,22)"/>
<path d="M0 0 C2.64 0 5.28 0 8 0 C7.67 1.65 7.34 3.3 7 5 C4.69 5 2.38 5 0 5 C0 3.35 0 1.7 0 0 Z " fill="#EEEDF1" transform="translate(57,29)"/>
<path d="M0 0 C2.64 0 5.28 0 8 0 C8 1.65 8 3.3 8 5 C5.69 5 3.38 5 1 5 C0.67 3.35 0.34 1.7 0 0 Z " fill="#F0EEF2" transform="translate(38,29)"/>
<path d="M0 0 C2.31 0 4.62 0 7 0 C7 1.65 7 3.3 7 5 C4.36 5 1.72 5 -1 5 C-0.67 3.35 -0.34 1.7 0 0 Z " fill="#EFEDF1" transform="translate(39,15)"/>
<path d="M0 0 C0.70125 0.804375 1.4025 1.60875 2.125 2.4375 C5.26291593 5.23433811 6.88758763 5.71308751 11 6 C9.3125 7.125 9.3125 7.125 7 8 C5.31923769 7.36971413 3.65204456 6.70211894 2 6 C0.01508358 6.26676204 0.01508358 6.26676204 -2 7 C-5.0625 7.6875 -5.0625 7.6875 -8 8 C-8.99 7.34 -9.98 6.68 -11 6 C-9.741875 5.938125 -8.48375 5.87625 -7.1875 5.8125 C-4.99662023 5.61479712 -4.99662023 5.61479712 -3 5 C-0.93545998 2.59256899 -0.93545998 2.59256899 0 0 Z " fill="#592E88" transform="translate(56,80)"/>
<path d="M0 0 C2.33294775 -0.04241723 4.66702567 -0.04092937 7 0 C8 1 8 1 8.0625 4.0625 C8.041875 5.031875 8.02125 6.00125 8 7 C8.66 7.33 9.32 7.66 10 8 C9.01 8 8.02 8 7 8 C7 6.68 7 5.36 7 4 C4.69 4 2.38 4 0 4 C0 2.68 0 1.36 0 0 Z " fill="#6A4F8E" transform="translate(103,55)"/>
<path d="M0 0 C2.0625 0.4375 2.0625 0.4375 4 1 C4 2.98 4 4.96 4 7 C2.0625 7.5625 2.0625 7.5625 0 8 C-1 7 -1 7 -1.125 4 C-1 1 -1 1 0 0 Z " fill="#663798" transform="translate(48,122)"/>
<path d="M0 0 C4.75 0.75 4.75 0.75 7 3 C7 4.32 7 5.64 7 7 C4.03 7 1.06 7 -2 7 C-2.33 7.66 -2.66 8.32 -3 9 C-3 7.35 -3 5.7 -3 4 C-2.67 4.66 -2.34 5.32 -2 6 C0.31 6 2.62 6 5 6 C4.67 5.34 4.34 4.68 4 4 C1.97536745 3.34786708 1.97536745 3.34786708 0 3 C0 2.01 0 1.02 0 0 Z " fill="#EFEDF3" transform="translate(94,119)"/>
<path d="M0 0 C1.3125 2.0625 1.3125 2.0625 2 4 C1.01 4 0.02 4 -1 4 C-1 3.34 -1 2.68 -1 2 C-2.98 2.33 -4.96 2.66 -7 3 C-7.33 4.98 -7.66 6.96 -8 9 C-8.33 9 -8.66 9 -9 9 C-9.48492623 2.57472739 -9.48492623 2.57472739 -7.3125 0 C-4.35289466 -1.27982934 -2.98790191 -1.17943497 0 0 Z " fill="#DDD9E6" transform="translate(112,120)"/>
<path d="M0 0 C2.31 0 4.62 0 7 0 C7 1.65 7 3.3 7 5 C4.69 5 2.38 5 0 5 C0 3.35 0 1.7 0 0 Z " fill="#FBFBFC" transform="translate(58,22)"/>
<path d="M0 0 C2.31 0 4.62 0 7 0 C7 1.65 7 3.3 7 5 C4.69 5 2.38 5 0 5 C0 3.35 0 1.7 0 0 Z " fill="#F9F8FA" transform="translate(48,15)"/>
<path d="M0 0 C3.99547736 0.61468882 6.77506642 2.65459376 10 5 C10 5.33 10 5.66 10 6 C3.9453125 6.1953125 3.9453125 6.1953125 2 6 C1.34 5.34 0.68 4.68 0 4 C0 2.68 0 1.36 0 0 Z " fill="#E3E0E8" transform="translate(43,80)"/>
<path d="M0 0 C0.99 1.485 0.99 1.485 2 3 C3.2375 3.2165625 3.2375 3.2165625 4.5 3.4375 C7 4 7 4 8.3125 6.0625 C8.6528125 7.0215625 8.6528125 7.0215625 9 8 C8.34 8 7.68 8 7 8 C6.67 9.32 6.34 10.64 6 12 C5.9071875 10.824375 5.9071875 10.824375 5.8125 9.625 C5.544375 8.75875 5.27625 7.8925 5 7 C2.52363988 5.62533375 2.52363988 5.62533375 0 5 C0 3.35 0 1.7 0 0 Z " fill="#D3CEDE" transform="translate(46,116)"/>
<path d="M0 0 C1.32 0 2.64 0 4 0 C4.33 0.66 4.66 1.32 5 2 C6.65948148 3.01187895 8.32580562 4.0126546 10 5 C10 5.33 10 5.66 10 6 C3.539801 6.36567164 3.539801 6.36567164 1.0625 4.6875 C0 3 0 3 0 0 Z " fill="#E3E1E8" transform="translate(29,80)"/>
<path d="M0 0 C2.31 0 4.62 0 7 0 C7.33 1.32 7.66 2.64 8 4 C5.36 4 2.72 4 0 4 C0 2.68 0 1.36 0 0 Z " fill="#674C8A" transform="translate(35,55)"/>
<path d="M0 0 C2.375 -0.125 2.375 -0.125 5 0 C7 2 7 2 7 6 C4.03 6 1.06 6 -2 6 C-2.33 6.99 -2.66 7.98 -3 9 C-3 7.02 -3 5.04 -3 3 C-2.67 3.66 -2.34 4.32 -2 5 C0.31 5 2.62 5 5 5 C3.16666667 1.83333333 3.16666667 1.83333333 0 0 Z " fill="#F9F8FA" transform="translate(61,120)"/>
<path d="M0 0 C1.32 0 2.64 0 4 0 C4 3.96 4 7.92 4 12 C3.67 12 3.34 12 3 12 C2.67 9.36 2.34 6.72 2 4 C1.67 6.31 1.34 8.62 1 11 C0.67 11 0.34 11 0 11 C0 7.37 0 3.74 0 0 Z " fill="#61408C" transform="translate(117,74)"/>
<path d="M0 0 C1.37432457 3.81756824 0.67975039 7.07255329 0 11 C-0.33 10.34 -0.66 9.68 -1 9 C-1.99 9 -2.98 9 -4 9 C-4 9.66 -4 10.32 -4 11 C-5.65 10.67 -7.3 10.34 -9 10 C-9 9.34 -9 8.68 -9 8 C-6.36 8 -3.72 8 -1 8 C-0.67 5.36 -0.34 2.72 0 0 Z " fill="#5C358E" transform="translate(69,119)"/>
<path d="M0 0 C0.33 0 0.66 0 1 0 C1 1.98 1 3.96 1 6 C3.97 6 6.94 6 10 6 C10 6.33 10 6.66 10 7 C7.03 7 4.06 7 1 7 C1 8.98 1 10.96 1 13 C0.67 13 0.34 13 0 13 C0 11.02 0 9.04 0 7 C-2.31 7 -4.62 7 -7 7 C-7 6.67 -7 6.34 -7 6 C-4.69 6 -2.38 6 0 6 C0 4.02 0 2.04 0 0 Z " fill="#340B6C" transform="translate(56,14)"/>
<path d="M0 0 C0.33 0 0.66 0 1 0 C1 5.61 1 11.22 1 17 C0.67 17 0.34 17 0 17 C-0.144375 16.2575 -0.28875 15.515 -0.4375 14.75 C-0.92467376 12.08882188 -0.92467376 12.08882188 -1.6875 9.9375 C-2.09872527 7.38790331 -1.31345638 6.16333992 0 4 C-0.99 3.67 -1.98 3.34 -3 3 C-2.01 3 -1.02 3 0 3 C0 2.01 0 1.02 0 0 Z " fill="#633695" transform="translate(42,115)"/>
<path d="M0 0 C1.65 0 3.3 0 5 0 C5.66 1.32 6.32 2.64 7 4 C4.03 3.505 4.03 3.505 1 3 C0.67 3.66 0.34 4.32 0 5 C-0.66 4.67 -1.32 4.34 -2 4 C-1.34 2.68 -0.68 1.36 0 0 Z " fill="#D9D5E2" transform="translate(81,119)"/>
<path d="M0 0 C0.66 0 1.32 0 2 0 C2 0.66 2 1.32 2 2 C3.65 2.33 5.3 2.66 7 3 C7 3.66 7 4.32 7 5 C4.69 5 2.38 5 0 5 C-0.5625 3.0625 -0.5625 3.0625 -1 1 C-0.67 0.67 -0.34 0.34 0 0 Z " fill="#A38EBF" transform="translate(92,120)"/>
<path d="M0 0 C0.66 0 1.32 0 2 0 C2 1.98 2 3.96 2 6 C2.66 6 3.32 6 4 6 C3.67 8.31 3.34 10.62 3 13 C2.67 13 2.34 13 2 13 C0.24252386 8.49646738 -0.19294408 4.82360189 0 0 Z " fill="#E6E3EC" transform="translate(44,115)"/>
<path d="M0 0 C0.33 0 0.66 0 1 0 C1.12375 0.969375 1.2475 1.93875 1.375 2.9375 C1.684375 4.4534375 1.684375 4.4534375 2 6 C2.66 6.33 3.32 6.66 4 7 C4 7.66 4 8.32 4 9 C2.35 8.67 0.7 8.34 -1 8 C-1.04241723 5.66705225 -1.04092937 3.33297433 -1 1 C-0.67 0.67 -0.34 0.34 0 0 Z " fill="#F2F1F4" transform="translate(145,123)"/>
<path d="M0 0 C0.66 0 1.32 0 2 0 C1.34 2.97 0.68 5.94 0 9 C-0.66 9 -1.32 9 -2 9 C-2.25 3.375 -2.25 3.375 0 0 Z " fill="#5D3688" transform="translate(96,70)"/>
<path d="M0 0 C0.33 0 0.66 0 1 0 C1.76173392 4.3164922 2.16063604 7.74433453 1 12 C0.67 12 0.34 12 0 12 C0 10.02 0 8.04 0 6 C-2.97 6 -5.94 6 -9 6 C-9 5.67 -9 5.34 -9 5 C-6.03 5 -3.06 5 0 5 C0 3.35 0 1.7 0 0 Z " fill="#3F2172" transform="translate(46,22)"/>
<path d="M0 0 C0.99 0 1.98 0 3 0 C2.125 5.75 2.125 5.75 1 8 C0.34 8 -0.32 8 -1 8 C-0.67 5.36 -0.34 2.72 0 0 Z " fill="#EBE8EF" transform="translate(38,120)"/>
<path d="M0 0 C0.66 0 1.32 0 2 0 C1.88637738 1.4800841 1.75877092 2.95910074 1.625 4.4375 C1.52058594 5.67306641 1.52058594 5.67306641 1.4140625 6.93359375 C1.27742188 7.61550781 1.14078125 8.29742187 1 9 C0.01 9.495 0.01 9.495 -1 10 C-1.02689216 8.52093108 -1.04634621 7.04172517 -1.0625 5.5625 C-1.07410156 4.73878906 -1.08570313 3.91507812 -1.09765625 3.06640625 C-1 1 -1 1 0 0 Z " fill="#F6F5F8" transform="translate(16,118)"/>
<path d="M0 0 C0.33 0.66 0.66 1.32 1 2 C1.66 2 2.32 2 3 2 C2.34 3.32 1.68 4.64 1 6 C-0.32 6 -1.64 6 -3 6 C-3 5.01 -3 4.02 -3 3 C-2.01 3 -1.02 3 0 3 C0 2.01 0 1.02 0 0 Z " fill="#CCC7D6" transform="translate(154,131)"/>
<path d="M0 0 C0.33 0 0.66 0 1 0 C1.144375 1.0725 1.28875 2.145 1.4375 3.25 C1.83749442 5.91662949 2.27591924 8.41399729 3 11 C1.68 10.34 0.36 9.68 -1 9 C-0.67 6.03 -0.34 3.06 0 0 Z " fill="#D3CDDE" transform="translate(17,121)"/>
<path d="M0 0 C2.31 0 4.62 0 7 0 C7 0.99 7 1.98 7 3 C4.69 3 2.38 3 0 3 C0 2.01 0 1.02 0 0 Z " fill="#552986" transform="translate(126,73)"/>
<path d="M0 0 C2.475 0.495 2.475 0.495 5 1 C4.67 4.63 4.34 8.26 4 12 C3.67 12 3.34 12 3 12 C2.814375 10.14375 2.814375 10.14375 2.625 8.25 C2.24253695 5.1237803 1.69450477 2.71120763 0 0 Z " fill="#501F81" transform="translate(69,70)"/>
<path d="M0 0 C0.66 0.33 1.32 0.66 2 1 C0 4 0 4 -1.9453125 4.51171875 C-2.66460938 4.56972656 -3.38390625 4.62773438 -4.125 4.6875 C-6.043125 4.8421875 -6.043125 4.8421875 -8 5 C-8 4.34 -8 3.68 -8 3 C-6.865625 2.690625 -5.73125 2.38125 -4.5625 2.0625 C-1.21224901 1.37075469 -1.21224901 1.37075469 0 0 Z " fill="#5D3B85" transform="translate(28,59)"/>
<path d="M0 0 C0.99 0 1.98 0 3 0 C2.34 1.32 1.68 2.64 1 4 C-0.98 4 -2.96 4 -5 4 C-5 3.34 -5 2.68 -5 2 C-3.35 2 -1.7 2 0 2 C0 1.34 0 0.68 0 0 Z " fill="#E9E6EE" transform="translate(98,128)"/>
<path d="M0 0 C0 1.98 0 3.96 0 6 C-0.99 6 -1.98 6 -3 6 C-3.33 4.35 -3.66 2.7 -4 1 C-1 0 -1 0 0 0 Z " fill="#EEECF1" transform="translate(158,127)"/>
<path d="M0 0 C0.66 0 1.32 0 2 0 C1.67 2.31 1.34 4.62 1 7 C0.01 7.33 -0.98 7.66 -2 8 C-1.33333333 5.33333333 -0.66666667 2.66666667 0 0 Z " fill="#F0EFF4" transform="translate(53,124)"/>
<path d="M0 0 C2.64 0 5.28 0 8 0 C7.01 0.33 6.02 0.66 5 1 C5 1.66 5 2.32 5 3 C3.35 2.67 1.7 2.34 0 2 C0 1.34 0 0.68 0 0 Z " fill="#603396" transform="translate(93,127)"/>
<path d="M0 0 C0.94875 0.04125 1.8975 0.0825 2.875 0.125 C0.65565836 3.45401247 -0.47183329 3.87523244 -4.125 5.125 C-4.455 4.135 -4.785 3.145 -5.125 2.125 C-3.125 0.125 -3.125 0.125 0 0 Z " fill="#D4CEDD" transform="translate(22.125,114.875)"/>
</svg>