<svg xmlns="http://www.w3.org/2000/svg" version="1.1" width="96" height="96">
<path d="M0 0 C1.69576172 -0.03867188 1.69576172 -0.03867188 3.42578125 -0.078125 C7.02326835 0.28377789 8.82784715 1.07849891 11.6875 3.25 C15.87254995 10.1254392 15.88593493 16.91741315 16.2109375 24.77734375 C17.07628974 31.08306624 20.32043466 35.28277213 24.1875 40.1875 C29.8555961 47.66828268 32.62362515 53.71667841 32.6875 63.25 C32.203125 65.55078125 32.203125 65.55078125 31.6875 67.25 C32.3475 67.25 33.0075 67.25 33.6875 67.25 C34.10322266 68.18972656 34.10322266 68.18972656 34.52734375 69.1484375 C34.88957031 69.96570313 35.25179687 70.78296875 35.625 71.625 C35.98464844 72.43710938 36.34429687 73.24921875 36.71484375 74.0859375 C37.3444903 75.48683785 38.00062642 76.87625284 38.6875 78.25 C39.07421875 81.1484375 39.07421875 81.1484375 38.6875 84.25 C36.45703125 86.2265625 36.45703125 86.2265625 33.5 87.875 C29.60559771 90.09590412 26.15745474 92.40931166 22.6875 95.25 C19.49992747 96.84378627 16.14865695 96.77504577 12.6875 96.25 C10.5 94.3125 10.5 94.3125 8.6875 92.25 C4.60094434 91.06549111 0.60527418 91.14796473 -3.625 91.1875 C-4.87925781 91.19652344 -6.13351563 91.20554687 -7.42578125 91.21484375 C-8.37839844 91.22644531 -9.33101562 91.23804687 -10.3125 91.25 C-10.6425 92.24 -10.9725 93.23 -11.3125 94.25 C-16.47047798 96.82898899 -23.20072788 95.48182371 -28.5 93.875 C-30.10575489 93.33805988 -31.71002888 92.79666239 -33.3125 92.25 C-34.66430633 91.86657857 -36.01823711 91.49049531 -37.375 91.125 C-40.3125 90.25 -40.3125 90.25 -41.3125 89.25 C-41.54679886 86.62525966 -41.68328338 84.06705518 -41.75 81.4375 C-41.79576172 80.71240234 -41.84152344 79.98730469 -41.88867188 79.24023438 C-41.93359375 77.10546875 -41.93359375 77.10546875 -41.3125 73.25 C-36.69041602 69.25 -36.69041602 69.25 -33.3125 69.25 C-33.07015625 68.1878125 -32.8278125 67.125625 -32.578125 66.03125 C-30.18105723 55.79770765 -27.54182635 48.17522833 -21.1875 39.6875 C-15.64157782 32.15205555 -15.23996357 26.55606611 -15.35546875 17.41015625 C-15.27836315 11.7393899 -14.59910327 7.76175884 -10.8125 3.3125 C-7.00807443 0.1738489 -4.89631806 0.06654113 0 0 Z M-9.3125 14.25 C-9.9725 14.91 -10.6325 15.57 -11.3125 16.25 C-10.9825 17.24 -10.6525 18.23 -10.3125 19.25 C-10.3125 18.59 -10.3125 17.93 -10.3125 17.25 C-9.3225 17.25 -8.3325 17.25 -7.3125 17.25 C-6.9825 18.24 -6.6525 19.23 -6.3125 20.25 C-6.65694881 17.77733235 -6.65694881 17.77733235 -7.3125 15.25 C-7.9725 14.92 -8.6325 14.59 -9.3125 14.25 Z M1.6875 14.25 C0.6975 15.24 -0.2925 16.23 -1.3125 17.25 C-0.9825 18.24 -0.6525 19.23 -0.3125 20.25 C0.3475 19.26 1.0075 18.27 1.6875 17.25 C2.6775 17.58 3.6675 17.91 4.6875 18.25 C5.0175 19.9 5.3475 21.55 5.6875 23.25 C6.0175 23.25 6.3475 23.25 6.6875 23.25 C6.6875 20.94 6.6875 18.63 6.6875 16.25 C4.2125 15.26 4.2125 15.26 1.6875 14.25 Z M3.5625 32.75 C-0.16298729 34.36744407 -3.23283637 34.64227535 -7.3125 34.25 C-8.3025 33.59 -9.2925 32.93 -10.3125 32.25 C-10.68375 33.28125 -11.055 34.3125 -11.4375 35.375 C-12.90994346 39.35552898 -14.63385711 43.19282057 -16.375 47.0625 C-20.56830323 55.84553885 -20.56830323 55.84553885 -21.3125 65.25 C-18.95980039 68.03243626 -16.52975937 70.05888498 -13.5703125 72.1796875 C-11.3125 74.25 -11.3125 74.25 -10.9921875 76.8203125 C-11.09789062 77.62210938 -11.20359375 78.42390625 -11.3125 79.25 C-11.3125 80.24 -11.3125 81.23 -11.3125 82.25 C-7.65910529 85.43198894 -4.24528861 85.71746565 0.40234375 85.53125 C4.13156194 85.0722693 6.44967649 84.23234093 9.6875 82.25 C12.52255603 76.98489595 12.79270694 70.13278843 13.6875 64.25 C14.6775 63.92 15.6675 63.59 16.6875 63.25 C19.10617468 60.32331829 19.10617468 60.32331829 18.25 56.5 C16.77620915 50.5657958 14.00990108 45.17443101 11.34375 39.703125 C10.00522505 36.91242675 8.79032676 34.13940612 7.6875 31.25 C6.26002782 31.17787816 6.26002782 31.17787816 3.5625 32.75 Z M-24.3125 56.25 C-23.3125 60.25 -23.3125 60.25 -23.3125 60.25 Z " fill="#050300" transform="translate(49.3125,-0.25)"/>
<path d="M0 0 C1.69576172 -0.03867188 1.69576172 -0.03867188 3.42578125 -0.078125 C7.02326835 0.28377789 8.82784715 1.07849891 11.6875 3.25 C15.87254995 10.1254392 15.88593493 16.91741315 16.2109375 24.77734375 C17.07628974 31.08306624 20.32043466 35.28277213 24.1875 40.1875 C29.8555961 47.66828268 32.62362515 53.71667841 32.6875 63.25 C32.203125 65.55078125 32.203125 65.55078125 31.6875 67.25 C32.3475 67.25 33.0075 67.25 33.6875 67.25 C33.6875 67.91 33.6875 68.57 33.6875 69.25 C32.759375 69.04375 31.83125 68.8375 30.875 68.625 C27.53576598 67.88307034 27.53576598 67.88307034 24.6875 70.25 C21.8125 70.75 21.8125 70.75 18.6875 70.25 C16.63799272 68.41398307 15.29553985 66.52017391 13.6875 64.25 C14.38875 63.775625 15.09 63.30125 15.8125 62.8125 C18.10721062 60.26291443 18.10721062 60.26291443 17.375 56.4375 C15.43301238 49.37572682 11.91708117 42.79294863 8.6875 36.25 C8.14609375 35.06857422 8.14609375 35.06857422 7.59375 33.86328125 C6.78081797 32.06299835 6.78081797 32.06299835 4.6875 31.25 C5.3475 30.26 6.0075 29.27 6.6875 28.25 C6.6875 27.26 6.6875 26.27 6.6875 25.25 C2.05974361 22.47334616 -1.98929836 21.06471455 -7.3125 22.25 C-9.65111444 23.7046889 -11.32127239 25.30733892 -13.3125 27.25 C-13.6425 27.25 -13.9725 27.25 -14.3125 27.25 C-15.92985573 12.91236003 -15.92985573 12.91236003 -13.3125 6.25 C-8.95710876 1.13241529 -6.59139446 0.08957727 0 0 Z M-9.3125 14.25 C-9.9725 14.91 -10.6325 15.57 -11.3125 16.25 C-10.9825 17.24 -10.6525 18.23 -10.3125 19.25 C-10.3125 18.59 -10.3125 17.93 -10.3125 17.25 C-9.3225 17.25 -8.3325 17.25 -7.3125 17.25 C-6.9825 18.24 -6.6525 19.23 -6.3125 20.25 C-6.65694881 17.77733235 -6.65694881 17.77733235 -7.3125 15.25 C-7.9725 14.92 -8.6325 14.59 -9.3125 14.25 Z M1.6875 14.25 C0.6975 15.24 -0.2925 16.23 -1.3125 17.25 C-0.9825 18.24 -0.6525 19.23 -0.3125 20.25 C0.3475 19.26 1.0075 18.27 1.6875 17.25 C2.6775 17.58 3.6675 17.91 4.6875 18.25 C5.0175 19.9 5.3475 21.55 5.6875 23.25 C6.0175 23.25 6.3475 23.25 6.6875 23.25 C6.6875 20.94 6.6875 18.63 6.6875 16.25 C4.2125 15.26 4.2125 15.26 1.6875 14.25 Z " fill="#000000" transform="translate(49.3125,-0.25)"/>
<path d="M0 0 C1.9375 0 1.9375 0 4 1 C7.33250444 4.5546714 9.87549745 8.74578787 12.53515625 12.81640625 C13.96908543 15.02523318 13.96908543 15.02523318 15.6640625 17.05078125 C17.69696769 20.0169207 17.32321783 22.50924746 17 26 C14.64767727 28.35232273 14.13719668 28.29557039 10.9375 28.3125 C6.63345125 28.22959697 3.15055402 27.22794406 -0.85546875 25.7265625 C-3.25427219 24.84065263 -3.25427219 24.84065263 -6.9375 24.4375 C-10 24 -10 24 -12 22 C-12.40104068 17.20574098 -12.12886487 12.67827651 -11 8 C-9.11382426 5.92015443 -7.56651696 5.00393263 -5.0078125 3.89453125 C-2.81237172 2.91640686 -1.66663472 1.69528747 0 0 Z " fill="#F5BE04" transform="translate(21,65)"/>
<path d="M0 0 C0.37125 0.66 0.7425 1.32 1.125 2 C2.8912495 4.31093452 2.8912495 4.31093452 6 4.375 C9.17702205 4.2049729 9.17702205 4.2049729 12 2 C14.01953125 2.07421875 14.01953125 2.07421875 16 3 C17.44921875 5.14453125 17.44921875 5.14453125 18.6875 7.8125 C19.10386719 8.68519531 19.52023438 9.55789062 19.94921875 10.45703125 C20.85302699 12.64431438 21.51017355 14.69081816 22 17 C21.52691406 17.27972656 21.05382812 17.55945313 20.56640625 17.84765625 C16.58472238 20.26150359 12.99630911 22.8040222 9.4375 25.8125 C6.33434402 28.27251484 5.16280185 28.97374164 1.125 29.625 C-2 29 -2 29 -3.9375 28 C-7.60608503 21.09442818 -3.84257402 10.12518301 -2 3 C-1.34 2.01 -0.68 1.02 0 0 Z " fill="#F3BC04" transform="translate(65,65)"/>
<path d="M0 0 C2.56627427 1.12335025 4.65297778 2.43531852 7 4 C6.9375 5.75 6.9375 5.75 6 8 C1.28391844 11.39557873 -2.05578662 12.8806242 -8 12 C-10.9375 10.25 -10.9375 10.25 -13 8 C-13 4 -13 4 -11 1.75 C-7.25018998 -0.43738918 -4.19360446 -0.82289597 0 0 Z " fill="#F0BA04" transform="translate(50,21)"/>
<path d="M0 0 C1.485 0.99 1.485 0.99 3 2 C3 2.66 3 3.32 3 4 C9.52531182 4.45791662 12.51697081 3.50913868 18 0 C18.66 0 19.32 0 20 0 C19.9375 1.75 19.9375 1.75 19 4 C14.28391844 7.39557873 10.94421338 8.8806242 5 8 C2.0625 6.25 2.0625 6.25 0 4 C0 2.68 0 1.36 0 0 Z " fill="#D3A304" transform="translate(37,25)"/>
<path d="M0 0 C1.32 0.66 2.64 1.32 4 2 C4 3.98 4 5.96 4 8 C2.948125 7.5359375 2.948125 7.5359375 1.875 7.0625 C-1.08936657 5.96697322 -3.87698108 5.43577008 -7 5 C-7 4.67 -7 4.34 -7 4 C-5.824375 3.8453125 -5.824375 3.8453125 -4.625 3.6875 C-1.66954819 3.22404978 -1.66954819 3.22404978 0 0 Z " fill="#0C0900" transform="translate(51,16)"/>
<path d="M0 0 C-0.25 1.875 -0.25 1.875 -1 4 C-5.29546748 6.86364499 -10.00168084 6 -15 6 C-15 5.67 -15 5.34 -15 5 C-13.783125 4.731875 -12.56625 4.46375 -11.3125 4.1875 C-7.40742445 3.2267823 -3.81009123 0 0 0 Z " fill="#B48B03" transform="translate(57,25)"/>
</svg>
