<svg xmlns="http://www.w3.org/2000/svg" version="1.1" width="100" height="100">
<path d="M0 0 C1.98 0 3.96 0 6 0 C8.29561809 6.59379663 10.22089072 13.24947898 12 20 C12.27714844 18.72382812 12.55429687 17.44765625 12.83984375 16.1328125 C13.20558957 14.46351107 13.57148262 12.7942419 13.9375 11.125 C14.11990234 10.28324219 14.30230469 9.44148438 14.49023438 8.57421875 C14.66748047 7.76855469 14.84472656 6.96289062 15.02734375 6.1328125 C15.18968506 5.38918457 15.35202637 4.64555664 15.51928711 3.87939453 C16 2 16 2 17 0 C19.875 -0.1875 19.875 -0.1875 23 0 C25.16385601 3.24578402 25.7744171 5.65283567 26.625 9.4375 C26.88539062 10.57058594 27.14578125 11.70367187 27.4140625 12.87109375 C28 16 28 16 28 20 C28.66 20 29.32 20 30 20 C30.103125 18.906875 30.20625 17.81375 30.3125 16.6875 C32.00575153 2.99424847 32.00575153 2.99424847 35 0 C36.99958364 -0.04080783 39.00045254 -0.04254356 41 0 C40.33222673 6.54788791 38.44684217 12.60444811 36.5 18.875 C36.17902344 19.93203125 35.85804687 20.9890625 35.52734375 22.078125 C33.13533453 29.86466547 33.13533453 29.86466547 32 31 C30.00041636 31.04080783 27.99954746 31.04254356 26 31 C23.69557475 25.07433507 21.76463072 19.10737442 20 13 C19.72285156 14.21558594 19.44570313 15.43117188 19.16015625 16.68359375 C18.79446102 18.26827307 18.42856525 19.85290612 18.0625 21.4375 C17.88009766 22.23994141 17.69769531 23.04238281 17.50976562 23.86914062 C16.11328125 29.88671875 16.11328125 29.88671875 15 31 C13.00041636 31.04080783 10.99954746 31.04254356 9 31 C6.55802878 25.5587308 4.61098109 20.05908838 2.8125 14.375 C2.53986328 13.54226562 2.26722656 12.70953125 1.98632812 11.8515625 C0.70289442 7.81148046 -0.39450742 4.29574747 0 0 Z " fill="#000000" transform="translate(31,20)"/>
<path d="M0 0 C3.70988676 0.75102586 6.93490135 2.25776434 10.375 3.8125 C35.01124869 14.66433648 61.15356291 14.80158582 86.4375 6.1875 C87.613125 5.795625 88.78875 5.40375 90 5 C90.99 5.495 90.99 5.495 92 6 C89.78984747 11.5134988 85.10053821 13.4462985 80 16 C61.63834379 23.69440832 41.74393443 23.92192829 23.05078125 17.26171875 C14.59220745 13.76348656 6.44078325 9.5905689 0 3 C0 2.01 0 1.02 0 0 Z " fill="#000000" transform="translate(0,59)"/>
<path d="M0 0 C2.84835077 3.82747134 3.11618567 6.98099281 3.31640625 11.671875 C3.35830078 12.60644531 3.40019531 13.54101562 3.44335938 14.50390625 C3.48267578 15.47199219 3.52199219 16.44007812 3.5625 17.4375 C3.60568359 18.42105469 3.64886719 19.40460937 3.69335938 20.41796875 C3.79922052 22.84101275 3.90130171 25.2641554 4 27.6875 C1.6875 28.3125 1.6875 28.3125 -1 28.6875 C-1.99 28.0275 -2.98 27.3675 -4 26.6875 C-4.825 27.203125 -5.65 27.71875 -6.5 28.25 C-11.12201744 30.14832859 -13.16062035 29.85831766 -18 28.6875 C-20.5 27.1875 -20.5 27.1875 -22 24.6875 C-22.92556815 19.97150992 -22.68922375 16.75468516 -20.0625 12.6875 C-16.10032503 10.09995716 -12.69138699 9.57000551 -8 9.6875 C-6.656647 9.97783015 -5.31828352 10.29889035 -4 10.6875 C-4.33 8.3775 -4.66 6.0675 -5 3.6875 C-10.12583611 3.58498328 -14.94997778 3.65159801 -20 4.6875 C-20.1875 2.3125 -20.1875 2.3125 -20 -0.3125 C-13.80924078 -4.43967281 -5.94445862 -4.58218685 0 0 Z M-15 16.6875 C-15.04254356 18.68704746 -15.04080783 20.68791636 -15 22.6875 C-13.90201339 23.99939416 -13.90201339 23.99939416 -11.1875 23.9375 C-7.67214774 23.6617861 -6.34316789 23.30103342 -4 20.6875 C-3.66574265 18.06124861 -3.66574265 18.06124861 -4 15.6875 C-9.77786722 14.48965775 -9.77786722 14.48965775 -15 16.6875 Z " fill="#000000" transform="translate(26,22.3125)"/>
<path d="M0 0 C0.86625 0.07863281 1.7325 0.15726563 2.625 0.23828125 C5 0.6875 5 0.6875 8 2.6875 C8 4.0075 8 5.3275 8 6.6875 C3.71 6.6875 -0.58 6.6875 -5 6.6875 C-5 8.0075 -5 9.3275 -5 10.6875 C-4.15695313 11.01363281 -3.31390625 11.33976562 -2.4453125 11.67578125 C-1.34960938 12.11277344 -0.25390625 12.54976562 0.875 13 C1.96554688 13.42925781 3.05609375 13.85851563 4.1796875 14.30078125 C7 15.6875 7 15.6875 9 18.6875 C9.78993519 25.68406881 9.78993519 25.68406881 6.6875 29.625 C2.34528123 32.95740045 -1.69187005 33.11734856 -7 32.6875 C-10.5 31.6875 -10.5 31.6875 -13 30.6875 C-13.33 29.0375 -13.66 27.3875 -14 25.6875 C-11 24.6875 -11 24.6875 -8 25.6875 C-6.43881572 25.75490865 -4.8749748 25.77264456 -3.3125 25.75 C-2.50425781 25.74097656 -1.69601563 25.73195313 -0.86328125 25.72265625 C-0.24839844 25.71105469 0.36648437 25.69945313 1 25.6875 C1.33 24.3675 1.66 23.0475 2 21.6875 C1.16855469 21.37296875 0.33710937 21.0584375 -0.51953125 20.734375 C-1.60621094 20.30640625 -2.69289063 19.8784375 -3.8125 19.4375 C-5.43091797 18.81101562 -5.43091797 18.81101562 -7.08203125 18.171875 C-10.10328812 16.63495718 -11.36094324 15.61318834 -13 12.6875 C-13.5 9.25 -13.5 9.25 -13 5.6875 C-9.05817535 0.78685314 -6.1646914 -0.61463441 0 0 Z " fill="#000000" transform="translate(87,19.3125)"/>
<path d="M0 0 C0.5323378 6.38805359 0.0505924 11.78673756 -4 17 C-6.140625 18.22265625 -6.140625 18.22265625 -8 19 C-7.43254837 14.2982579 -6.7795919 9.67755138 -6 5 C-10.29 4.67 -14.58 4.34 -19 4 C-18.67 3.01 -18.34 2.02 -18 1 C-12.98370007 -1.44383843 -5.17256187 -2.58628094 0 0 Z " fill="#000000" transform="translate(100,58)"/>
</svg>
