<svg xmlns="http://www.w3.org/2000/svg" version="1.1" width="100" height="100">
<path d="M0 0 C5.72501633 4.68620288 9.60053255 9.57174731 12.6796875 16.2734375 C13.85232338 18.43896216 15.2181244 20.0580398 16.875 21.875 C21.39516006 26.9544728 22.22907665 31.99126617 22.05859375 38.66015625 C21.34423884 44.65531198 18.95199663 49.48049853 14.5625 53.625 C7.88617953 58.61537273 0.58666932 59.71027618 -7.5625 59.6484375 C-8.41626221 59.65130768 -9.27002441 59.65417786 -10.1496582 59.65713501 C-11.9412503 59.65916179 -13.73286524 59.65372982 -15.52441406 59.64111328 C-18.24334906 59.62503932 -20.96079791 59.64100914 -23.6796875 59.66015625 C-25.4322949 59.65817357 -27.18490138 59.65432939 -28.9375 59.6484375 C-29.73776611 59.65451019 -30.53803223 59.66058289 -31.36254883 59.6668396 C-39.42081849 59.56801613 -46.77430571 57.68382576 -52.7421875 52.03515625 C-57.53773647 46.35752444 -58.93947013 40.21583604 -58.6328125 32.88671875 C-57.66854259 26.24506378 -54.08190328 21.85664016 -49.6796875 17.02734375 C-48.19750541 15.18474033 -47.32565814 13.47040984 -46.375 11.3125 C-42.8455412 3.83237127 -36.90598143 -1.11758484 -29.2734375 -4.07421875 C-19.21805408 -7.43248387 -8.69153248 -6.20349837 0 0 Z M-28.25 12.25 C-28.58 12.91 -28.91 13.57 -29.25 14.25 C-28.528125 14.63671875 -27.80625 15.0234375 -27.0625 15.421875 C-26.134375 15.94265625 -25.20625 16.4634375 -24.25 17 C-23.321875 17.51046875 -22.39375 18.0209375 -21.4375 18.546875 C-20.715625 19.10890625 -19.99375 19.6709375 -19.25 20.25 C-19.25 24.25 -19.25 24.25 -21 26.390625 C-22.11375 27.43476562 -22.11375 27.43476562 -23.25 28.5 C-23.9925 29.20640625 -24.735 29.9128125 -25.5 30.640625 C-26.36625 31.43726563 -26.36625 31.43726563 -27.25 32.25 C-27.930625 31.59 -28.61125 30.93 -29.3125 30.25 C-32.98085974 27.75239337 -34.89197392 27.6161053 -39.25 28.25 C-41.85314994 29.6030128 -41.85314994 29.6030128 -43.25 32.25 C-43.85921535 35.05468955 -44.11557371 37.49736809 -43.25 40.25 C-40.38501689 43.28445 -38.17968403 44.50539686 -34.08984375 44.78344727 C-32.45602525 44.81643622 -30.82162258 44.82613082 -29.1875 44.81640625 C-28.31859131 44.82260483 -27.44968262 44.82880341 -26.55444336 44.83518982 C-24.72217934 44.84227575 -22.88985076 44.83913539 -21.05761719 44.82641602 C-18.2585584 44.81254242 -15.46283954 44.8466452 -12.6640625 44.88476562 C-10.88020752 44.88571683 -9.09634836 44.88385794 -7.3125 44.87890625 C-6.47904053 44.89216446 -5.64558105 44.90542267 -4.78686523 44.91908264 C-0.48740797 44.85037855 1.25711483 44.62669035 4.78125 41.93334961 C7.01907468 39.31324597 7.01907468 39.31324597 7.3125 35.6875 C7.00781099 32.22803917 7.00781099 32.22803917 5 29.8125 C2.65897434 27.86973613 2.65897434 27.86973613 -1.25 28.25 C-1.3325 27.05375 -1.415 25.8575 -1.5 24.625 C-2.2077835 19.06103524 -4.6727587 15.6733641 -8.8125 11.9375 C-15.10582659 7.58058159 -22.01517511 8.2962086 -28.25 12.25 Z " fill="#1875D1" transform="translate(68.25,20.75)"/>
<path d="M0 0 C-3.3810038 4.13621084 -6.66590534 7.81316569 -11 11 C-11.825 10.505 -12.65 10.01 -13.5 9.5 C-17.58287578 7.7501961 -20.62830676 7.32342843 -25 8 C-28.40241824 9.3648868 -28.40241824 9.3648868 -31 11 C-30.278125 11.45890625 -29.55625 11.9178125 -28.8125 12.390625 C-27.884375 13.00421875 -26.95625 13.6178125 -26 14.25 C-25.071875 14.85328125 -24.14375 15.4565625 -23.1875 16.078125 C-22.465625 16.71234375 -21.74375 17.3465625 -21 18 C-21 22 -21 22 -22.96875 24.359375 C-23.8040625 25.14828125 -24.639375 25.9371875 -25.5 26.75 C-26.3353125 27.54921875 -27.170625 28.3484375 -28.03125 29.171875 C-28.6809375 29.77515625 -29.330625 30.3784375 -30 31 C-30.680625 30.34 -31.36125 29.68 -32.0625 29 C-35.70295227 26.5213942 -37.67648012 26.43954372 -42 27 C-44.10242444 27.85219923 -44.10242444 27.85219923 -45 30 C-45.40439173 32.73391595 -45.44371554 35.2694428 -45 38 C-43.66641006 40.009245 -43.66641006 40.009245 -42 41 C-43.40844718 44.21524305 -45.10344786 46.32183868 -47.625 48.75 C-48.25664063 49.36359375 -48.88828125 49.9771875 -49.5390625 50.609375 C-50.26222656 51.29773438 -50.26222656 51.29773438 -51 52 C-55.68371968 49.84431312 -58.02485693 47.04780045 -60.25 42.375 C-61.85969743 35.13136156 -62.03069618 28.38334227 -58.2734375 21.828125 C-56.51182158 19.29917945 -54.50377224 17.05264567 -52.4296875 14.77734375 C-50.94750541 12.93474033 -50.07565814 11.22040984 -49.125 9.0625 C-45.5955412 1.58237127 -39.65598143 -3.36758484 -32.0234375 -6.32421875 C-20.32032028 -10.23278879 -9.45076553 -7.60170271 0 0 Z " fill="#FEC007" transform="translate(71,23)"/>
<path d="M0 0 C0.94875 0.763125 1.8975 1.52625 2.875 2.3125 C-0.5060038 6.44871084 -3.79090534 10.12566569 -8.125 13.3125 C-8.95 12.8175 -9.775 12.3225 -10.625 11.8125 C-14.7122663 10.06081444 -17.74932558 9.64266515 -22.125 10.3125 C-25.92281191 11.84663413 -25.92281191 11.84663413 -29.125 14.3125 C-32.3239639 14.60081863 -35.52330814 14.76132341 -38.73046875 14.93359375 C-42.11373281 15.31124233 -44.94630394 16.12109191 -48.125 17.3125 C-46.99853494 9.91001534 -42.59677107 5.21222227 -37.125 0.3125 C-25.53106367 -7.2166983 -11.57408898 -8.23046328 0 0 Z " fill="#FD3D01" transform="translate(68.125,20.6875)"/>
<path d="M0 0 C6.93 0.33 13.86 0.66 21 1 C21 5.95 21 10.9 21 16 C17.85362929 16.08176324 14.70943205 16.14086233 11.5625 16.1875 C10.68400391 16.21263672 9.80550781 16.23777344 8.90039062 16.26367188 C2.83397962 16.33082772 -2.46466592 15.60898696 -8 13 C-8.66 12.34 -9.32 11.68 -10 11 C-9.36191406 10.37351562 -8.72382813 9.74703125 -8.06640625 9.1015625 C-7.24011719 8.28429687 -6.41382813 7.46703125 -5.5625 6.625 C-4.73878906 5.81289062 -3.91507813 5.00078125 -3.06640625 4.1640625 C-0.96565328 2.17651485 -0.96565328 2.17651485 0 0 Z " fill="#4EAF55" transform="translate(29,64)"/>
</svg>
