<svg xmlns="http://www.w3.org/2000/svg" version="1.1" width="96" height="96">
<path d="M0 0 C2.86855713 0.08436933 4.55682315 0.58692181 6.66796875 2.5546875 C11 7.51440024 11 7.51440024 11 10 C12.60320974 10.19551338 14.20762986 10.38111983 15.8125 10.5625 C16.70582031 10.66691406 17.59914062 10.77132813 18.51953125 10.87890625 C21.13375572 11.15658709 21.13375572 11.15658709 24 10 C26.33299825 9.96045766 28.66708189 9.95598268 31 10 C31.11214844 11.051875 31.11214844 11.051875 31.2265625 12.125 C32.10049089 18.43099308 33.47894337 22.23723205 37.5390625 27.109375 C41.80164065 32.6256526 42.54563508 39.23152951 43 46 C41.515 46.495 41.515 46.495 40 47 C39.75765625 46.41992188 39.5153125 45.83984375 39.265625 45.2421875 C34.88233735 35.02575552 29.30979853 27.01152748 18.71875 22.6953125 C10.59659731 20.61809529 1.39414586 20.69936157 -6.07421875 24.75 C-7.02748047 25.36875 -7.02748047 25.36875 -8 26 C-8.64582031 26.4125 -9.29164062 26.825 -9.95703125 27.25 C-15.1457212 31.09509234 -17.58336125 35.75505404 -19 42 C-20.16889424 52.61645185 -18.72156313 60.44903655 -12.1875 68.875 C-7.61791558 73.81015117 -1.8955086 75.54817536 4.671875 76.05078125 C9.92723408 75.93615093 14.1460645 74.66993067 18.0859375 71.12109375 C22.7208669 65.98483526 24.36392268 62.20535006 24.28515625 55.28515625 C23.72881312 50.82679007 21.20582561 48.05966493 17.9375 45.1875 C13.98568894 42.76542225 10.54545769 42.6081502 6 43 C3.24670979 44.79562405 1.47372539 46.05254922 0 49 C-0.49470367 53.20092625 -0.65022817 56.78821114 1.375 60.5625 C5.44289884 62.79015889 9.46168352 62.31179274 14 62 C13.625 63.9375 13.625 63.9375 13 66 C9.52856436 67.73571782 5.79556182 67.46645793 2 67 C-2.00436877 64.92366064 -4.57031256 62.76738052 -7 59 C-8.46945556 53.53139322 -8.50286284 48.10858612 -6.22265625 42.890625 C-3.30360844 38.37682583 0.90636793 34.69787736 6 33 C15.03101334 32.09689867 21.13889825 34.0170512 28.75 38.6875 C34.55286161 44.65155221 36.31504577 50.31099454 36.69140625 58.48828125 C37.12766624 62.03910621 38.86525933 64.19815287 41 67 C41.75 69.875 41.75 69.875 42 72 C36.39130435 74.86956522 36.39130435 74.86956522 33.375 75.875 C30.31745502 77.32331078 29.00999136 79.32001153 27 82 C26.01 82.66 25.02 83.32 24 84 C23.06214393 86.07943985 23.06214393 86.07943985 22.4375 88.4375 C21.54736243 91.49011868 20.80473339 93.29289991 19 96 C14.96018159 96.64269838 13.24801813 96.14506721 9.6875 94.0625 C7 92 7 92 6 91 C3.78390622 90.51862334 1.55073092 90.11485269 -0.6875 89.75 C-1.90824219 89.53859375 -3.12898438 89.3271875 -4.38671875 89.109375 C-8.55521378 88.98319353 -10.40214648 90.01312567 -14 92 C-16.7734375 92.51171875 -16.7734375 92.51171875 -19.375 92.6875 C-20.24898437 92.75324219 -21.12296875 92.81898437 -22.0234375 92.88671875 C-22.67570312 92.92410156 -23.32796875 92.96148437 -24 93 C-25.42403528 88.72789416 -24.86525691 84.69240718 -24.64453125 80.2265625 C-25.07404627 76.32788773 -26.42243961 74.86620664 -29 72 C-29 71.34 -29 70.68 -29 70 C-29.85271484 69.87044922 -29.85271484 69.87044922 -30.72265625 69.73828125 C-36.35946636 68.7125512 -40.98127718 67.25442503 -45 63 C-46.3125 60.1875 -46.3125 60.1875 -46 57 C-43.72754857 52.90642025 -41.12912426 49.72765786 -37.1875 47.1875 C-34.03489544 44.03489544 -34.07253627 41.15236781 -33.84765625 36.8046875 C-34.03031707 33.44185497 -34.92227827 31.02415815 -36.28515625 27.984375 C-37.54332894 24.49174262 -37.76890632 20.63345928 -37 17 C-32.00670879 13.6711392 -26.19092554 13.58447964 -20.375 14.6875 C-16.21290779 15.07287891 -14.23499184 13.95937641 -10.69921875 11.91015625 C-9 11 -9 11 -7 11 C-6.84724609 10.12601563 -6.84724609 10.12601563 -6.69140625 9.234375 C-5.88482847 6.62780725 -4.75842991 5.26464586 -2.9375 3.25 C-2.38964844 2.63640625 -1.84179688 2.0228125 -1.27734375 1.390625 C-0.85582031 0.93171875 -0.43429688 0.4728125 0 0 Z " fill="#F29607" transform="translate(50,0)"/>
</svg>
