<svg xmlns="http://www.w3.org/2000/svg" xmlns:xlink="http://www.w3.org/1999/xlink" width="2000" zoomAndPan="magnify" viewBox="0 0 1500 1499.999933" height="2000" preserveAspectRatio="xMidYMid meet" version="1.0"><defs><g/><clipPath id="3e5cde11ad"><path d="M 102.117188 356 L 512 356 L 512 834 L 102.117188 834 Z M 102.117188 356 " clip-rule="nonzero"/></clipPath><clipPath id="5f53c107c1"><path d="M 529 334.179688 L 971 334.179688 L 971 934.257812 L 529 934.257812 Z M 529 334.179688 " clip-rule="nonzero"/></clipPath><clipPath id="6beae697e3"><rect x="0" width="843" y="0" height="178"/></clipPath></defs><g clip-path="url(#3e5cde11ad)"><path fill="#4fd1c5" d="M 120.875 564.128906 L 460.164062 360.386719 C 465.269531 357.546875 470.957031 356.121094 477.210938 356.121094 C 486.585938 356.121094 494.609375 359.464844 501.285156 366.136719 C 507.964844 372.820312 511.308594 380.84375 511.308594 390.226562 C 511.308594 402.441406 505.480469 412.390625 493.828125 420.058594 L 202.285156 594.816406 L 493.828125 769.566406 C 505.480469 777.242188 511.308594 787.1875 511.308594 799.40625 C 511.308594 808.789062 507.964844 816.804688 501.285156 823.488281 C 494.609375 830.167969 486.585938 833.503906 477.210938 833.503906 C 470.957031 833.503906 465.269531 832.085938 460.164062 829.246094 L 120.875 625.5 C 108.371094 617.542969 102.117188 607.3125 102.117188 594.816406 C 102.117188 582.308594 108.371094 572.082031 120.875 564.128906 " fill-opacity="1" fill-rule="nonzero"/></g><path fill="#4fd1c5" d="M 1397.871094 594.816406 C 1397.871094 607.3125 1391.621094 617.542969 1379.113281 625.5 L 1039.828125 829.246094 C 1034.71875 832.085938 1029.039062 833.503906 1022.785156 833.503906 C 1013.40625 833.503906 1005.382812 830.167969 998.703125 823.488281 C 992.023438 816.804688 988.691406 808.789062 988.691406 799.40625 C 988.691406 787.1875 994.511719 777.242188 1006.160156 769.566406 L 1297.707031 594.816406 L 1006.160156 420.058594 C 994.511719 412.390625 988.691406 402.441406 988.691406 390.226562 C 988.691406 380.84375 992.023438 372.820312 998.703125 366.136719 C 1005.382812 359.464844 1013.40625 356.121094 1022.785156 356.121094 C 1029.039062 356.121094 1034.71875 357.546875 1039.828125 360.386719 L 1379.113281 564.128906 C 1391.621094 572.082031 1397.871094 582.308594 1397.871094 594.816406 " fill-opacity="1" fill-rule="nonzero"/><g clip-path="url(#5f53c107c1)"><path fill="#545454" d="M 916.851562 579.976562 C 878.109375 647.152344 792.234375 670.160156 725.050781 631.367188 C 657.863281 592.578125 634.851562 506.707031 673.644531 439.519531 C 712.445312 372.375 798.320312 349.367188 865.453125 388.125 C 932.636719 426.917969 955.644531 512.789062 916.851562 579.976562 Z M 883.003906 357.71875 C 882.949219 357.6875 882.90625 357.699219 882.835938 357.621094 C 798.914062 309.28125 691.6875 338.109375 643.238281 421.964844 C 597.875 500.597656 620.207031 599.644531 692.046875 651.742188 L 659.617188 707.914062 L 647.320312 700.816406 C 644.847656 699.355469 641.628906 700.214844 640.222656 702.71875 L 529.898438 893.871094 C 528.433594 896.339844 529.292969 899.558594 531.753906 900.976562 L 588.210938 933.570312 C 590.667969 934.992188 593.886719 934.128906 595.351562 931.65625 L 705.671875 740.507812 C 707.082031 738.003906 706.230469 734.832031 703.761719 733.363281 L 691.464844 726.265625 L 715.988281 683.785156 L 723.851562 670.101562 C 804.945312 706.300781 901.929688 676.109375 947.261719 597.53125 C 995.730469 513.574219 966.972656 406.234375 883.003906 357.71875 " fill-opacity="1" fill-rule="nonzero"/></g><path fill="#545454" d="M 824.507812 389.550781 C 759.5625 401.738281 705.710938 442.664062 675.480469 497.882812 C 681.925781 439.261719 729.425781 391.746094 790.363281 387.304688 C 802.089844 386.453125 813.550781 387.289062 824.507812 389.550781 " fill-opacity="1" fill-rule="nonzero"/><g transform="matrix(1, 0, 0, 1, 337, 994)"><g clip-path="url(#6beae697e3)"><g fill="#545454" fill-opacity="1"><g transform="translate(2.508166, 127.29361)"><g><path d="M 34.71875 -115.46875 L 34.71875 -23.09375 L 74.46875 -23.09375 L 74.46875 0 L 8.390625 0 L 8.390625 -115.46875 Z M 34.71875 -115.46875 "/></g></g></g><g fill="#545454" fill-opacity="1"><g transform="translate(99.774075, 127.29361)"><g><path d="M 74.46875 -115.46875 L 74.46875 -92.375 L 34.71875 -92.375 L 34.71875 -69.421875 L 72.78125 -69.421875 L 72.78125 -46.328125 L 34.71875 -46.328125 L 34.71875 -23.09375 L 74.46875 -23.09375 L 74.46875 0 L 8.390625 0 L 8.390625 -115.46875 Z M 74.46875 -115.46875 "/></g></g></g><g fill="#545454" fill-opacity="1"><g transform="translate(199.1391, 127.29361)"><g><path d="M 67.046875 -115.46875 L 113.65625 0 L 85.375 0 L 76.84375 -23.09375 L 32.890625 -23.09375 L 24.359375 0 L -3.921875 0 L 42.6875 -115.46875 Z M 67.890625 -46.1875 L 55 -79.78125 L 54.734375 -79.78125 L 41.84375 -46.1875 Z M 67.890625 -46.1875 "/></g></g></g><g fill="#545454" fill-opacity="1"><g transform="translate(327.051877, 127.29361)"><g><path d="M 34.71875 -71.65625 L 34.71875 0 L 8.390625 0 L 8.390625 -115.46875 L 34.71875 -115.46875 L 80.625 -43.8125 L 80.90625 -43.8125 L 80.90625 -115.46875 L 107.21875 -115.46875 L 107.21875 0 L 80.90625 0 L 34.984375 -71.65625 Z M 34.71875 -71.65625 "/></g></g></g><g fill="#545454" fill-opacity="1"><g transform="translate(460.842127, 127.29361)"><g><path d="M 8.390625 -115.46875 L 41.84375 -115.46875 C 57.894531 -115.46875 71.613281 -109.984375 83 -99.015625 C 94.382812 -88.054688 100.078125 -74.320312 100.078125 -57.8125 C 100.078125 -41.195312 94.40625 -27.40625 83.0625 -16.4375 C 71.726562 -5.476562 57.988281 0 41.84375 0 L 8.390625 0 Z M 34.71875 -23.515625 L 38.765625 -23.515625 C 48.378906 -23.515625 56.242188 -26.753906 62.359375 -33.234375 C 68.472656 -39.722656 71.570312 -47.867188 71.65625 -57.671875 C 71.65625 -67.460938 68.597656 -75.625 62.484375 -82.15625 C 56.378906 -88.6875 48.472656 -91.953125 38.765625 -91.953125 L 34.71875 -91.953125 Z M 34.71875 -23.515625 "/></g></g></g><g fill="#545454" fill-opacity="1"><g transform="translate(582.317683, 127.29361)"><g><path d="M 8.390625 -115.46875 L 49.6875 -115.46875 C 60.789062 -115.46875 69.84375 -112.503906 76.84375 -106.578125 C 83.84375 -100.660156 87.34375 -92.195312 87.34375 -81.1875 C 87.34375 -72.6875 85.21875 -65.566406 80.96875 -59.828125 C 76.726562 -54.097656 70.96875 -50.066406 63.6875 -47.734375 L 103.4375 0 L 69.984375 0 L 34.71875 -45.625 L 34.71875 0 L 8.390625 0 Z M 34.71875 -64.25 L 37.796875 -64.25 C 40.222656 -64.25 42.273438 -64.296875 43.953125 -64.390625 C 45.628906 -64.484375 47.539062 -64.804688 49.6875 -65.359375 C 51.832031 -65.921875 53.554688 -66.710938 54.859375 -67.734375 C 56.171875 -68.765625 57.289062 -70.257812 58.21875 -72.21875 C 59.15625 -74.175781 59.625 -76.554688 59.625 -79.359375 C 59.625 -82.160156 59.15625 -84.539062 58.21875 -86.5 C 57.289062 -88.457031 56.171875 -89.945312 54.859375 -90.96875 C 53.554688 -92 51.832031 -92.796875 49.6875 -93.359375 C 47.539062 -93.921875 45.628906 -94.25 43.953125 -94.34375 C 42.273438 -94.4375 40.222656 -94.484375 37.796875 -94.484375 L 34.71875 -94.484375 Z M 34.71875 -64.25 "/></g></g></g><g fill="#545454" fill-opacity="1"><g transform="translate(700.714562, 127.29361)"><g><path d="M 3.21875 -57.8125 C 3.21875 -74.507812 8.910156 -88.644531 20.296875 -100.21875 C 31.679688 -111.789062 45.398438 -117.578125 61.453125 -117.578125 C 77.585938 -117.578125 91.300781 -111.8125 102.59375 -100.28125 C 113.882812 -88.757812 119.53125 -74.601562 119.53125 -57.8125 C 119.53125 -40.914062 113.976562 -26.707031 102.875 -15.1875 C 91.769531 -3.664062 77.960938 2.09375 61.453125 2.09375 C 44.554688 2.09375 30.625 -3.617188 19.65625 -15.046875 C 8.695312 -26.472656 3.21875 -40.726562 3.21875 -57.8125 Z M 31.640625 -57.8125 C 31.640625 -51.738281 32.570312 -46.207031 34.4375 -41.21875 C 36.300781 -36.226562 39.566406 -32.003906 44.234375 -28.546875 C 48.898438 -25.097656 54.640625 -23.375 61.453125 -23.375 C 71.242188 -23.375 78.632812 -26.734375 83.625 -33.453125 C 88.625 -40.171875 91.125 -48.289062 91.125 -57.8125 C 91.125 -67.226562 88.578125 -75.316406 83.484375 -82.078125 C 78.398438 -88.847656 71.054688 -92.234375 61.453125 -92.234375 C 51.929688 -92.234375 44.582031 -88.847656 39.40625 -82.078125 C 34.226562 -75.316406 31.640625 -67.226562 31.640625 -57.8125 Z M 31.640625 -57.8125 "/></g></g></g></g></g></svg>