<svg xmlns="http://www.w3.org/2000/svg" version="1.1" width="128" height="128">
<path d="M0 0 C12.7048924 12.2208965 22.71342861 27.76317385 23.1875 45.75 C22.98212753 57.25085812 19.61774613 69.02944856 11.57421875 77.578125 C9.99239727 79.02119021 8.40916273 80.46270873 6.82421875 81.90234375 C3.86873563 85.3008329 3.78147789 88.64703958 4 93 C4 93.99 4 94.98 4 96 C2.68 95.67 1.36 95.34 0 95 C0.00902344 94.443125 0.01804687 93.88625 0.02734375 93.3125 C-0.25310965 86.09387344 -3.10501396 83.01153332 -8 78 C-16.76111847 68.12518003 -21.37855278 57.10738114 -21.21875 43.84375 C-19.9972774 27.96460622 -12.98828902 15.17925622 -2.41796875 3.62890625 C-0.91627525 2.04084334 -0.91627525 2.04084334 0 0 Z " fill="#4FA940" transform="translate(63,3)"/>
<path d="M0 0 C0.66 0.33 1.32 0.66 2 1 C2.639375 0.835 3.27875 0.67 3.9375 0.5 C6 0 6 0 9 1 C10.66821323 0.67449498 12.33499557 0.34153937 14 0 C14.66 0.33 15.32 0.66 16 1 C17.28317892 4.84953676 17.06643637 7.94738135 17 12 C17.66 12.33 18.32 12.66 19 13 C18 14 18 14 14.9375 14.0625 C13.968125 14.041875 12.99875 14.02125 12 14 C12 10.7 12 7.4 12 4 C11.01 3.67 10.02 3.34 9 3 C9 5.97 9 8.94 9 12 C9.66 12.33 10.32 12.66 11 13 C6.03926578 14.32286246 1.08888488 14.08893197 -4 14 C-4.33 13.34 -4.66 12.68 -5 12 C-4.34 12 -3.68 12 -3 12 C-3 9.03 -3 6.06 -3 3 C-3.66 2.67 -4.32 2.34 -5 2 C-2.625 0.9375 -2.625 0.9375 0 0 Z M1 3 C1 5.97 1 8.94 1 12 C2.32 12 3.64 12 5 12 C5 9.36 5 6.72 5 4 C3.68 3.67 2.36 3.34 1 3 Z " fill="#4FA940" transform="translate(7,104)"/>
<path d="M0 0 C2.22808159 -0.10853983 4.45769932 -0.18583307 6.6875 -0.25 C7.92886719 -0.29640625 9.17023438 -0.3428125 10.44921875 -0.390625 C14.60087678 0.06610306 16.1572293 0.98845627 19 4 C20.55065152 7.74989287 20.36387445 11.09031387 18.875 14.8125 C15.96379489 18.20890597 13.38816657 19.86936952 8.88671875 20.29296875 C7.83097656 20.25816406 6.77523437 20.22335938 5.6875 20.1875 C4.61886719 20.16042969 3.55023438 20.13335937 2.44921875 20.10546875 C1.64097656 20.07066406 0.83273438 20.03585938 0 20 C0 19.34 0 18.68 0 18 C0.66 18 1.32 18 2 18 C2 12.72 2 7.44 2 2 C1.34 2 0.68 2 0 2 C0 1.34 0 0.68 0 0 Z M6 2 C6 6.62 6 11.24 6 16 C8.475 16.99 8.475 16.99 11 18 C14.90595762 14.68619633 14.90595762 14.68619633 16.625 10 C15.78253791 5.95618195 14.26600019 4.46764459 11 2 C9.35 2 7.7 2 6 2 Z " fill="#4FA940" transform="translate(88,98)"/>
<path d="M0 0 C2.12472576 -0.05386629 4.24983652 -0.09273071 6.375 -0.125 C7.55835937 -0.14820312 8.74171875 -0.17140625 9.9609375 -0.1953125 C13 0 13 0 15 2 C15.125 4.5 15.125 4.5 15 7 C15 7.66 15 8.32 15 9 C15.66 9.66 16.32 10.32 17 11 C16.92491178 14.52914653 16.65310265 16.34689735 14.125 18.875 C9.45103404 20.55762774 4.91606167 20.23245826 0 20 C0 19.34 0 18.68 0 18 C0.66 17.67 1.32 17.34 2 17 C2.31241371 14.45058627 2.51303421 11.99638487 2.625 9.4375 C2.66367188 8.72658203 2.70234375 8.01566406 2.7421875 7.28320312 C2.83671783 5.52257575 2.91945817 3.76132272 3 2 C2.01 2 1.02 2 0 2 C0 1.34 0 0.68 0 0 Z M7 2 C5.70366379 3.06645115 5.70366379 3.06645115 5.9375 5.5625 C5.958125 6.366875 5.97875 7.17125 6 8 C7.65 8 9.3 8 11 8 C11 6.35 11 4.7 11 3 C9.05396726 2.40929986 9.05396726 2.40929986 7 2 Z M6 10 C6.33 12.31 6.66 14.62 7 17 C8.65 17 10.3 17 12 17 C13.01111093 13.95086772 13.01111093 13.95086772 12 11 C8.97065509 10.34227572 8.97065509 10.34227572 6 10 Z " fill="#4FA940" transform="translate(109,98)"/>
<path d="M0 0 C-0.433125 0.8353125 -0.433125 0.8353125 -0.875 1.6875 C-2.05960441 4.02806407 -2.05960441 4.02806407 -3 6.6875 C-4 9 -4 9 -6 10 C-3.525 10.99 -3.525 10.99 -1 12 C-0.51807229 17.42168675 -0.51807229 17.42168675 -2.5625 19.875 C-5.80273788 21.3704944 -8.47606359 21.20330402 -12 21 C-13.125 18.6875 -13.125 18.6875 -14 16 C-13.34 15.01 -12.68 14.02 -12 13 C-12 9.58900832 -12.49145406 6.36911686 -13 3 C-8.51925805 -0.36055646 -5.39449293 -0.27429625 0 0 Z M-9 2 C-9.33 3.65 -9.66 5.3 -10 7 C-8.68 7 -7.36 7 -6 7 C-6.33 5.35 -6.66 3.7 -7 2 C-7.66 2 -8.32 2 -9 2 Z M-9 14 C-9.99 15.485 -9.99 15.485 -11 17 C-10.34 17.66 -9.68 18.32 -9 19 C-6.39719432 18.67958603 -6.39719432 18.67958603 -4 18 C-4 17.01 -4 16.02 -4 15 C-5.65 14.67 -7.3 14.34 -9 14 Z " fill="#4FA940" transform="translate(72,104)"/>
<path d="M0 0 C0.825 -0.165 1.65 -0.33 2.5 -0.5 C5 -1 5 -1 7 0 C7.6328125 2.1796875 7.6328125 2.1796875 8.125 4.875 C8.29257812 5.75929688 8.46015625 6.64359375 8.6328125 7.5546875 C9 10 9 10 9 13 C7.02 13 5.04 13 3 13 C2.67 12.34 2.34 11.68 2 11 C2.66 11 3.32 11 4 11 C3.67 8.36 3.34 5.72 3 3 C1.68 3 0.36 3 -1 3 C-0.34 6.3 0.32 9.6 1 13 C-1.31 13 -3.62 13 -6 13 C-6 12.34 -6 11.68 -6 11 C-5.34 11 -4.68 11 -4 11 C-4 8.03 -4 5.06 -4 2 C-4.66 2 -5.32 2 -6 2 C-6 1.34 -6 0.68 -6 0 C-2.25 -1.125 -2.25 -1.125 0 0 Z " fill="#4FA940" transform="translate(48,105)"/>
<path d="M0 0 C2 3 2 3 1.875 6.5 C1 10 1 10 -0.75 11.9375 C-3.52291498 13.24693207 -4.97519717 13.60496057 -8 13 C-10.375 10.875 -10.375 10.875 -12 8 C-12.0625 4.875 -12.0625 4.875 -11 2 C-7.31298901 -1.2656383 -4.64091633 -1.44384063 0 0 Z M-6 1 C-6.66 1.66 -7.32 2.32 -8 3 C-7.67673447 6.59679066 -7.67673447 6.59679066 -7 10 C-5.05396726 10.59070014 -5.05396726 10.59070014 -3 11 C-1.58422523 9.81575674 -1.58422523 9.81575674 -1.9375 6.4375 C-1.958125 5.303125 -1.97875 4.16875 -2 3 C-3.32 2.34 -4.64 1.68 -6 1 Z " fill="#4FA940" transform="translate(84,105)"/>
<path d="M0 0 C1.9375 1.625 1.9375 1.625 3 4 C2.375 7.625 2.375 7.625 1 11 C-2 13 -2 13 -5.5625 12.8125 C-9 12 -9 12 -11 9 C-10.9375 5.5 -10.9375 5.5 -10 2 C-6.63554827 -0.99062376 -4.21654673 -1.66442634 0 0 Z M-6 1 C-7.41577477 2.18424326 -7.41577477 2.18424326 -7.0625 5.5625 C-7.041875 6.696875 -7.02125 7.83125 -7 9 C-4.525 9.99 -4.525 9.99 -2 11 C-1.23477199 7.64541845 -1.23477199 7.64541845 -1 4 C-2.16884106 1.99515224 -2.16884106 1.99515224 -4 1 C-4.66 1 -5.32 1 -6 1 Z " fill="#4FA940" transform="translate(38,105)"/>
</svg>
