<svg xmlns="http://www.w3.org/2000/svg" version="1.1" width="512" height="512">
<path d="M0 0 C1.0015638 -0.01270432 1.0015638 -0.01270432 2.02336121 -0.02566528 C4.21002761 -0.04888257 6.39598382 -0.05006101 8.58276367 -0.04882812 C10.1182228 -0.05594014 11.6536793 -0.06364064 13.18913269 -0.07189941 C16.40090324 -0.08531004 19.61242813 -0.08692903 22.82421875 -0.08105469 C26.91628727 -0.07516872 31.00716517 -0.10571887 35.09900379 -0.14617157 C38.26916217 -0.17217439 41.43903887 -0.17491458 44.60928917 -0.17127991 C46.11661451 -0.17296015 47.62395443 -0.18249587 49.13117409 -0.20042419 C57.93541535 -0.29361823 65.58257414 0.03704439 72.93823242 5.41992188 C78.7575018 11.44636191 80.19477216 18.43672469 80.1652832 26.7064209 C80.16558092 27.40575037 80.16587864 28.10507983 80.16618538 28.8256011 C80.16480502 31.15078719 80.14916068 33.47565061 80.13354492 35.80078125 C80.12970353 37.47516197 80.12677736 39.149545 80.12469482 40.82392883 C80.1183867 44.4208556 80.10587057 48.01768777 80.08856201 51.61457825 C80.06146082 57.30469041 80.0497171 62.99477142 80.0402832 68.68493652 C80.0162207 81.79008741 79.97209979 94.89515639 79.92782593 108.00025177 C79.88744587 120.0139456 79.85131406 132.02761198 79.8313961 144.04135942 C79.82144375 149.69530632 79.80174315 155.34910932 79.77453613 161.00299835 C79.7595952 164.52252127 79.75298131 168.04202454 79.74860382 171.56157494 C79.74486657 173.1905606 79.73767816 174.81954265 79.72673798 176.44849586 C79.71224596 178.67689606 79.71023295 180.90498328 79.71118164 183.13342285 C79.70674042 184.37889137 79.70229919 185.62435989 79.69772339 186.90756989 C80.0348709 191.83121336 81.0498312 197.30770075 83.93823242 201.41992188 C91.52476541 205.1257342 100.25529799 204.81948743 108.48901367 204.66992188 C109.74658981 204.65533936 111.00416595 204.64075684 112.29985046 204.62573242 C115.61040708 204.58068611 118.92021412 204.51937958 122.23040771 204.45379639 C124.92974649 204.40853694 127.6289504 204.39320317 130.32859516 204.37716675 C133.56994313 204.35152591 136.81059881 204.2899462 140.05151367 204.23242188 C141.25471756 204.22694336 142.45792145 204.22146484 143.69758606 204.21582031 C150.53802911 204.15828833 150.53802911 204.15828833 156.55615234 201.30664062 C161.10848353 195.78990761 162.31329424 191.05037963 162.31004333 183.98829651 C162.3138679 183.2733384 162.31769246 182.55838029 162.32163292 181.82175678 C162.33086443 179.44354948 162.3189608 177.06593261 162.30712891 174.68774414 C162.30959867 172.97557332 162.31343886 171.26340401 162.31854248 169.55123901 C162.32686412 165.87245704 162.32608681 162.19382994 162.31835747 158.51504707 C162.30675176 152.69436131 162.318956 146.87387383 162.3349762 141.0532074 C162.37113084 126.5970071 162.37740087 112.14081172 162.37487793 97.68457031 C162.37316589 86.44587912 162.38030883 75.20735039 162.41485649 63.96870464 C162.43162998 58.1861818 162.4298736 52.4040556 162.41403377 46.62153447 C162.40822752 43.01994347 162.41899349 39.41853964 162.4342804 35.81698227 C162.43799929 34.15134075 162.43491979 32.48566752 162.42440987 30.82005501 C162.3246471 13.87617118 162.3246471 13.87617118 168.64916992 6.39648438 C169.47288086 5.72746094 169.47288086 5.72746094 170.31323242 5.04492188 C170.8572168 4.5834375 171.40120117 4.12195313 171.96166992 3.64648438 C176.67776345 0.71989669 181.33570727 0.16265231 186.79467773 0.11352539 C187.45248734 0.10520187 188.11029694 0.09687836 188.78804016 0.08830261 C190.94754077 0.06434786 193.10673833 0.05544768 195.26635742 0.04882812 C196.7808236 0.03984926 198.29528893 0.03072721 199.80975342 0.02146912 C202.98036851 0.00501494 206.15087849 -0.00271419 209.3215332 -0.00561523 C213.36089906 -0.01098902 217.39926016 -0.0486415 221.43834305 -0.0943594 C224.56644184 -0.12427992 227.69430329 -0.13134205 230.82253265 -0.13234138 C232.31033672 -0.13651566 233.79814335 -0.14883633 235.28580475 -0.16985893 C244.11420433 -0.28466876 251.49716733 0.17610213 258.93823242 5.41992188 C261.19213867 7.77148437 261.19213867 7.77148437 262.50073242 10.04492188 C262.95577148 10.8003125 263.41081055 11.55570313 263.87963867 12.33398438 C265.98907935 16.49059441 266.06710581 19.80989997 266.07626343 24.42195129 C266.07908471 25.13898639 266.08190599 25.85602148 266.08481276 26.59478492 C266.09316303 29.00371189 266.09449738 31.41259293 266.09594727 33.8215332 C266.10061517 35.54621002 266.1057587 37.2708856 266.11134338 38.99555969 C266.122628 42.71310625 266.13106043 46.43064478 266.13746262 50.1482029 C266.14813682 56.02678545 266.16838007 61.90531034 266.19058228 67.78385925 C266.25252622 84.5014685 266.30652479 101.21907446 266.33959961 117.93676758 C266.35794148 127.16710145 266.38687162 136.39733884 266.42760432 145.6276018 C266.44868085 150.51267742 266.46413252 155.39763141 266.46641159 160.2827549 C266.46855815 164.87844735 266.4844283 169.47388655 266.51080132 174.06950188 C266.51799536 175.75531747 266.52009476 177.44116375 266.51669884 179.12699127 C266.51279999 181.4306074 266.52727118 183.73341633 266.54623413 186.03694153 C266.55119935 187.96962749 266.55119935 187.96962749 266.55626488 189.94135761 C267.11310058 195.01243973 268.66823554 198.09692817 272.18857193 201.76416779 C275.66281477 203.85624126 277.88804552 203.91691716 281.93280029 203.9119873 C282.62492623 203.91666629 283.31705216 203.92134528 284.03015161 203.92616606 C286.34331825 203.93707614 288.65539111 203.91962546 290.96850586 203.90234375 C292.62949952 203.90453022 294.29049164 203.90852789 295.95147705 203.91419983 C299.52612382 203.92276196 303.10047028 203.91898486 306.67510223 203.90577698 C312.33210564 203.88543086 317.98880675 203.89542256 323.64581299 203.91003418 C336.6802507 203.9390676 349.71459964 203.9283495 362.74905396 203.91733551 C374.68582602 203.90765383 386.6224401 203.9064255 398.55918527 203.93721628 C404.17754394 203.95056493 409.79544837 203.9446646 415.41377974 203.92385101 C418.91707746 203.91483939 422.42020169 203.92236251 425.9234848 203.93426323 C427.54194735 203.93638679 429.16043609 203.93171528 430.77885437 203.91955757 C448.75115138 203.7922162 448.75115138 203.7922162 455.80132675 210.08209991 C462.47067495 216.80828093 462.23197689 225.64180764 462.19892883 234.56491089 C462.20275438 235.66724977 462.20657993 236.76958864 462.2105214 237.90533173 C462.22081643 241.58846668 462.21686584 245.27144472 462.21289062 248.95458984 C462.21723903 251.59961461 462.22235838 254.24462798 462.2283783 256.88964844 C462.24110636 263.3222114 462.24292135 269.75473259 462.24057803 276.18730603 C462.23879258 281.41777422 462.24054938 286.64822976 462.24480247 291.87869644 C462.24539766 292.62407283 462.24599285 293.36944921 462.24660608 294.13741276 C462.24781787 295.65181318 462.24903201 297.1662136 462.25024845 298.68061401 C462.26111672 312.87234186 462.25896489 327.06404593 462.25286361 341.25577511 C462.24769519 354.22685945 462.25894916 367.19786867 462.27796183 380.16893815 C462.29735338 393.50113311 462.30559391 406.83329256 462.30183858 420.16550171 C462.29992852 427.64510771 462.30239504 435.12464977 462.31655312 442.60424423 C462.32848469 448.97181586 462.32985195 455.33928421 462.31776295 461.70685731 C462.31188663 464.95270643 462.31237711 468.19832849 462.32276535 471.44417191 C462.33323436 474.96994386 462.32513021 478.49521156 462.31245422 482.02096558 C462.31982851 483.03693624 462.32720279 484.05290691 462.33480054 485.09966457 C462.27849323 492.56527962 461.58138631 500.12076783 456.78198242 506.11132812 C456.00854492 506.72878906 455.23510742 507.34625 454.43823242 507.98242188 C453.66479492 508.62308594 452.89135742 509.26375 452.09448242 509.92382812 C448.03664664 512.73931925 444.20674479 512.56297255 439.46432781 512.55134964 C438.30698428 512.55442859 438.30698428 512.55442859 437.12626007 512.55756974 C434.51959767 512.56326114 431.91298774 512.56177986 429.30632019 512.56036377 C427.42709759 512.56294618 425.54787554 512.56595899 423.66865426 512.56936717 C418.48789559 512.57745498 413.30715076 512.57922773 408.12638652 512.57996464 C402.54549147 512.58181209 396.96460365 512.58935783 391.38371277 512.59609985 C379.17313415 512.60969605 366.9625588 512.61570981 354.75197387 512.62011051 C347.13206077 512.6228706 339.51214895 512.6271075 331.89223671 512.63161469 C310.80737864 512.64380872 289.72252142 512.65414337 268.63766003 512.65748978 C267.2739065 512.65771141 265.91015296 512.65793319 264.54639943 512.65815513 C263.17932951 512.65837577 261.81225958 512.65859625 260.44518965 512.65881658 C257.70255482 512.65925913 254.95991999 512.65970625 252.21728516 512.66015625 C251.5372701 512.66026564 250.85725505 512.66037503 250.15663347 512.66048774 C228.10178105 512.66411924 206.04696148 512.68004267 183.99212164 512.70334661 C160.68133916 512.72793266 137.370578 512.7416553 114.05977994 512.74285769 C101.34992095 512.7437756 88.64010497 512.7495569 75.9302578 512.76767731 C65.10924814 512.78305012 54.28829479 512.78821544 43.4672763 512.7799392 C37.94356788 512.77602277 32.41997295 512.77701063 26.89627838 512.79099655 C21.84251252 512.80367593 16.78894612 512.80259067 11.73518077 512.79040584 C9.90408375 512.78843846 8.07297287 512.79157492 6.24189534 512.8002502 C3.75757294 512.81127792 1.27396255 512.80390083 -1.21033955 512.79185867 C-1.92530144 512.79945387 -2.64026334 512.80704906 -3.37689075 512.81487441 C-9.40933885 512.75152108 -13.27150394 511.00201532 -17.74926758 507.04492188 C-23.52877322 500.48440195 -24.21351303 494.97539835 -24.19319534 486.44559956 C-24.19524798 485.64422555 -24.19730061 484.84285154 -24.19941545 484.01719347 C-24.20508793 481.32112406 -24.20362789 478.6251057 -24.20220947 475.92903137 C-24.20479296 473.98081185 -24.20780608 472.03259286 -24.21121287 470.08437461 C-24.21928798 464.72203043 -24.22107273 459.35969963 -24.22181034 453.9973501 C-24.22366 448.21736629 -24.23120688 442.43738945 -24.23794556 436.65740967 C-24.2515329 424.01487646 -24.25755419 411.37234643 -24.26195621 398.72980714 C-24.26471789 390.83748129 -24.26895509 382.94515667 -24.27346039 375.05283165 C-24.28565344 353.20614219 -24.29598815 331.35945389 -24.29933548 309.51276112 C-24.29955711 308.10014607 -24.2997789 306.68753102 -24.30000083 305.27491597 C-24.30022147 303.85890051 -24.30044195 302.44288505 -24.30066228 301.0268696 C-24.30110483 298.18612595 -24.30155195 295.34538231 -24.30200195 292.50463867 C-24.30211134 291.8003001 -24.30222073 291.09596153 -24.30233344 290.37027936 C-24.30596405 267.53222191 -24.32188453 244.6941962 -24.34519232 221.8561509 C-24.36979264 197.70744646 -24.38350169 173.55876029 -24.3847034 149.41004294 C-24.38562054 136.24736684 -24.39138273 123.0847323 -24.40952301 109.92206764 C-24.42491446 98.71438262 -24.43005007 87.506752 -24.42178491 76.29905841 C-24.41787508 70.58041634 -24.41882436 64.86188386 -24.43284225 59.14325523 C-24.44556091 53.90678726 -24.44440144 48.67051148 -24.43225154 43.43404385 C-24.43029103 41.54102473 -24.43338929 39.64799209 -24.44209591 37.75499199 C-24.54315103 14.29572399 -24.54315103 14.29572399 -17.81176758 6.98242188 C-17.27036133 6.36496094 -16.72895508 5.7475 -16.17114258 5.11132812 C-11.17836353 1.107859 -6.28466458 0.0441728 0 0 Z M273.93823242 320.41992188 C270.31286049 325.45516067 268.81915719 328.7981161 268.77709961 334.97363281 C268.76749207 336.11201599 268.75788452 337.25039917 268.74798584 338.42327881 C268.74373596 339.65451477 268.73948608 340.88575073 268.73510742 342.15429688 C268.72940735 343.42082092 268.72370728 344.68734497 268.71783447 345.99224854 C268.70837975 348.67553296 268.70148556 351.35870542 268.69799805 354.04199219 C268.69252636 357.46605521 268.66852349 360.88971797 268.64002609 364.31365585 C268.61681905 367.59383886 268.61494425 370.87404329 268.61010742 374.15429688 C268.59776062 375.37743591 268.58541382 376.60057495 268.57269287 377.86077881 C268.59781918 387.49731032 270.31503281 393.42756775 276.91088867 400.62304688 C284.65186257 407.48402567 294.46195554 407.57636475 304.27026367 407.58789062 C305.75703865 407.59288322 305.75703865 407.59288322 307.27384949 407.59797668 C309.36582985 407.60302632 311.45781823 407.60538562 313.54980469 407.60522461 C316.72954773 407.60740733 319.90894146 407.6255738 323.08862305 407.64453125 C325.12833541 407.64746643 327.16804941 407.64945039 329.20776367 407.65039062 C330.14868362 407.65757614 331.08960358 407.66476166 332.05903625 407.67216492 C343.17939125 407.63418858 351.73981516 405.61833913 359.75073242 397.60742188 C365.06863761 389.85847432 365.40538197 382.89616288 365.40698242 373.74023438 C365.41459595 372.53229218 365.42220947 371.32434998 365.43005371 370.07980347 C365.44082427 367.53320373 365.44372027 364.98655993 365.43920898 362.43994141 C365.43823721 358.56402204 365.47988821 354.69008693 365.52416992 350.81445312 C365.52937799 348.3313843 365.5320651 345.84830866 365.53198242 343.36523438 C365.54837769 342.21701202 365.56477295 341.06878967 365.58166504 339.88577271 C365.50974151 331.42549548 363.7918555 324.63938842 357.97766113 318.27322388 C350.14958762 310.703532 341.91950981 309.95303249 331.47729492 309.95117188 C330.29154877 309.94355835 329.10580261 309.93594482 327.88412476 309.92810059 C325.38460386 309.91733131 322.88503807 309.91443351 320.38549805 309.91894531 C316.58199263 309.91991708 312.78050936 309.87826501 308.97729492 309.83398438 C306.53979909 309.82877626 304.10229631 309.8260892 301.66479492 309.82617188 C300.53844635 309.80977661 299.41209778 309.79338135 298.25161743 309.77648926 C288.41571806 309.86166532 280.36818009 312.66616145 273.93823242 320.41992188 Z " fill="#FF6500" transform="translate(37.061767578125,-0.419921875)"/>
</svg>
