<svg xmlns="http://www.w3.org/2000/svg" version="1.1" width="96" height="96">
<path d="M0 0 C3.43653537 1.26031281 6.23330458 2.69743622 9.1796875 4.86328125 C9.94410156 5.42080078 10.70851562 5.97832031 11.49609375 6.55273438 C12.28113281 7.13345703 13.06617188 7.71417969 13.875 8.3125 C16.19596788 10.01184879 18.51687077 11.71088658 20.84643555 13.3984375 C22.21022407 14.41265955 23.54945152 15.46153638 24.85083008 16.5546875 C28.04472089 19.15359795 29.73499862 19.99416413 33.90234375 20.0859375 C35.25229152 19.87865689 36.59790691 19.6411101 37.9375 19.375 C39.27994792 19.15364583 40.62239583 18.93229167 41.96484375 18.7109375 C42.5487085 18.60056152 43.13257324 18.49018555 43.73413086 18.37646484 C47.14325131 17.81005349 50.56950023 17.41699645 54 17 C54.30290555 24.76242354 54.53301598 32.52343365 54.67355824 40.29030323 C54.74106547 43.89839452 54.83236685 47.50240999 54.98071289 51.1081543 C55.99434551 76.39226369 55.99434551 76.39226369 51.19995117 82.25439453 C48.11867254 85.15751464 44.72002099 87.01735453 41 89 C38.5692631 91.15095732 38.5692631 91.15095732 36.6875 93.25 C35.07421875 94.953125 35.07421875 94.953125 33 96 C27.54991566 95.56520123 22.6228954 94.45398331 17.4375 92.71484375 C16.76074219 92.49429825 16.08398438 92.27375275 15.38671875 92.04652405 C13.25551887 91.350292 11.12778039 90.64410463 9 89.9375 C7.54318719 89.45962003 6.08615756 88.9824005 4.62890625 88.50585938 C1.08340226 87.34485305 -2.45907339 86.17490336 -6 85 C-6 88.63 -6 92.26 -6 96 C-10.20403701 92.92258442 -13.1377849 89.54215348 -16.25 85.4375 C-17.22394006 84.1900899 -18.19789863 82.94269425 -19.171875 81.6953125 C-20.93885991 79.40869609 -22.65477805 77.09796899 -24.328125 74.7421875 C-25.04484375 73.77539062 -25.7615625 72.80859375 -26.5 71.8125 C-27.1084375 70.95269531 -27.716875 70.09289062 -28.34375 69.20703125 C-32.36340154 65.86717372 -36.96398077 65.09110104 -42 64 C-42.20034253 59.92957924 -42.34409294 55.86112908 -42.43945312 51.78686523 C-42.47926441 50.40647313 -42.53354106 49.0264089 -42.60351562 47.6472168 C-43.03548109 38.90309232 -42.5695509 32.21914951 -36.79003906 25.35229492 C-31.15280484 20.59951651 -24.48012822 18.30534276 -17.625 15.8125 C-16.13553615 15.2393922 -14.64724057 14.6632385 -13.16015625 14.08398438 C-2.55353156 10 -2.55353156 10 0 10 C0 6.7 0 3.4 0 0 Z M23.68579102 22.99389648 C22.55113907 23.21089706 21.41648712 23.42789764 20.24745178 23.651474 C18.39439674 24.00768578 18.39439674 24.00768578 16.50390625 24.37109375 C15.24488998 24.61287857 13.98587372 24.85466339 12.68870544 25.10377502 C10.01946 25.61670421 7.35038704 26.1305217 4.68139648 26.64477539 C1.25747114 27.30427784 -2.16713611 27.96016524 -5.59191799 28.6152029 C-8.8521403 29.23958905 -12.11155973 29.86812447 -15.37109375 30.49609375 C-17.22111244 30.84926918 -17.22111244 30.84926918 -19.10850525 31.20957947 C-20.24630936 31.42973221 -21.38411346 31.64988495 -22.55639648 31.87670898 C-23.56153793 32.06990219 -24.56667938 32.2630954 -25.60227966 32.46214294 C-27.9973276 32.89841527 -27.9973276 32.89841527 -30 34 C-30 44.56 -30 55.12 -30 66 C-22.77442122 66.91368609 -15.54881121 67.82690481 -8.32260132 68.73554993 C-4.95741618 69.15883681 -1.59234631 69.5829961 1.77246094 70.00927734 C5.63442322 70.49850133 9.4968824 70.98372993 13.359375 71.46875 C14.5636615 71.62186646 15.767948 71.77498291 17.00872803 71.93273926 C18.69001801 72.14295715 18.69001801 72.14295715 20.40527344 72.35742188 C21.39122498 72.48177612 22.37717651 72.60613037 23.39300537 72.73425293 C26.22647906 73.06760711 26.22647906 73.06760711 30 73 C30 56.17 30 39.34 30 22 C27.88699558 22 25.7489365 22.59866981 23.68579102 22.99389648 Z " fill="#0074D1" transform="translate(42,0)"/>
</svg>
