<svg xmlns="http://www.w3.org/2000/svg" viewBox="0 0 96 96" fill="none">
  <defs>
    <linearGradient id="azureGradient1" x1="0%" y1="0%" x2="100%" y2="100%">
      <stop offset="0%" style="stop-color:#114A8B;stop-opacity:1" />
      <stop offset="100%" style="stop-color:#0078D4;stop-opacity:1" />
    </linearGradient>
    <linearGradient id="azureGradient2" x1="0%" y1="0%" x2="100%" y2="100%">
      <stop offset="0%" style="stop-color:#0078D4;stop-opacity:1" />
      <stop offset="100%" style="stop-color:#50E6FF;stop-opacity:1" />
    </linearGradient>
  </defs>
  <!-- Parte esquerda do "A" (azul escuro) -->
  <path d="M31.8 11.2L10.4 74.9c-.7 2.1.9 4.3 3.1 4.3h21.2c1.4 0 2.6-.9 3-2.2L59 11.9c.8-2.3-.8-4.7-3.2-4.7H35.1c-1.5 0-2.8 1-3.3 2z" fill="url(#azureGradient1)"/>
  <!-- Parte direita do "A" (azul claro) -->
  <path d="M72.5 68.6H45.9c-1.8 0-2.8 2.1-1.7 3.5l18.9 24.3c.8 1 2.3 1 3.1 0l20.5-26.3c1-1.3 0-3.2-1.6-3.5-3.6-.5-7.9-1.3-12.6-2z" fill="url(#azureGradient2)"/>
  <!-- Barra horizontal do "A" -->
  <path d="M56.5 52.6c-4.2 0-7.6-3.4-7.6-7.6V38h22.8v7c0 4.2-3.4 7.6-7.6 7.6H56.5z" fill="#50E6FF" opacity="0.8"/>
</svg>
