<?xml version="1.0" encoding="UTF-8"?>
<svg version="1.1" xmlns="http://www.w3.org/2000/svg" width="100" height="100">
<path d="M0 0 C2.12254922 -0.00971307 4.24413288 -0.04073989 6.36645508 -0.07226562 C7.71475662 -0.07879517 9.06306508 -0.08404584 10.41137695 -0.08789062 C12.25397095 -0.10190918 12.25397095 -0.10190918 14.13378906 -0.11621094 C17.60407961 0.28766504 18.09745597 0.59956823 20.1965332 3.24023438 C21.21372986 5.57702637 21.21372986 5.57702637 22.12597656 8.36328125 C22.47321274 9.40867065 22.82044891 10.45406006 23.1782074 11.53112793 C23.54390335 12.66232056 23.9095993 13.79351318 24.28637695 14.95898438 C24.67217422 16.12723755 25.0579715 17.29549072 25.45545959 18.49914551 C26.48121948 21.60984442 27.49932134 24.72290885 28.51348877 27.83740234 C29.93395143 32.19309664 31.36890573 36.54404484 32.80189514 40.89562988 C33.56268124 43.20876352 34.32084245 45.52276273 35.07591248 47.83776855 C37.06764461 53.92347841 39.15634637 59.95004331 41.43336487 65.9354248 C42.3906013 68.8263305 42.66022158 71.22625992 42.1965332 74.24023438 C38.50800208 77.9287655 32.26382788 76.73402055 27.24047852 76.77563477 C25.09871708 76.80239473 22.96203434 76.87720843 20.8215332 76.953125 C9.31593335 77.17319725 9.31593335 77.17319725 4.4465332 72.94726562 C3.32967747 71.74180213 2.24084002 70.50906542 1.1965332 69.24023438 C0.45661133 68.5209375 -0.28331055 67.80164063 -1.0456543 67.06054688 C-1.58448242 66.50109375 -2.12331055 65.94164063 -2.6784668 65.36523438 C-4.99038614 62.96504285 -4.99038614 62.96504285 -7.8034668 61.24023438 C-7.92463867 61.83191406 -8.04581055 62.42359375 -8.1706543 63.03320312 C-9.99043564 71.61417205 -9.99043564 71.61417205 -11.8034668 75.24023438 C-15.69038628 77.18369411 -20.52861261 76.4250424 -24.8034668 76.42773438 C-25.82698242 76.43998047 -26.85049805 76.45222656 -27.9050293 76.46484375 C-29.37069336 76.46774414 -29.37069336 76.46774414 -30.8659668 76.47070312 C-31.76444336 76.47481201 -32.66291992 76.4789209 -33.58862305 76.4831543 C-35.8034668 76.24023438 -35.8034668 76.24023438 -37.8034668 74.24023438 C-37.51605433 67.26328599 -35.71788115 61.23028206 -33.41674805 54.67773438 C-33.07725632 53.68757324 -32.73776459 52.69741211 -32.38798523 51.67724609 C-31.30600604 48.52849989 -30.2111771 45.38439962 -29.1159668 42.24023438 C-28.39963199 40.16109652 -27.68413025 38.08167144 -26.96948242 36.00195312 C-25.24995191 31.00521777 -23.51303709 26.01473927 -21.77081299 21.02587891 C-20.84146579 18.34965921 -19.92652122 15.66895816 -19.01586914 12.98632812 C-18.48028546 11.42510933 -17.94464482 9.86391008 -17.40893555 8.30273438 C-17.17153152 7.59262207 -16.9341275 6.88250977 -16.68952942 6.15087891 C-13.8762221 -1.98076434 -7.52742309 0.02090225 0 0 Z M1.1965332 34.24023438 C0.5243297 36.17582037 -0.14104757 38.11377809 -0.8034668 40.05273438 C-1.1747168 41.13167969 -1.5459668 42.210625 -1.9284668 43.32226562 C-2.94708192 46.21144239 -2.94708192 46.21144239 -2.8034668 49.24023438 C0.4965332 49.24023438 3.7965332 49.24023438 7.1965332 49.24023438 C6.10919868 44.11422877 4.97015828 39.1810471 3.1965332 34.24023438 C2.5365332 34.24023438 1.8765332 34.24023438 1.1965332 34.24023438 Z " fill="#0B59A3" transform="translate(47.803466796875,11.759765625)"/>
<path d="M0 0 C4.43737712 -0.08690253 8.87453634 -0.14035926 13.3125 -0.1875 C14.57513672 -0.21263672 15.83777344 -0.23777344 17.13867188 -0.26367188 C18.34716797 -0.27333984 19.55566406 -0.28300781 20.80078125 -0.29296875 C21.91622314 -0.3086792 23.03166504 -0.32438965 24.1809082 -0.34057617 C27.4701063 0.05679382 27.97895953 0.48292284 30 3 C31.01719666 5.33679199 31.01719666 5.33679199 31.92944336 8.12304688 C32.27667953 9.16843628 32.62391571 10.21382568 32.98167419 11.29089355 C33.34737015 12.42208618 33.7130661 13.55327881 34.08984375 14.71875 C34.47564102 15.88700317 34.86143829 17.05525635 35.25892639 18.25891113 C36.28468628 21.36961005 37.30278814 24.48267447 38.31695557 27.59716797 C39.73741823 31.95286227 41.17237252 36.30381046 42.60536194 40.65539551 C43.36614803 42.96852914 44.12430925 45.28252836 44.87937927 47.59753418 C46.87111141 53.68324403 48.95981317 59.70980894 51.23683167 65.69519043 C52.1940681 68.58609613 52.46368838 70.98602555 52 74 C50 76 50 76 47.47802734 76.13525391 C46.4411377 76.08288574 45.40424805 76.03051758 44.3359375 75.9765625 C43.21445313 75.925 42.09296875 75.8734375 40.9375 75.8203125 C39.761875 75.75585938 38.58625 75.69140625 37.375 75.625 C35.59996094 75.53992188 35.59996094 75.53992188 33.7890625 75.453125 C30.85878888 75.31133757 27.92933228 75.15989667 25 75 C24.89300781 73.85273437 24.78601563 72.70546875 24.67578125 71.5234375 C24.10364851 66.96841919 22.78184584 62.91351337 21.1875 58.625 C20.8152832 57.58859375 20.8152832 57.58859375 20.43554688 56.53125 C19.05979799 52.73656351 17.58840061 48.99583854 16.046875 45.265625 C13.22964401 38.27265105 11.211589 31.0351265 9.08789062 23.80859375 C6.63722554 15.63971014 3.82115802 7.64231604 0 0 Z " fill="#31AEE9" transform="translate(38,12)"/>
<path d="M0 0 C7.92 0 15.84 0 24 0 C28.95535714 11.65178571 28.95535714 11.65178571 30.875 16.9375 C31.11992188 17.60652344 31.36484375 18.27554688 31.6171875 18.96484375 C32 21 32 21 31 26 C36.61 26 42.22 26 48 26 C48 26.33 48 26.66 48 27 C44.33417393 27.20521049 40.6698406 27.32825201 37 27.4375 C35.97003906 27.49615234 34.94007812 27.55480469 33.87890625 27.61523438 C28.54888443 27.73405652 24.94513288 27.58536205 20.8125 24.01953125 C19.5207374 22.69985401 18.25068965 21.35866627 17 20 C15.50472178 18.5627796 14.00455754 17.13062843 12.5 15.703125 C10.99737562 14.2214067 9.49738918 12.73700867 8 11.25 C7.22527344 10.49589844 6.45054688 9.74179688 5.65234375 8.96484375 C4.92144531 8.23910156 4.19054688 7.51335937 3.4375 6.765625 C2.77621094 6.11368164 2.11492188 5.46173828 1.43359375 4.79003906 C0 3 0 3 0 0 Z " fill="#0176D0" transform="translate(32,61)"/>
<path d="M0 0 C3.7530135 1.87650675 4.37345711 7.02310579 5.6875 10.8125 C6.02072266 11.72837891 6.35394531 12.64425781 6.69726562 13.58789062 C7.00728516 14.47283203 7.31730469 15.35777344 7.63671875 16.26953125 C7.92248779 17.08010986 8.20825684 17.89068848 8.50268555 18.72583008 C9.05311529 21.242891 8.95674637 22.61980974 8 25 C7.34 25.33 6.68 25.66 6 26 C4.01639997 19.04417588 2.33424286 12.1078756 1 5 C0.66846284 3.33297511 0.33559752 1.66621223 0 0 Z " fill="#066DB9" transform="translate(55,61)"/>
</svg>
