<svg xmlns="http://www.w3.org/2000/svg" version="1.1" width="264" height="512">
<path d="M0 0 C23.1 0 46.2 0 70 0 C70.0093457 5.37418213 70.01869141 10.74836426 70.02832031 16.28540039 C70.06212896 34.06702786 70.11750022 51.8485403 70.18390274 69.6300745 C70.22362783 80.40808915 70.25605342 91.18603147 70.27099609 101.96411133 C70.28404653 111.36373759 70.3110974 120.76320428 70.35461307 130.16274065 C70.37715179 135.13480166 70.39291526 140.10666641 70.39188385 145.07878304 C70.39113273 149.76974523 70.40926323 154.46027483 70.44116783 159.15112495 C70.44960628 160.86217777 70.45145853 162.57327945 70.44580269 164.28434372 C70.39461831 182.16710494 73.67578167 199.97008653 86.43359375 213.52734375 C99.74930794 226.04610746 116.91999678 232 135 232 C149.79262159 230.93266315 164.40959798 225.61367763 175 215 C175.66 215 176.32 215 177 215 C177.27199219 214.41347656 177.54398438 213.82695312 177.82421875 213.22265625 C178.97719136 211.04311667 180.25442289 209.34090291 181.8125 207.4375 C194.23566025 191.04498855 194.13244802 170.84578621 194.20532227 151.21582031 C194.21492244 149.55889656 194.22493369 147.90197515 194.23532104 146.24505615 C194.26214477 141.78311425 194.28327498 137.32116202 194.30332303 132.85918522 C194.32532311 128.18269575 194.35264261 123.5062373 194.37937927 118.82977295 C194.42911791 109.99036419 194.47412589 101.15093804 194.51740164 92.31149554 C194.56693585 82.24125534 194.6217935 72.17104628 194.67708123 62.10083628 C194.7906119 41.40058526 194.89681036 20.70030533 195 0 C217.77 0 240.54 0 264 0 C264.09056307 24.8013939 264.1641343 49.60265232 264.20724869 74.40417004 C264.22780638 85.92193237 264.25579594 97.43958409 264.30175781 108.95727539 C264.34183478 119.0051115 264.36748207 129.05286743 264.37635398 139.10078126 C264.38153366 144.41290716 264.3935634 149.72480383 264.42292023 155.0368557 C264.45042031 160.05440771 264.45837647 165.07163987 264.45243073 170.0892601 C264.45351572 171.9139347 264.4612608 173.73862195 264.4768219 175.56323051 C264.69973617 203.09161452 258.30847638 230.66564573 240 252 C238.98292969 253.21623047 238.98292969 253.21623047 237.9453125 254.45703125 C221.56231324 273.43449124 199.23451226 285.4033783 175.25 291.875 C174.54319092 292.06618408 173.83638184 292.25736816 173.1081543 292.4543457 C160.27351542 295.65755284 147.40737463 296.35041491 134.24951172 296.31567383 C131.76615117 296.31252051 129.28399536 296.3360593 126.80078125 296.36132812 C109.25019302 296.43095613 92.60596197 293.66084731 76 288 C75.3611084 287.78504883 74.7222168 287.57009766 74.06396484 287.34863281 C47.74680478 278.28029386 24.31027645 258.79631623 11.78027344 233.88989258 C8.70683377 227.50631468 6.16177834 221.036161 4.125 214.25 C3.93389648 213.61416992 3.74279297 212.97833984 3.54589844 212.32324219 C-0.00398758 199.5732886 -0.28205406 186.92614555 -0.22705078 173.80737305 C-0.22648556 171.90400193 -0.22680539 170.00063038 -0.22793579 168.09725952 C-0.22850597 162.96798873 -0.21680622 157.83881285 -0.20278788 152.70956397 C-0.19022436 147.33509292 -0.18910561 141.96061933 -0.18673706 136.58613586 C-0.18053874 126.42570696 -0.16415035 116.26532147 -0.14403808 106.10491163 C-0.12162762 94.53047128 -0.11067274 82.95602879 -0.10064721 71.38157213 C-0.07978256 47.5876852 -0.04312705 23.79385771 0 0 Z " fill="#000000" transform="translate(0,216)"/>
<path d="M0 0 C2.65527344 1.25244141 2.65527344 1.25244141 5.359375 2.8515625 C6.88884766 3.74584961 6.88884766 3.74584961 8.44921875 4.65820312 C10.08310547 5.63176758 10.08310547 5.63176758 11.75 6.625 C12.90697352 7.30502178 14.06453713 7.98404047 15.22265625 8.66210938 C17.62665148 10.07067324 20.02805773 11.48350641 22.42773438 12.89941406 C27.9283488 16.14016978 33.46603409 19.31666323 39 22.5 C41.16684034 23.74969892 43.3335065 24.99969989 45.5 26.25 C46.5725 26.86875 47.645 27.4875 48.75 28.125 C52 30 55.25 31.875 58.5 33.75 C59.57266113 34.36883057 60.64532227 34.98766113 61.75048828 35.62524414 C63.91557071 36.87435518 66.08060982 38.12354129 68.24560547 39.37280273 C73.68615706 42.51202309 79.12747216 45.64990563 84.5703125 48.78515625 C85.66859375 49.41808594 86.766875 50.05101562 87.8984375 50.703125 C89.9215791 51.86900321 91.94497682 53.03443721 93.96875 54.19921875 C96.00436559 55.37256286 98.0157016 56.58859983 100.00683594 57.8359375 C103.24374776 59.74513726 106.55358895 60.93456176 110.09472656 62.1796875 C117.13295356 64.96268568 123.37360727 67.81542703 128 74 C132.35952412 85.27779927 130.34775 99.3360086 129.64794922 111.11914062 C129.40046038 115.72913073 129.29242875 120.34228643 129.171875 124.95703125 C128.91596726 133.979688 128.50763984 142.98824179 128 152 C126.25347853 151.04756421 124.50698291 150.09508103 122.76049805 149.14257812 C121.7879155 148.61216919 120.81533295 148.08176025 119.8132782 147.53527832 C107.96374617 141.06868371 96.23573862 134.42164761 84.58911133 127.59570312 C76.7563702 123.00996465 68.88641378 118.49244411 61 114 C52.26577867 109.02302187 43.55410983 104.01022173 34.875 98.9375 C33.91940186 98.38191406 32.96380371 97.82632813 31.97924805 97.25390625 C27.20367021 94.47445671 22.44410092 91.67259869 17.71490479 88.81507874 C15.3330134 87.37952338 12.94271359 85.95835524 10.55108643 84.53909302 C8.84707437 83.52066391 7.15458058 82.48304126 5.46240234 81.44506836 C3.91286865 80.52866577 3.91286865 80.52866577 2.33203125 79.59375 C1.42171143 79.04396484 0.5113916 78.49417969 -0.42651367 77.92773438 C-2.96402106 76.73816569 -2.96402106 76.73816569 -5.49829102 77.65625 C-6.32385498 78.0996875 -7.14941895 78.543125 -8 79 C-8.85561523 79.44666016 -9.71123047 79.89332031 -10.59277344 80.35351562 C-11.96224121 81.12211914 -11.96224121 81.12211914 -13.359375 81.90625 C-14.38345459 82.47980225 -15.40753418 83.05335449 -16.46264648 83.64428711 C-17.54747314 84.25667236 -18.6322998 84.86905762 -19.75 85.5 C-20.87672119 86.13365479 -22.00344238 86.76730957 -23.16430664 87.42016602 C-29.95517743 91.25000564 -36.70984746 95.13335601 -43.4152832 99.1105957 C-49.72724525 102.85304663 -56.07941601 106.52403479 -62.4375 110.1875 C-63.54472412 110.82550537 -64.65194824 111.46351074 -65.79272461 112.12084961 C-68.06337068 113.42889477 -70.33412358 114.73675448 -72.60498047 116.04443359 C-76.9959595 118.57368298 -81.3852057 121.10592822 -85.77416992 123.63867188 C-87.91863655 124.87604519 -90.06332934 126.11302664 -92.20825195 127.34960938 C-97.25408052 130.25894349 -102.29815956 133.17118476 -107.33599854 136.09432983 C-109.11680001 137.1274294 -110.89815858 138.15956171 -112.6796875 139.19140625 C-114.91257083 140.48506088 -117.1444091 141.78052164 -119.375 143.078125 C-120.38820313 143.66464844 -121.40140625 144.25117188 -122.4453125 144.85546875 C-123.32719238 145.36746826 -124.20907227 145.87946777 -125.11767578 146.40698242 C-128.68725998 148.37983833 -132.35208643 150.17604321 -136 152 C-136 126.26 -136 100.52 -136 74 C-126.76 68.72 -117.52 63.44 -108 58 C-99.0601996 52.78518757 -99.0601996 52.78518757 -90.125 47.5625 C-83.44189714 43.66402333 -76.72221909 39.83041599 -70 36 C-61.26595304 31.02271661 -52.55398267 26.01044679 -43.875 20.9375 C-42.91867676 20.38118896 -41.96235352 19.82487793 -40.97705078 19.25170898 C-36.2131968 16.4779153 -31.46325674 13.68428092 -26.74069214 10.84086609 C-24.36805418 9.41578553 -21.98765444 8.00400323 -19.60601807 6.59402466 C-17.91365069 5.58553219 -16.23181581 4.55943125 -14.55029297 3.53295898 C-13.52049316 2.92524658 -12.49069336 2.31753418 -11.4296875 1.69140625 C-10.52460449 1.14685791 -9.61952148 0.60230957 -8.68701172 0.04125977 C-5.27613955 -1.28050743 -3.49844426 -0.98851722 0 0 Z " fill="#A434F0" transform="translate(136,1)"/>
</svg>