<svg xmlns="http://www.w3.org/2000/svg" version="1.1" width="102" height="102">
<path d="M0 0 C25.74 0 51.48 0 78 0 C78 23.1 78 46.2 78 70 C71.73 72.31 65.46 74.62 59 77 C57.28941406 77.88171875 55.57882813 78.7634375 53.81640625 79.671875 C44.93106641 84.23943926 38.16386741 84.55962087 28.734375 81.578125 C18.99725578 78.31982736 9.19170766 74.59585383 0 70 C0 46.9 0 23.8 0 0 Z " fill="#EDE2E8" transform="translate(12,9)"/>
<path d="M0 0 C25.74 0 51.48 0 78 0 C78 23.1 78 46.2 78 70 C71.73 72.31 65.46 74.62 59 77 C57.28941406 77.88171875 55.57882813 78.7634375 53.81640625 79.671875 C44.93106641 84.23943926 38.16386741 84.55962087 28.734375 81.578125 C18.99725578 78.31982736 9.19170766 74.59585383 0 70 C0 46.9 0 23.8 0 0 Z M2 3 C2 21.15 2 39.3 2 58 C9.92 58.33 17.84 58.66 26 59 C24.515 59.495 24.515 59.495 23 60 C23.33 61.65 23.66 63.3 24 65 C24.94875 64.95875 25.8975 64.9175 26.875 64.875 C30 65 30 65 32 67 C34.82870249 67.31991706 34.82870249 67.31991706 38 67.25 C39.0725 67.25515625 40.145 67.2603125 41.25 67.265625 C44.14362178 67.28027649 44.14362178 67.28027649 46 65 C46.99 65 47.98 65 49 65 C49 63.35 49 61.7 49 60 C44.89776415 58.98459888 44.89776415 58.98459888 41 60 C41 61.98 41 63.96 41 66 C40 65 40 65 39.9375 62.4375 C39.958125 61.633125 39.97875 60.82875 40 60 C39.34 60 38.68 60 38 60 C37.67 60.99 37.34 61.98 37 63 C36.67 62.01 36.34 61.02 36 60 C32.88214887 60.64644661 32.88214887 60.64644661 32 63 C31.505 60.525 31.505 60.525 31 58 C45.85 58 60.7 58 76 58 C76 39.85 76 21.7 76 3 C51.58 3 27.16 3 2 3 Z " fill="#EC64A3" transform="translate(12,9)"/>
<path d="M0 0 C23.43 0 46.86 0 71 0 C67.23803476 3.76196524 61.4075189 4.76523456 56.41625977 6.42333984 C54.33378521 7.11790081 52.25779607 7.82977616 50.18164062 8.54296875 C48.84671478 8.99066005 47.51143839 9.43730773 46.17578125 9.8828125 C44.96833252 10.28902832 43.76088379 10.69524414 42.5168457 11.11376953 C35.84495559 12.79505805 30.67929234 11.90003256 24.31640625 9.59375 C23.61603745 9.34959351 22.91566864 9.10543701 22.19407654 8.85388184 C19.97983774 8.07937544 17.77125423 7.28999415 15.5625 6.5 C14.05308429 5.96905626 12.54332142 5.43909837 11.03320312 4.91015625 C7.35135706 3.61813377 3.67450294 2.31275323 0 1 C0 0.67 0 0.34 0 0 Z " fill="#F2F0F2" transform="translate(15,77)"/>
<path d="M0 0 C24.42 0 48.84 0 74 0 C74 18.15 74 36.3 74 55 C59.15 55 44.3 55 29 55 C29.33 56.65 29.66 58.3 30 60 C30.66 59.01 31.32 58.02 32 57 C32.66 57 33.32 57 34 57 C34.33 57.99 34.66 58.98 35 60 C35.33 59.01 35.66 58.02 36 57 C36.66 57 37.32 57 38 57 C37.979375 57.804375 37.95875 58.60875 37.9375 59.4375 C37.70366379 61.93354885 37.70366379 61.93354885 39 63 C39 61.02 39 59.04 39 57 C44.75 55.875 44.75 55.875 47 57 C47 58.65 47 60.3 47 62 C45.68 62 44.36 62 43 62 C42.505 62.99 42.505 62.99 42 64 C40.06280622 64.05406122 38.12518079 64.09282025 36.1875 64.125 C35.10855469 64.14820312 34.02960937 64.17140625 32.91796875 64.1953125 C30 64 30 64 27 62 C24.37468476 61.83286431 24.37468476 61.83286431 22 62 C21.505 59.525 21.505 59.525 21 57 C22.485 56.505 22.485 56.505 24 56 C16.08 55.67 8.16 55.34 0 55 C0 54.67 0 54.34 0 54 C24.09 54 48.18 54 73 54 C73 36.51 73 19.02 73 1 C49.24 1 25.48 1 1 1 C1 5.29 1 9.58 1 14 C0.67 14 0.34 14 0 14 C0 9.38 0 4.76 0 0 Z " fill="#EAC5D5" transform="translate(14,12)"/>
<path d="M0 0 C0 0.99 0 1.98 0 3 C-17.05515538 11.3070053 -33.17032971 19.06290519 -52.0222168 12.67089844 C-59.5542301 9.85344832 -66.81095222 6.59452389 -74 3 C-74 2.34 -74 1.68 -74 1 C-65.61484643 2.66302628 -57.74883512 5.38820795 -49.70703125 8.25390625 C-48.68738281 8.60582031 -47.66773437 8.95773438 -46.6171875 9.3203125 C-45.70565918 9.64273926 -44.79413086 9.96516602 -43.85498047 10.29736328 C-37.31700473 11.90641871 -32.05729321 10.69470318 -25.87890625 8.59375 C-25.13414536 8.34959351 -24.38938446 8.10543701 -23.62205505 7.85388184 C-21.26555242 7.07890039 -18.91409654 6.28972784 -16.5625 5.5 C-14.95669336 4.96910397 -13.35057612 4.43914641 -11.74414062 3.91015625 C-7.82575171 2.61759619 -3.91182129 1.31229563 0 0 Z " fill="#E265A0" transform="translate(88,77)"/>
<path d="M0 0 C4.33333333 0 8.66666667 0 13 0 C13.33 1.65 13.66 3.3 14 5 C13.01 5.495 13.01 5.495 12 6 C25.86 6.495 25.86 6.495 40 7 C40 7.33 40 7.66 40 8 C20.86 8 1.72 8 -18 8 C-18 7.67 -18 7.34 -18 7 C-9.585 6.505 -9.585 6.505 -1 6 C-1 4.35 -1 2.7 -1 1 C-0.67 0.67 -0.34 0.34 0 0 Z " fill="#C7C0C7" transform="translate(40,35)"/>
<path d="M0 0 C5.66666667 0 11.33333333 0 17 0 C17 3.3 17 6.6 17 10 C13.719521 10.82011975 11.31721288 11.16221637 8 11.1875 C7.154375 11.20167969 6.30875 11.21585938 5.4375 11.23046875 C2.84591384 10.98543096 1.22975008 10.30584901 -1 9 C-0.67 8.34 -0.34 7.68 0 7 C0.99 7.33 1.98 7.66 3 8 C4.56118428 8.06740865 6.1250252 8.08514456 7.6875 8.0625 C8.49574219 8.05347656 9.30398437 8.04445313 10.13671875 8.03515625 C10.75160156 8.02355469 11.36648437 8.01195312 12 8 C11.67 6.35 11.34 4.7 11 3 C11 3.99 11 4.98 11 6 C9.35 6 7.7 6 6 6 C5.67 5.34 5.34 4.68 5 4 C4.67 4.66 4.34 5.32 4 6 C2.68 6 1.36 6 0 6 C0 4.02 0 2.04 0 0 Z " fill="#ABA0AA" transform="translate(43,18)"/>
<path d="M0 0 C0.33 1.65 0.66 3.3 1 5 C1.66 4.01 2.32 3.02 3 2 C3.66 2 4.32 2 5 2 C5.33 2.99 5.66 3.98 6 5 C6.33 4.01 6.66 3.02 7 2 C7.66 2 8.32 2 9 2 C8.979375 2.804375 8.95875 3.60875 8.9375 4.4375 C8.70366379 6.93354885 8.70366379 6.93354885 10 8 C10 6.02 10 4.04 10 2 C15.75 0.875 15.75 0.875 18 2 C18 3.65 18 5.3 18 7 C16.68 7 15.36 7 14 7 C13.67 7.66 13.34 8.32 13 9 C11.06280622 9.05406122 9.12518079 9.09282025 7.1875 9.125 C6.10855469 9.14820312 5.02960937 9.17140625 3.91796875 9.1953125 C1 9 1 9 -2 7 C-4.62531524 6.83286431 -4.62531524 6.83286431 -7 7 C-7.33 5.35 -7.66 3.7 -8 2 C-5.09399739 0.74335022 -3.20395416 0 0 0 Z " fill="#F49AC1" transform="translate(43,67)"/>
<path d="M0 0 C14.52 0 29.04 0 44 0 C44 0.33 44 0.66 44 1 C36.08 1.33 28.16 1.66 20 2 C20 3.65 20 5.3 20 7 C21.32 7.33 22.64 7.66 24 8 C22.35 8 20.7 8 19 8 C19 6.02 19 4.04 19 2 C16.03 2 13.06 2 10 2 C10 3.98 10 5.96 10 8 C9.34 7.67 8.68 7.34 8 7 C8.33 5.35 8.66 3.7 9 2 C8.34 2 7.68 2 7 2 C7 3.98 7 5.96 7 8 C5 5 5 5 5 2 C3.35 3.32 1.7 4.64 0 6 C0 4.02 0 2.04 0 0 Z " fill="#EF57A1" transform="translate(43,67)"/>
<path d="M0 0 C0 0.99 0 1.98 0 3 C-3.95394733 4.47041653 -7.91386563 5.92406763 -11.875 7.375 C-13.53789063 7.99375 -13.53789063 7.99375 -15.234375 8.625 C-32.67259607 14.9848218 -32.67259607 14.9848218 -39 13 C-34.08943784 11.30718838 -29.17812698 9.61657361 -24.26611328 7.92797852 C-22.59565878 7.35338496 -20.92540943 6.7781946 -19.25537109 6.20239258 C-16.85307816 5.37423746 -14.45005247 4.54824051 -12.046875 3.72265625 C-11.30193787 3.46533218 -10.55700073 3.20800812 -9.78948975 2.94288635 C-6.54739863 1.8311824 -3.33257924 0.79805354 0 0 Z " fill="#DA699E" transform="translate(88,77)"/>
<path d="M0 0 C25.74 0 51.48 0 78 0 C78 0.33 78 0.66 78 1 C52.26 1 26.52 1 0 1 C0 0.67 0 0.34 0 0 Z " fill="#F068A7" transform="translate(12,7)"/>
<path d="M0 0 C0.66 0 1.32 0 2 0 C2 23.76 2 47.52 2 72 C1.67 72 1.34 72 1 72 C0.67 48.24 0.34 24.48 0 0 Z " fill="#E6639F" transform="translate(90,8)"/>
<path d="M0 0 C0.33 0 0.66 0 1 0 C1 21.78 1 43.56 1 66 C0.67 66 0.34 66 0 66 C0 44.22 0 22.44 0 0 Z " fill="#EC67A4" transform="translate(10,11)"/>
<path d="M0 0 C13 0 13 0 16 1 C15.34 1 14.68 1 14 1 C14 1.66 14 2.32 14 3 C13.01 3 12.02 3 11 3 C11 3.99 11 4.98 11 6 C9.35 6 7.7 6 6 6 C5.67 5.34 5.34 4.68 5 4 C4.67 4.66 4.34 5.32 4 6 C2.68 6 1.36 6 0 6 C0 4.02 0 2.04 0 0 Z " fill="#8A808A" transform="translate(43,18)"/>
<path d="M0 0 C0.33 0.66 0.66 1.32 1 2 C1.99 2 2.98 2 4 2 C4 3.32 4 4.64 4 6 C0.37 6 -3.26 6 -7 6 C-7 4.68 -7 3.36 -7 2 C-2.25 0 -2.25 0 0 0 Z " fill="#818288" transform="translate(58,56)"/>
<path d="M0 0 C4.46763722 0.60922326 8.92254048 1.28803153 13.375 2 C14.93347656 2.2475 14.93347656 2.2475 16.5234375 2.5 C19 3 19 3 20 4 C22.33944736 3.71269945 24.6739143 3.38063221 27 3 C23.16119063 5.55920624 19.57711369 7.4836094 14.84033203 6.59472656 C12.53463309 5.86280645 10.30628546 5.02866681 8.0625 4.125 C7.28326172 3.82980469 6.50402344 3.53460938 5.70117188 3.23046875 C3.79383696 2.5049794 1.89587229 1.75493677 0 1 C0 0.67 0 0.34 0 0 Z " fill="#EE76AC" transform="translate(33,86)"/>
<path d="M0 0 C1.65 0.99 3.3 1.98 5 3 C5.33 2.34 5.66 1.68 6 1 C6.66 2.32 7.32 3.64 8 5 C7 6 7 6 4.27734375 6.09765625 C2.62412109 6.08025391 2.62412109 6.08025391 0.9375 6.0625 C-0.16722656 6.05347656 -1.27195312 6.04445313 -2.41015625 6.03515625 C-3.69212891 6.01775391 -3.69212891 6.01775391 -5 6 C-4.67 5.34 -4.34 4.68 -4 4 C-2.68 4 -1.36 4 0 4 C-0.33 3.01 -0.66 2.02 -1 1 C-0.67 0.67 -0.34 0.34 0 0 Z " fill="#F1E7ED" transform="translate(32,36)"/>
<path d="M0 0 C0 1.65 0 3.3 0 5 C-2.64 5 -5.28 5 -8 5 C-8 3.35 -8 1.7 -8 0 C-5.13822943 -1.43088528 -3.06624227 -0.59991697 0 0 Z " fill="#F6B4D0" transform="translate(61,69)"/>
<path d="M0 0 C0.66 0.99 1.32 1.98 2 3 C4.05003955 4.19232613 4.05003955 4.19232613 6 5 C6 5.33 6 5.66 6 6 C1.38 6 -3.24 6 -8 6 C-7 4 -7 4 -5.125 3.3125 C-3 3 -3 3 0 4 C0 2.68 0 1.36 0 0 Z " fill="#F7EDF2" transform="translate(59,36)"/>
<path d="M0 0 C3 0 6 0 9 0 C9 1.32 9 2.64 9 4 C8.34 4 7.68 4 7 4 C6.67 3.67 6.34 3.34 6 3 C5.360625 3.165 4.72125 3.33 4.0625 3.5 C2 4 2 4 0 3 C0 2.01 0 1.02 0 0 Z " fill="#70737A" transform="translate(41,58)"/>
<path d="M0 0 C6.75 -0.125 6.75 -0.125 9 1 C8.67 1.99 8.34 2.98 8 4 C5.69 3.67 3.38 3.34 1 3 C0.67 2.01 0.34 1.02 0 0 Z " fill="#F4F2F5" transform="translate(44,54)"/>
<path d="M0 0 C2.64 0 5.28 0 8 0 C8 1.32 8 2.64 8 4 C5.69 4 3.38 4 1 4 C0.67 2.68 0.34 1.36 0 0 Z " fill="#62656D" transform="translate(48,50)"/>
<path d="M0 0 C1.98 0 3.96 0 6 0 C5.34 1.98 4.68 3.96 4 6 C2.68 6 1.36 6 0 6 C0 4.02 0 2.04 0 0 Z " fill="#938893" transform="translate(43,18)"/>
<path d="M0 0 C0.66 0 1.32 0 2 0 C2 1.98 2 3.96 2 6 C0.35 6 -1.3 6 -3 6 C-3.33 4.35 -3.66 2.7 -4 1 C-3.01 1.495 -3.01 1.495 -2 2 C-2.33 2.66 -2.66 3.32 -3 4 C-2.01 4 -1.02 4 0 4 C0 2.68 0 1.36 0 0 Z " fill="#707179" transform="translate(45,48)"/>
<path d="M0 0 C2.97 0 5.94 0 9 0 C8.01 1.485 8.01 1.485 7 3 C4.0625 2.625 4.0625 2.625 1 2 C0.67 1.34 0.34 0.68 0 0 Z " fill="#EEECEF" transform="translate(19,78)"/>
<path d="M0 0 C1.32 0.33 2.64 0.66 4 1 C3.67 2.32 3.34 3.64 3 5 C2.01 5 1.02 5 0 5 C0 3.35 0 1.7 0 0 Z " fill="#F7C3D7" transform="translate(63,69)"/>
<path d="M0 0 C0.99 0 1.98 0 3 0 C3 1.65 3 3.3 3 5 C1.68 4.67 0.36 4.34 -1 4 C-0.67 2.68 -0.34 1.36 0 0 Z " fill="#9E99A1" transform="translate(67,35)"/>
<path d="M0 0 C0.99 0.33 1.98 0.66 3 1 C2.67 2.32 2.34 3.64 2 5 C1.01 5 0.02 5 -1 5 C-0.67 3.35 -0.34 1.7 0 0 Z " fill="#918E97" transform="translate(40,35)"/>
<path d="M0 0 C1.24546405 2.49092811 0.7767578 3.41080733 0 6 C-1.32 6 -2.64 6 -4 6 C-2.25 1.125 -2.25 1.125 0 0 Z " fill="#B8A9B3" transform="translate(59,18)"/>
<path d="M0 0 C-4.625 2.125 -4.625 2.125 -8 1 C-3.375 -1.125 -3.375 -1.125 0 0 Z " fill="#E664A0" transform="translate(63,91)"/>
<path d="M0 0 C-4.625 2.125 -4.625 2.125 -8 1 C-3.375 -1.125 -3.375 -1.125 0 0 Z " fill="#DD5F9A" transform="translate(80,85)"/>
<path d="M0 0 C5.75 0.75 5.75 0.75 8 3 C2.25 2.25 2.25 2.25 0 0 Z " fill="#E764A1" transform="translate(19,83)"/>
<path d="M0 0 C2.475 0.495 2.475 0.495 5 1 C4.01 1.33 3.02 1.66 2 2 C1.34 1.34 0.68 0.68 0 0 Z " fill="#EB66A3" transform="translate(39,90)"/>
<path d="M0 0 C3 1 3 1 3 1 Z " fill="#EE67A5" transform="translate(52,93)"/>
<path d="M0 0 C3 1 3 1 3 1 Z " fill="#EF68A6" transform="translate(47,93)"/>
<path d="M0 0 C3 1 3 1 3 1 Z " fill="#EF68A6" transform="translate(44,92)"/>
<path d="M0 0 C3 1 3 1 3 1 Z " fill="#E764A1" transform="translate(63,89)"/>
<path d="M0 0 C3 1 3 1 3 1 Z " fill="#EB66A3" transform="translate(36,89)"/>
<path d="M0 0 C3 1 3 1 3 1 Z " fill="#E765A1" transform="translate(66,88)"/>
<path d="M0 0 C3 1 3 1 3 1 Z " fill="#EC66A4" transform="translate(33,88)"/>
<path d="M0 0 C3 1 3 1 3 1 Z " fill="#E865A1" transform="translate(69,87)"/>
<path d="M0 0 C3 1 3 1 3 1 Z " fill="#EC66A4" transform="translate(30,87)"/>
<path d="M0 0 C3 1 3 1 3 1 Z " fill="#ED67A4" transform="translate(27,86)"/>
<path d="M0 0 C3 1 3 1 3 1 Z " fill="#E3629E" transform="translate(80,83)"/>
<path d="M0 0 C3 1 3 1 3 1 Z " fill="#E3629E" transform="translate(83,82)"/>
<path d="M0 0 C3 1 3 1 3 1 Z " fill="#E965A2" transform="translate(16,82)"/>
<path d="M0 0 C3 1 3 1 3 1 Z " fill="#E4639F" transform="translate(86,81)"/>
<path d="M0 0 C3 1 3 1 3 1 Z " fill="#EA65A3" transform="translate(13,81)"/>
<path d="M0 0 C2 1 2 1 2 1 Z " fill="#F068A7" transform="translate(50,94)"/>
<path d="M0 0 C2 1 2 1 2 1 Z " fill="#E965A2" transform="translate(89,80)"/>
<path d="M0 0 C2 1 2 1 2 1 Z " fill="#EE67A6" transform="translate(11,80)"/>
<path d="" fill="#EF68A6" transform="translate(0,0)"/>
<path d="" fill="#F068A7" transform="translate(0,0)"/>
</svg>