<svg xmlns="http://www.w3.org/2000/svg" version="1.1" width="100" height="100">
<path d="M0 0 C0.95390625 -0.00861053 1.9078125 -0.01722107 2.890625 -0.02609253 C4.90109624 -0.03219845 6.9117478 -0.01571723 8.921875 0.02197266 C11.99364804 0.07021275 15.0535935 0.02243262 18.125 -0.03515625 C20.08335936 -0.0292086 22.04171138 -0.0176767 24 0 C24.91265625 -0.01821808 25.8253125 -0.03643616 26.765625 -0.0552063 C30.5530443 0.06957336 33.01047688 0.34116615 35.93252563 2.8634491 C40.54151593 8.89810128 40.80370685 14.64739676 40.5859375 22.01171875 C40.57744781 23.10878647 40.56895813 24.20585419 40.56021118 25.33616638 C40.52685109 28.81108333 40.45159969 32.28360704 40.375 35.7578125 C40.34487814 38.12561733 40.31750626 40.49345884 40.29296875 42.86132812 C40.22711716 48.64012778 40.12694374 54.41754912 40 60.1953125 C40.60980713 60.05818848 41.21961426 59.92106445 41.84790039 59.77978516 C42.65219482 59.5997998 43.45648926 59.41981445 44.28515625 59.234375 C45.47830444 58.96681396 45.47830444 58.96681396 46.69555664 58.69384766 C53.364923 57.25102044 59.01069669 57.1953125 66 57.1953125 C66 70.3953125 66 83.5953125 66 97.1953125 C59.07973877 97.1953125 53.19184491 96.88281526 46.515625 95.734375 C33.95231763 93.76595213 21.44176445 93.66995706 8.75 93.5703125 C5.33482609 93.53374541 1.91976437 93.49330793 -1.49530029 93.44766235 C-3.59748604 93.42052357 -5.69975566 93.39913443 -7.80206299 93.38412476 C-8.73524353 93.37386261 -9.66842407 93.36360046 -10.62988281 93.35302734 C-11.45256653 93.34653168 -12.27525024 93.34003601 -13.12286377 93.33334351 C-15 93.1953125 -15 93.1953125 -16 92.1953125 C-16.12696363 89.68754267 -16.18920493 87.20669156 -16.20874023 84.69726562 C-16.21852402 83.91178345 -16.2283078 83.12630127 -16.23838806 82.3170166 C-16.26842792 79.70354926 -16.28975918 77.09013379 -16.30859375 74.4765625 C-16.31516558 73.58404282 -16.3217374 72.69152313 -16.32850838 71.7719574 C-16.3611505 67.0413471 -16.3855811 62.31075968 -16.4050293 57.58007812 C-16.42279687 53.6708874 -16.45753603 49.76242425 -16.50756836 45.85351562 C-16.56793564 41.13197372 -16.59852915 36.41110318 -16.60820198 31.68919373 C-16.61673596 29.89351095 -16.63550318 28.09784509 -16.6649456 26.30238342 C-16.93938492 8.60327783 -16.93938492 8.60327783 -11.93128967 2.61859131 C-8.19870856 -0.13216311 -4.50475223 -0.08992206 0 0 Z M-9 9.1953125 C4.86 9.1953125 18.72 9.1953125 33 9.1953125 C30.46137145 4.82935238 30.46137145 4.82935238 26.40234375 4.67773438 C24.9142896 4.65133967 23.42570434 4.64826065 21.9375 4.6640625 C20.75595337 4.65832214 20.75595337 4.65832214 19.55053711 4.65246582 C17.88621746 4.64974554 16.22185514 4.65711504 14.55761719 4.67382812 C12.00879688 4.6952386 9.46279505 4.67403311 6.9140625 4.6484375 C5.29686877 4.65108076 3.6796768 4.6562057 2.0625 4.6640625 C1.29993896 4.65596558 0.53737793 4.64786865 -0.24829102 4.63952637 C-5.35083773 4.73003397 -5.71834847 4.81977713 -9 9.1953125 Z M-6 21.1953125 C-6.3176246 23.10537556 -6.3176246 23.10537556 -6.25 25.1953125 C-6.25515625 25.8965625 -6.2603125 26.5978125 -6.265625 27.3203125 C-6.15705515 29.4388794 -6.15705515 29.4388794 -4 31.1953125 C-1.57432881 31.38245236 0.73497667 31.45116528 3.16015625 31.42578125 C3.86522812 31.42532303 4.57029999 31.42486481 5.29673767 31.4243927 C6.78711632 31.42137113 8.27749184 31.4134876 9.76782227 31.40112305 C12.05691633 31.38285706 14.34560627 31.38061341 16.63476562 31.38085938 C18.08073269 31.37594456 19.52669699 31.3701164 20.97265625 31.36328125 C21.66118179 31.36216843 22.34970734 31.3610556 23.05909729 31.35990906 C26.3101166 31.60159053 26.3101166 31.60159053 29 30.1953125 C29.09823937 28.53102199 29.12973631 26.86249319 29.125 25.1953125 C29.12757812 24.2878125 29.13015625 23.3803125 29.1328125 22.4453125 C29.25173779 20.22564639 29.25173779 20.22564639 28 19.1953125 C25.64771681 19.08213966 23.32588052 19.03114713 20.97265625 19.02734375 C20.26854111 19.02401535 19.56442596 19.02068695 18.838974 19.01725769 C17.34683894 19.01218595 15.8546925 19.00984944 14.36254883 19.01000977 C12.07549393 19.00782491 9.78892247 18.98967701 7.50195312 18.97070312 C6.05468916 18.96776896 4.60742289 18.96578432 3.16015625 18.96484375 C2.13040428 18.95406548 2.13040428 18.95406548 1.07984924 18.94306946 C-2.90519894 18.85684233 -2.90519894 18.85684233 -6 21.1953125 Z M-6 37.1953125 C-6.3176246 39.10537556 -6.3176246 39.10537556 -6.25 41.1953125 C-6.25515625 41.8965625 -6.2603125 42.5978125 -6.265625 43.3203125 C-6.15705515 45.4388794 -6.15705515 45.4388794 -4 47.1953125 C-1.57432881 47.38245236 0.73497667 47.45116528 3.16015625 47.42578125 C3.86522812 47.42532303 4.57029999 47.42486481 5.29673767 47.4243927 C6.78711632 47.42137113 8.27749184 47.4134876 9.76782227 47.40112305 C12.05691633 47.38285706 14.34560627 47.38061341 16.63476562 47.38085938 C18.08073269 47.37594456 19.52669699 47.3701164 20.97265625 47.36328125 C21.66118179 47.36216843 22.34970734 47.3610556 23.05909729 47.35990906 C26.3101166 47.60159053 26.3101166 47.60159053 29 46.1953125 C29.09823937 44.53102199 29.12973631 42.86249319 29.125 41.1953125 C29.12757812 40.2878125 29.13015625 39.3803125 29.1328125 38.4453125 C29.25173779 36.22564639 29.25173779 36.22564639 28 35.1953125 C25.64771681 35.08213966 23.32588052 35.03114713 20.97265625 35.02734375 C20.26854111 35.02401535 19.56442596 35.02068695 18.838974 35.01725769 C17.34683894 35.01218595 15.8546925 35.00984944 14.36254883 35.01000977 C12.07549393 35.00782491 9.78892247 34.98967701 7.50195312 34.97070312 C6.05468916 34.96776896 4.60742289 34.96578432 3.16015625 34.96484375 C2.13040428 34.95406548 2.13040428 34.95406548 1.07984924 34.94306946 C-2.90519894 34.85684233 -2.90519894 34.85684233 -6 37.1953125 Z M10 58.1953125 C9.67 59.8453125 9.34 61.4953125 9 63.1953125 C11.475 63.6903125 11.475 63.6903125 14 64.1953125 C14.33 62.5453125 14.66 60.8953125 15 59.1953125 C13.35 58.8653125 11.7 58.5353125 10 58.1953125 Z M46 64.1953125 C46 67.8253125 46 71.4553125 46 75.1953125 C51.28 75.1953125 56.56 75.1953125 62 75.1953125 C62 70.9053125 62 66.6153125 62 62.1953125 C56.37182331 62.1953125 51.5197377 63.13126668 46 64.1953125 Z M28 66.1953125 C28 69.1653125 28 72.1353125 28 75.1953125 C32.62 75.1953125 37.24 75.1953125 42 75.1953125 C42 71.8953125 42 68.5953125 42 65.1953125 C37.21521178 65.09766376 32.72314313 65.42418709 28 66.1953125 Z M10 74.1953125 C9.67 75.8453125 9.34 77.4953125 9 79.1953125 C11.475 79.6903125 11.475 79.6903125 14 80.1953125 C14.33 78.5453125 14.66 76.8953125 15 75.1953125 C13.35 74.8653125 11.7 74.5353125 10 74.1953125 Z M28 79.1953125 C28 82.1653125 28 85.1353125 28 88.1953125 C34.93 88.6903125 34.93 88.6903125 42 89.1953125 C42 85.8953125 42 82.5953125 42 79.1953125 C37.38 79.1953125 32.76 79.1953125 28 79.1953125 Z M46 79.1953125 C46 82.8253125 46 86.4553125 46 90.1953125 C47.711875 90.5253125 49.42375 90.8553125 51.1875 91.1953125 C52.63189453 91.47375 52.63189453 91.47375 54.10546875 91.7578125 C57.33607312 92.31985385 57.33607312 92.31985385 62 92.1953125 C62 87.9053125 62 83.6153125 62 79.1953125 C56.72 79.1953125 51.44 79.1953125 46 79.1953125 Z " fill="#000000" transform="translate(34,2.8046875)"/>
</svg>
