<svg xmlns="http://www.w3.org/2000/svg" version="1.1" width="80" height="80">
<path d="M0 0 C1.19625 0.00515625 2.3925 0.0103125 3.625 0.015625 C4.87023438 0.03625 6.11546875 0.056875 7.3984375 0.078125 C9.27789062 0.08585938 9.27789062 0.08585938 11.1953125 0.09375 C20.46485234 0.17383242 20.46485234 0.17383242 22.7734375 1.328125 C22.88969686 5.89041041 22.96071158 10.45231428 23.0234375 15.015625 C23.05695313 16.30919922 23.09046875 17.60277344 23.125 18.93554688 C23.14433594 20.80629883 23.14433594 20.80629883 23.1640625 22.71484375 C23.1954834 24.43513794 23.1954834 24.43513794 23.22753906 26.19018555 C22.67553989 30.00461853 21.45021327 31.60818037 18.7734375 34.328125 C17.06068956 35.21475489 15.33058998 36.06855093 13.5859375 36.890625 C10.72559434 38.76680909 9.06590975 40.10898904 8.25146484 43.50390625 C7.7654093 47.88266228 7.76781019 52.2134272 7.8359375 56.61328125 C7.86725796 60.56670649 7.57301695 63.72334241 5.7734375 67.328125 C1.88399055 70.2778398 -3.03313463 70.1448872 -7.7421875 70.12890625 C-14.31618919 68.61806505 -18.11971922 63.39789546 -22.2265625 58.328125 C-21.2265625 55.328125 -21.2265625 55.328125 -19.2265625 53.328125 C-22.1065445 53.14762795 -22.1065445 53.14762795 -24.1640625 54.078125 C-24.8446875 54.160625 -25.5253125 54.243125 -26.2265625 54.328125 C-28.4765625 52.390625 -28.4765625 52.390625 -30.2265625 50.328125 C-29.5665625 48.678125 -28.9065625 47.028125 -28.2265625 45.328125 C-29.8765625 45.988125 -31.5265625 46.648125 -33.2265625 47.328125 C-37.75529706 44.10948865 -42.41213302 40.74811934 -43.74853516 35.13623047 C-45.11988273 21.982654 -45.11988273 21.982654 -41.98779297 17.59130859 C-39.63605748 15.90460504 -38.26985552 16.06995374 -35.40234375 16.23828125 C-25.55558157 17.01491179 -25.55558157 17.01491179 -16.47705078 14.16455078 C-14.27639227 11.77148497 -12.95663751 9.14149873 -11.59375 6.2109375 C-8.98098031 0.70172598 -5.87574058 -0.05003567 0 0 Z " fill="#89B5EE" transform="translate(51.2265625,5.671875)"/>
<path d="M0 0 C1.19625 0.00515625 2.3925 0.0103125 3.625 0.015625 C4.87023438 0.03625 6.11546875 0.056875 7.3984375 0.078125 C9.27789062 0.08585938 9.27789062 0.08585938 11.1953125 0.09375 C20.46485234 0.17383242 20.46485234 0.17383242 22.7734375 1.328125 C22.88969686 5.89041041 22.96071158 10.45231428 23.0234375 15.015625 C23.05695313 16.30919922 23.09046875 17.60277344 23.125 18.93554688 C23.14433594 20.80629883 23.14433594 20.80629883 23.1640625 22.71484375 C23.1954834 24.43513794 23.1954834 24.43513794 23.22753906 26.19018555 C22.67553989 30.00461853 21.45021327 31.60818037 18.7734375 34.328125 C17.06068956 35.21475489 15.33058998 36.06855093 13.5859375 36.890625 C10.72559434 38.76680909 9.06590975 40.10898904 8.25146484 43.50390625 C7.7654093 47.88266228 7.76781019 52.2134272 7.8359375 56.61328125 C7.86725796 60.56670649 7.57301695 63.72334241 5.7734375 67.328125 C1.88399055 70.2778398 -3.03313463 70.1448872 -7.7421875 70.12890625 C-14.31618919 68.61806505 -18.11971922 63.39789546 -22.2265625 58.328125 C-21.2265625 55.328125 -21.2265625 55.328125 -19.2265625 53.328125 C-19.5450802 51.21991703 -19.5450802 51.21991703 -20.2265625 49.328125 C-19.6696875 49.67875 -19.1128125 50.029375 -18.5390625 50.390625 C-15.56667019 51.59564891 -14.29381477 51.21053873 -11.2265625 50.328125 C-8.58605631 48.83282958 -8.58605631 48.83282958 -5.953125 46.90625 C-4.963125 46.21015625 -3.973125 45.5140625 -2.953125 44.796875 C-1.92960937 44.0646875 -0.90609375 43.3325 0.1484375 42.578125 C1.16421875 41.86140625 2.18 41.1446875 3.2265625 40.40625 C5.1959923 39.01486063 7.16196008 37.61855488 9.12402344 36.21679688 C10.75056904 35.05729109 12.38280887 33.90566277 14.02441406 32.76757812 C17.43137941 30.54445185 17.43137941 30.54445185 19.7734375 27.328125 C19.85815114 25.51470658 19.88064833 23.69818339 19.87109375 21.8828125 C19.86787109 20.80644531 19.86464844 19.73007812 19.86132812 18.62109375 C19.85294922 17.49316406 19.84457031 16.36523438 19.8359375 15.203125 C19.83142578 14.06746094 19.82691406 12.93179687 19.82226562 11.76171875 C19.81045365 8.95046862 19.79398257 6.1393227 19.7734375 3.328125 C15.7325203 3.12406092 11.6929321 3.00023796 7.6484375 2.890625 C6.50632813 2.83197266 5.36421875 2.77332031 4.1875 2.71289062 C-1.80378901 2.45739838 -1.80378901 2.45739838 -7.1965332 4.64282227 C-8.79431109 6.44815025 -10.00705617 8.25021616 -11.2265625 10.328125 C-11.64550781 10.96000732 -12.06445312 11.59188965 -12.49609375 12.24291992 C-13.76837382 14.18220863 -14.97130701 16.15157447 -16.1640625 18.140625 C-19.56012629 23.73144585 -23.09292178 29.06573285 -27.14453125 34.21484375 C-28.56939532 36.99770101 -28.14271858 38.39642553 -27.2265625 41.328125 C-26.23572283 43.56220613 -26.23572283 43.56220613 -25.2265625 45.328125 C-32.95824705 47.04627712 -32.95824705 47.04627712 -36.5859375 44.9921875 C-40.81603088 41.38416668 -43.3643776 38.446091 -43.9140625 32.828125 C-44.32347954 20.87073904 -44.32347954 20.87073904 -41.98999023 17.58911133 C-39.63654379 15.90621629 -38.26925346 16.06998908 -35.40234375 16.23828125 C-25.55558157 17.01491179 -25.55558157 17.01491179 -16.47705078 14.16455078 C-14.27639227 11.77148497 -12.95663751 9.14149873 -11.59375 6.2109375 C-8.98098031 0.70172598 -5.87574058 -0.05003567 0 0 Z " fill="#4F7AB6" transform="translate(51.2265625,5.671875)"/>
<path d="M0 0 C0.05789006 3.45826342 0.09355821 6.91640293 0.125 10.375 C0.14175781 11.35984375 0.15851562 12.3446875 0.17578125 13.359375 C0.18222656 14.30039062 0.18867187 15.24140625 0.1953125 16.2109375 C0.20578613 17.08024902 0.21625977 17.94956055 0.22705078 18.84521484 C0 21 0 21 -2 23 C-7.49322306 23.94925384 -12.89255479 24.4299406 -17.63671875 21.2109375 C-19.5889799 19.22713174 -21.34697342 17.23732903 -23 15 C-20.42698021 12.25312752 -18.1018628 10.32504552 -14.75 8.625 C-10.708774 6.48081232 -7.19358382 3.99566218 -3.62890625 1.13671875 C-2 0 -2 0 0 0 Z " fill="#8AB6EF" transform="translate(56,49)"/>
<path d="M0 0 C0.84755859 0.00966797 1.69511719 0.01933594 2.56835938 0.02929688 C3.44943359 0.05443359 4.33050781 0.07957031 5.23828125 0.10546875 C6.13095703 0.11900391 7.02363281 0.13253906 7.94335938 0.14648438 C10.14644291 0.18182796 12.34830707 0.23116382 14.55078125 0.29296875 C12.01713526 4.99614015 9.43140125 9.53817091 6.36328125 13.91796875 C3.80225003 17.66405298 2.49241295 20.86729976 1.55078125 25.29296875 C0.42490111 24.33566959 -0.69989025 23.3770898 -1.82421875 22.41796875 C-2.45070313 21.88429688 -3.0771875 21.350625 -3.72265625 20.80078125 C-7.4228434 17.56939609 -7.4228434 17.56939609 -7.75 14.140625 C-7.75386719 12.89152344 -7.75773438 11.64242187 -7.76171875 10.35546875 C-7.77847656 9.10894531 -7.79523437 7.86242187 -7.8125 6.578125 C-7.44921875 3.29296875 -7.44921875 3.29296875 -6.20458984 1.60595703 C-3.97626023 -0.06079633 -2.76066416 -0.05558384 0 0 Z " fill="#89B5EE" transform="translate(17.44921875,23.70703125)"/>
<path d="M0 0 C2.64 0 5.28 0 8 0 C8 4.62 8 9.24 8 14 C12.62 14 17.24 14 22 14 C22 16.97 22 19.94 22 23 C14.74 23 7.48 23 0 23 C0 15.41 0 7.82 0 0 Z " fill="#7B9CC6" transform="translate(6,54)"/>
<path d="M0 0 C3.47899158 1.39159663 4.48052501 2.63251488 6 6 C-2.10546875 14.10546875 -2.10546875 14.10546875 -3.56420898 15.56030273 C-4.96347102 16.96337163 -6.34912906 18.3799663 -7.734375 19.796875 C-10 22 -10 22 -12.0625 23.0625 C-14 23 -14 23 -16.25 21.0625 C-16.8275 20.381875 -17.405 19.70125 -18 19 C-17.1875 17.0625 -17.1875 17.0625 -16 15 C-15.01 14.67 -14.02 14.34 -13 14 C-13 13.34 -13 12.68 -13 12 C-11.42578125 10.44921875 -11.42578125 10.44921875 -9.3125 8.6875 C-6.04699036 5.91500692 -2.98084015 3.07399141 0 0 Z " fill="#7C9DC9" transform="translate(39,37)"/>
<path d="M0 0 C2.4375 1.5625 2.4375 1.5625 4 4 C4.56288002 7.94016013 4.60396028 10.05782196 2.4375 13.4375 C-0.94217804 15.60396028 -3.05983987 15.56288002 -7 15 C-9.4375 13.4375 -9.4375 13.4375 -11 11 C-11.56288002 7.05983987 -11.60396028 4.94217804 -9.4375 1.5625 C-6.05782196 -0.60396028 -3.94016013 -0.56288002 0 0 Z " fill="#DEE8F0" transform="translate(58,18)"/>
<path d="M0 0 C0.66 0.33 1.32 0.66 2 1 C1.67 1.33 1.34 1.66 1 2 C0.84285346 3.63256758 0.74914586 5.27135338 0.68359375 6.91015625 C0.64169922 7.89951172 0.59980469 8.88886719 0.55664062 9.90820312 C0.51732422 10.94912109 0.47800781 11.99003906 0.4375 13.0625 C0.39431641 14.10728516 0.35113281 15.15207031 0.30664062 16.22851562 C0.20018775 18.81886884 0.0981724 21.40932186 0 24 C-0.33 24 -0.66 24 -1 24 C-1 17.73 -1 11.46 -1 5 C-5.99840707 8.480626 -5.99840707 8.480626 -10.99072266 11.9699707 C-14.87040881 14.65442986 -18.70181676 17.01361563 -23 19 C-22.02133662 20.14626322 -21.04205413 21.29199788 -20.0625 22.4375 C-19.51722656 23.07558594 -18.97195312 23.71367188 -18.41015625 24.37109375 C-15.71492762 27.48441879 -14.12498044 27.25394881 -9.9375 27.5625 C-8.83277344 27.64628906 -7.72804688 27.73007813 -6.58984375 27.81640625 C-5.73519531 27.87699219 -4.88054688 27.93757813 -4 28 C-4 28.99 -4 29.98 -4 31 C-14.42369528 32.64061341 -14.42369528 32.64061341 -18.6953125 29.92041016 C-22.18652832 26.96362865 -25.12620532 23.54761027 -28 20 C-27 17 -27 17 -25 15 C-25.3185177 12.89179203 -25.3185177 12.89179203 -26 11 C-25.443125 11.350625 -24.88625 11.70125 -24.3125 12.0625 C-21.36902545 13.25580049 -20.03453204 12.84457605 -17 12 C-14.83079332 10.81248217 -14.83079332 10.81248217 -12.79296875 9.27734375 C-12.04208984 8.73916016 -11.29121094 8.20097656 -10.51757812 7.64648438 C-9.74865234 7.08251953 -8.97972656 6.51855469 -8.1875 5.9375 C-7.39923828 5.36966797 -6.61097656 4.80183594 -5.79882812 4.21679688 C-3.86026918 2.81868466 -1.92772776 1.41298918 0 0 Z " fill="#507CB9" transform="translate(57,44)"/>
<path d="M0 0 C1.32 0 2.64 0 4 0 C4 4.62 4 9.24 4 14 C8.62 14 13.24 14 18 14 C18 15.32 18 16.64 18 18 C12.06 18 6.12 18 0 18 C0 12.06 0 6.12 0 0 Z " fill="#DEE8F0" transform="translate(8,56)"/>
<path d="M0 0 C3.03978021 0.68164768 4.80055419 2.23591662 6.93359375 4.43359375 C8.48383839 7.53408303 8.2235139 10.01253593 7.93359375 13.43359375 C6.1379697 16.18688396 4.88104453 17.95986836 1.93359375 19.43359375 C-2.24784636 19.82806923 -4.37586673 19.88394561 -7.94140625 17.55859375 C-10.85351283 14.64648717 -11.0270893 13.83331605 -11.44140625 9.62109375 C-11.37967942 6.23229105 -11.05507416 5.41659561 -9.06640625 2.43359375 C-5.71397384 0.19863881 -3.9372435 -0.24561254 0 0 Z M-7.50390625 3.99609375 C-9.67036653 7.37577179 -9.62928627 9.49343362 -9.06640625 13.43359375 C-7.64973958 16.01692708 -7.64973958 16.01692708 -5.06640625 17.43359375 C-1.12624612 17.99647377 0.99141571 18.03755403 4.37109375 15.87109375 C6.53755403 12.49141571 6.49647377 10.37375388 5.93359375 6.43359375 C4.51692708 3.85026042 4.51692708 3.85026042 1.93359375 2.43359375 C-2.00656638 1.87071373 -4.12422821 1.82963347 -7.50390625 3.99609375 Z " fill="#7B9CC8" transform="translate(56.06640625,15.56640625)"/>
<path d="M0 0 C0.66 0.33 1.32 0.66 2 1 C1.67 1.33 1.34 1.66 1 2 C0.84285346 3.63256758 0.74914586 5.27135338 0.68359375 6.91015625 C0.64169922 7.89951172 0.59980469 8.88886719 0.55664062 9.90820312 C0.51732422 10.94912109 0.47800781 11.99003906 0.4375 13.0625 C0.39431641 14.10728516 0.35113281 15.15207031 0.30664062 16.22851562 C0.20018775 18.81886884 0.0981724 21.40932186 0 24 C-0.33 24 -0.66 24 -1 24 C-1 17.73 -1 11.46 -1 5 C-2.66289063 6.20849609 -2.66289063 6.20849609 -4.359375 7.44140625 C-5.82244368 8.48243589 -7.28601153 9.52276425 -8.75 10.5625 C-9.47960938 11.09552734 -10.20921875 11.62855469 -10.9609375 12.17773438 C-12.02441406 12.92700195 -12.02441406 12.92700195 -13.109375 13.69140625 C-13.75874023 14.15748291 -14.40810547 14.62355957 -15.07714844 15.10375977 C-17 16 -17 16 -19.24316406 15.64428711 C-19.82291992 15.43167236 -20.40267578 15.21905762 -21 15 C-18.32808002 12.98034284 -15.62861328 11.01106844 -12.890625 9.08203125 C-11.75947266 8.28442383 -11.75947266 8.28442383 -10.60546875 7.47070312 C-9.82816406 6.92349609 -9.05085938 6.37628906 -8.25 5.8125 C-7.45722656 5.25369141 -6.66445313 4.69488281 -5.84765625 4.11914062 C-3.89881355 2.74555872 -1.94958373 1.37252984 0 0 Z " fill="#5884BF" transform="translate(57,44)"/>
<path d="M0 0 C0.99 0.33 1.98 0.66 3 1 C1.34136495 5.32504836 -1.871041 8.09418825 -5.125 11.25 C-5.68832031 11.80429687 -6.25164063 12.35859375 -6.83203125 12.9296875 C-8.21686028 14.29104485 -9.60783204 15.64614859 -11 17 C-11.99 16.67 -12.98 16.34 -14 16 C-12.34136495 11.67495164 -9.128959 8.90581175 -5.875 5.75 C-5.31167969 5.19570313 -4.74835937 4.64140625 -4.16796875 4.0703125 C-2.78313972 2.70895515 -1.39216796 1.35385141 0 0 Z " fill="#DCE7EF" transform="translate(39,40)"/>
</svg>